<?xml version="1.0" encoding="UTF-8" standalone="no"?>
<svg
   version="1.0"
   width="600.000000pt"
   height="600.000000pt"
   viewBox="0 0 600.000000 600.000000"
   preserveAspectRatio="xMidYMid meet"
   id="svg20"
   sodipodi:docname="backTofunctions.svg"
   inkscape:version="1.2.2 (732a01da63, 2022-12-09)"
   xmlns:inkscape="http://www.inkscape.org/namespaces/inkscape"
   xmlns:sodipodi="http://sodipodi.sourceforge.net/DTD/sodipodi-0.dtd"
   xmlns="http://www.w3.org/2000/svg"
   xmlns:svg="http://www.w3.org/2000/svg">
  <defs
     id="defs24">
    <inkscape:path-effect
       effect="bspline"
       id="path-effect2056"
       is_visible="true"
       lpeversion="1"
       weight="33.333333"
       steps="2"
       helper_size="0"
       apply_no_weight="true"
       apply_with_weight="true"
       only_selected="false" />
    <inkscape:path-effect
       effect="bspline"
       id="path-effect1722"
       is_visible="true"
       lpeversion="1"
       weight="33.333333"
       steps="2"
       helper_size="0"
       apply_no_weight="true"
       apply_with_weight="true"
       only_selected="false" />
    <inkscape:path-effect
       effect="bspline"
       id="path-effect1664"
       is_visible="true"
       lpeversion="1"
       weight="33.333333"
       steps="2"
       helper_size="0"
       apply_no_weight="true"
       apply_with_weight="true"
       only_selected="false" />
  </defs>
  <sodipodi:namedview
     id="namedview22"
     pagecolor="#505050"
     bordercolor="#eeeeee"
     borderopacity="1"
     inkscape:showpageshadow="0"
     inkscape:pageopacity="0"
     inkscape:pagecheckerboard="0"
     inkscape:deskcolor="#505050"
     inkscape:document-units="pt"
     showgrid="false"
     inkscape:zoom="0.523125"
     inkscape:cx="549.58184"
     inkscape:cy="426.28435"
     inkscape:window-width="1920"
     inkscape:window-height="1017"
     inkscape:window-x="-8"
     inkscape:window-y="-8"
     inkscape:window-maximized="1"
     inkscape:current-layer="svg20" />
  <metadata
     id="metadata14">
Created by potrace 1.16, written by Peter Selinger 2001-2019
</metadata>
  <path
     style="opacity:0.996;fill:#777bb3;fill-opacity:1;stroke:#777bb3;stroke-width:0.102047"
     d="M 254.36169,458.90105 C 221.2673,451.13521 166.54807,438.47094 133.21456,426.40418 99.881053,414.33743 87.933858,402.86812 76.105853,395.10204 64.277847,387.33595 52.569601,383.27391 45.639779,378.25622 c -6.929821,-5.01769 -9.080313,-10.99128 -8.841578,-17.68215 0.238735,-6.69087 2.867117,-14.09813 4.898196,-19.83294 2.031079,-5.73481 3.464743,-9.79686 6.45186,-13.02297 2.987116,-3.22612 7.52705,-5.61556 38.113163,-14.09838 30.58611,-8.48281 87.2158,-23.05839 117.08421,-31.54106 29.8684,-8.48267 32.97467,-10.87211 40.97963,-16.12908 8.00495,-5.25698 20.90792,-13.38107 33.09451,-19.71327 12.18659,-6.3322 23.65589,-10.87213 37.39576,-13.50051 13.73986,-2.62838 29.74911,-3.34521 45.99782,-3.1062 16.24871,0.239 32.73583,1.43372 50.05976,1.91158 17.32393,0.47787 35.48366,0.23892 49.94021,0.95585 14.45656,0.71693 25.20903,2.38954 36.32029,5.735 11.11125,3.34547 22.58056,8.36329 31.42158,15.05416 8.84102,6.69087 15.05355,15.05389 19.11549,23.29772 4.06193,8.24383 5.97349,16.36792 7.28764,25.20908 1.31415,8.84115 2.03098,18.39891 2.03092,27.35951 -7e-5,8.96059 -0.7169,17.32363 -2.15066,24.73099 -1.43376,7.40735 -3.58425,13.85884 -5.97335,17.20387 -2.3891,3.34502 -5.01748,3.58397 -9.31851,2.26997 -4.30102,-1.314 -10.27462,-4.18133 -15.65104,-5.97361 -5.37642,-1.79227 -10.1553,-2.5091 -20.19166,3.10621 -10.03636,5.61531 -25.32876,17.5625 -33.93099,24.49207 -8.60222,6.92957 -10.51377,8.84112 -11.2306,18.5191 -0.71683,9.67798 -0.23895,27.12088 -1.67276,40.38244 -1.43381,13.26157 -4.77902,22.34143 -9.79689,29.50969 -5.01786,7.16827 -11.70829,12.42503 -20.19069,14.21724 -8.4824,1.79221 -18.75699,0.1196 -26.28414,-5.97331 -7.52715,-6.09292 -12.30602,-16.60645 -19.59385,-22.4611 -7.28782,-5.85466 -17.08451,-7.04938 -29.27119,-5.73524 -12.18668,1.31414 -26.76226,5.13725 -39.7849,5.61529 -13.02263,0.47805 -24.49193,-2.38928 -57.58632,-10.15512 z"
     id="path1662"
     inkscape:path-effect="#path-effect1664"
     inkscape:original-d="M 275.98566,463.79928 C 221.26717,451.13575 166.54794,438.47148 111.82796,425.80646 99.88104,414.33744 87.933847,402.86813 75.985665,391.39785 c -11.707969,-4.06146 -23.416217,-8.1235 -35.12545,-12.18638 -2.149831,-5.97309 -4.300325,-11.94668 -6.451613,-17.92115 2.629238,-7.4068 5.25762,-14.81406 7.885305,-22.22222 1.43447,-4.06146 2.868134,-8.12351 4.301075,-12.18638 4.540865,-2.38878 9.080798,-4.77822 13.620071,-7.16846 56.632707,-14.57541 113.262397,-29.15098 169.892477,-43.7276 3.10714,-2.38878 6.21341,-4.77822 9.31899,-7.16845 12.90424,-8.12368 25.80721,-16.24776 38.70968,-24.37276 11.47052,-4.53937 22.93982,-9.0793 34.4086,-13.62008 16.01063,-0.7161 32.01987,-1.43294 48.02868,-2.15053 16.48853,1.19551 32.97565,2.39023 49.46236,3.58423 18.16121,-0.23821 36.32094,-0.47715 54.48029,-0.71685 10.75365,1.67343 21.50612,3.34603 32.25806,5.01792 11.47052,5.01877 22.93983,10.03659 34.40861,15.05376 6.21354,8.36412 12.42607,16.72715 18.63798,25.08961 1.91238,8.12516 3.82394,16.24925 5.73477,24.37276 0.71761,9.55888 1.43445,19.11664 2.15054,28.67383 -0.71611,8.36412 -1.43294,16.72716 -2.15054,25.08961 -2.14983,6.45249 -4.30032,12.90398 -6.45161,19.35484 -2.62774,0.23971 -5.25612,0.47865 -7.8853,0.71685 -5.97309,-2.8667 -11.94669,-5.73402 -17.92115,-8.60216 -4.77832,-0.71611 -9.5572,-1.43294 -14.33692,-2.15053 -15.29226,11.94842 -30.58467,23.8956 -45.87813,35.84229 -1.91088,1.91238 -3.82243,3.82393 -5.73477,5.73477 0.47865,17.44435 0.95655,34.88725 1.43369,52.32975 -3.3446,9.08098 -6.68981,18.16084 -10.03584,27.24014 -6.68995,5.25773 -13.38038,10.51449 -20.07169,15.77061 -10.27424,-1.67192 -20.54883,-3.34454 -30.82437,-5.01792 -4.77832,-10.5132 -9.55719,-21.02673 -14.33691,-31.54122 -9.79635,-1.19402 -19.59304,-2.38874 -29.39068,-3.58423 -14.57541,3.824 -29.15099,7.64711 -43.7276,11.46954 -11.46902,-2.8667 -22.93832,-5.73402 -34.40861,-8.60216 z" />
  <path
     style="opacity:0.996;fill:#777bb3;fill-opacity:0.99607843;stroke:#777bb3;stroke-width:0.102047"
     d="m 358.9605,222.82018 c 0.17929,-0.71668 0.17929,-1.19458 -2.03089,-8.54232 -2.21018,-7.34775 -6.63064,-21.56491 -10.99126,-30.76454 -4.36061,-9.19964 -8.66161,-13.38116 -10.33467,-16.18911 -1.67307,-2.80794 -0.7173,-4.2416 3.46483,-4.7793 4.18212,-0.5377 11.58938,-0.17929 17.86189,1.31438 6.27251,1.49367 11.40981,4.12205 16.18858,10.21556 4.77877,6.0935 9.19924,15.65126 12.90289,25.6872 3.70365,10.03594 6.69045,20.54947 6.75024,26.34347 0.0598,5.79399 -2.80754,6.86923 -7.94483,7.28748 -5.13729,0.41825 -12.54455,0.17931 -17.38332,-1.25402 -4.83877,-1.43333 -7.10874,-4.06172 -8.06495,-5.85404 -0.95621,-1.79232 -0.5978,-2.74809 -0.41851,-3.46476 z"
     id="path1720"
     inkscape:path-effect="#path-effect1722"
     inkscape:original-d="m 359.13979,222.58064 c 7.5e-4,-0.47714 7.5e-4,-0.95504 0,-1.43369 -4.4199,-14.21698 -8.84036,-28.43414 -13.26165,-42.65233 -4.30041,-4.18093 -8.60141,-8.36245 -12.90323,-12.5448 0.95657,-1.43297 1.91234,-2.86663 2.86739,-4.30108 7.4083,0.35919 14.81556,0.7176 22.22222,1.07527 5.13824,2.62924 10.27554,5.25762 15.41218,7.88531 4.42139,9.55888 8.84185,19.11664 13.26165,28.67383 2.98767,10.5147 5.97447,21.02823 8.96058,31.54122 -2.8667,1.07604 -5.73402,2.15129 -8.60216,3.22581 -7.4068,-0.2382 -14.81406,-0.47715 -22.22222,-0.71685 -2.26931,-2.62773 -4.53927,-5.25612 -6.81003,-7.8853 0.35917,-0.95507 0.71759,-1.91084 1.07527,-2.86739 z" />
  <path
     style="opacity:0.996;fill:#777bb3;fill-opacity:0.996078;stroke:#777bb3;stroke-width:0.102047"
     d="m 416.4879,181.30283 c -2.15099,-1.13482 -2.15099,-1.61272 -0.95627,-9.67745 1.19472,-8.06474 3.58417,-23.71556 9.9764,-33.51288 6.39223,-9.79732 16.78629,-13.73989 31.66117,-16.42803 14.87489,-2.68813 34.22934,-4.1218 46.71456,-3.9424 12.48523,0.1794 18.10041,1.97148 24.37287,5.01825 6.27247,3.04676 13.20183,7.34775 16.90521,10.51401 3.70337,3.16626 4.18126,5.19728 3.58372,7.34746 -0.59754,2.15019 -2.27015,4.42015 -9.55786,6.74981 -7.28772,2.32965 -20.1907,4.71909 -31.95905,7.22807 -11.76836,2.50897 -22.40136,5.13735 -30.46604,7.7658 -8.06467,2.62845 -13.56039,5.25684 -18.93689,8.60219 -5.3765,3.34535 -10.63327,7.4074 -15.71076,10.03582 -5.07749,2.62843 -9.97584,3.82315 -14.57546,3.5247 -4.59962,-0.29845 -8.90061,-2.09053 -11.0516,-3.22535 z"
     id="path2054"
     inkscape:path-effect="#path-effect2056"
     inkscape:original-d="m 414.33691,180.64516 c 7.5e-4,-0.47715 7.5e-4,-0.95505 0,-1.43369 2.39029,-15.6507 4.77973,-31.30152 7.16847,-46.9534 10.39522,-3.94199 20.78928,-7.88456 31.18279,-11.82796 19.35598,-1.43297 38.71043,-2.86664 58.06451,-4.30108 5.61616,1.7929 11.23134,3.58498 16.84589,5.37635 6.9304,4.30191 13.85977,8.60289 20.78853,12.90322 0.47866,2.03186 0.95654,4.06288 1.43369,6.09319 -1.67193,2.27081 -3.34453,4.54078 -5.01793,6.81004 -12.90272,2.39028 -25.8057,4.77972 -38.70967,7.16846 -10.63268,2.62924 -21.26568,5.25762 -31.89965,7.8853 -5.49517,2.62924 -10.99088,5.25763 -16.48745,7.8853 -5.25622,4.06296 -10.51299,8.12501 -15.77061,12.18638 -4.89779,1.19552 -9.79614,2.39024 -14.69534,3.58423 -4.30041,-1.7914 -8.6014,-3.58348 -12.90323,-5.37634 z" />
  <g
     transform="translate(0.000000,600.000000) scale(0.100000,-0.100000)"
     fill="#000000"
     stroke="none"
     id="g18">
    <path
       d="M4412 5058 c-16 -9 -32 -38 -52 -96 -30 -89 -52 -122 -82 -122 -10 0 -26 -8 -37 -19 -42 -42 -114 -286 -131 -445 -23 -216 -31 -257 -84 -434 -30 -101 -56 -185 -58 -187 -2 -2 -37 96 -77 218 -80 240 -117 325 -159 364 -71 66 -192 103 -581 178 -156 30 -286 57 -289 60 -2 2 1 38 7 80 15 106 14 132 -9 155 -22 22 -70 26 -102 9 -11 -6 -37 -48 -58 -93 -36 -78 -41 -84 -89 -104 -68 -30 -119 -28 -198 8 -110 50 -144 40 -258 -76 -44 -44 -65 -73 -65 -89 0 -27 26 -45 64 -45 16 0 42 -14 65 -36 22 -19 55 -40 74 -45 19 -5 63 -28 98 -51 35 -22 83 -47 106 -54 62 -19 279 -37 375 -32 94 5 125 19 136 63 7 27 14 31 71 42 60 12 65 12 140 -17 152 -59 205 -110 253 -245 27 -74 84 -303 77 -309 -2 -2 -83 -9 -179 -15 -96 -7 -201 -16 -233 -22 -180 -31 -480 -171 -736 -342 l-105 -69 -495 -124 c-538 -133 -787 -202 -1066 -295 -254 -84 -248 -79 -320 -225 -33 -67 -72 -134 -87 -149 -57 -57 -43 -210 26 -284 37 -40 82 -60 223 -101 59 -17 113 -36 120 -41 8 -7 10 -27 6 -62 -4 -40 -12 -58 -34 -79 -51 -47 -37 -84 47 -126 68 -34 571 -206 974 -332 685 -214 1220 -346 1445 -357 142 -7 200 7 409 97 90 38 176 73 193 76 l29 6 23 -85 c37 -141 93 -186 281 -227 48 -11 119 -23 158 -26 90 -8 136 12 216 96 130 137 198 386 200 738 l1 193 35 27 c99 78 413 312 418 312 4 0 15 -14 24 -31 29 -51 94 -73 220 -73 93 -1 110 2 135 20 66 49 85 104 104 302 16 168 -1 491 -31 587 -69 219 -198 355 -465 485 -162 79 -237 100 -399 110 -77 5 -176 10 -218 10 -63 0 -79 3 -87 17 -8 14 -30 19 -116 24 -58 4 -109 9 -112 12 -3 4 3 56 12 117 18 110 19 111 51 125 17 7 37 21 42 32 10 17 11 17 18 -2 32 -92 77 -165 114 -185 26 -14 45 15 71 111 35 131 58 176 113 227 76 69 219 162 260 169 19 3 127 -5 239 -17 112 -13 216 -20 230 -16 19 4 34 21 52 55 27 53 64 82 135 102 50 14 101 48 123 83 15 23 13 24 -161 128 -97 59 -187 111 -199 117 -25 12 -395 115 -455 126 -31 6 -118 -10 -222 -42 -18 -5 -19 -1 -12 60 6 60 5 67 -14 77 -33 18 -112 22 -138 8z m947 -338 c68 -34 115 -111 78 -126 -18 -7 -118 31 -151 57 -30 24 -34 63 -8 78 25 15 38 13 81 -9z m-879 -95 c12 -14 9 -70 -5 -107 -4 -10 23 -29 85 -62 100 -53 102 -58 39 -110 -78 -66 -169 -91 -298 -81 l-84 7 7 97 c3 53 12 121 19 151 14 62 36 79 127 104 71 19 95 19 110 1z m-887 -335 c93 -39 140 -78 170 -143 24 -50 127 -381 127 -405 0 -10 -32 -12 -127 -10 l-128 3 -32 145 c-51 229 -95 337 -164 408 l-31 32 57 0 c40 0 77 -9 128 -30z m-310 -666 c62 -9 116 -20 121 -25 6 -5 -7 -33 -34 -71 -24 -35 -74 -108 -112 -163 -37 -55 -80 -106 -95 -114 -28 -14 -93 -13 -288 8 -49 5 -179 11 -287 13 -109 2 -198 6 -198 10 0 12 281 173 450 258 212 106 244 113 443 84z m712 -13 c39 -17 81 -23 224 -31 97 -6 190 -13 208 -16 37 -5 63 -27 63 -52 0 -16 -20 -17 -225 -14 -127 1 -225 -1 -225 -6 0 -5 25 -32 55 -60 50 -47 83 -97 71 -109 -3 -3 -21 0 -41 7 -49 16 -96 7 -188 -35 -118 -55 -188 -69 -267 -56 -84 14 -146 36 -142 51 6 27 217 329 236 339 34 18 175 7 231 -18z m858 -26 c49 -18 117 -73 117 -95 0 -11 -37 -12 -182 -7 -100 4 -185 10 -189 15 -4 4 -11 31 -15 61 l-7 54 114 -6 c68 -3 133 -12 162 -22z m377 -106 c100 -69 144 -122 208 -257 32 -66 37 -87 37 -146 l0 -70 -50 -38 c-27 -21 -53 -38 -56 -38 -3 0 -9 42 -12 93 -13 186 -81 346 -207 481 l-45 49 35 -18 c19 -10 60 -35 90 -56z m-2688 -294 c221 -13 661 -33 1116 -51 95 -4 170 -10 165 -14 -4 -4 -230 -123 -502 -265 l-494 -257 -131 16 c-173 20 -249 26 -243 19 3 -3 70 -27 149 -53 162 -53 298 -113 298 -131 0 -41 -939 87 -1655 225 -65 13 -84 21 -99 42 -11 15 -43 37 -72 50 -51 22 -74 47 -74 78 0 9 38 29 108 57 201 78 378 127 802 219 129 28 260 57 290 64 73 18 63 18 342 1z m1494 -113 c43 -64 48 -85 29 -126 -21 -44 -37 -54 -419 -262 -363 -197 -345 -192 -536 -145 -68 17 -133 31 -144 31 -38 0 -78 -22 679 371 99 51 216 112 260 136 44 23 85 43 90 43 6 0 24 -22 41 -48z m619 7 c16 -8 45 -37 63 -64 40 -61 182 -340 182 -358 0 -11 -111 -82 -214 -136 l-39 -20 -19 24 c-10 13 -34 29 -53 35 -93 31 -222 -105 -345 -363 -45 -93 -124 -318 -180 -508 l-22 -76 -92 -7 c-50 -4 -140 -18 -199 -32 -147 -35 -159 -28 -112 66 16 32 27 74 31 122 7 77 20 112 50 140 11 9 114 64 229 123 116 58 220 113 232 123 28 21 35 65 11 70 -9 2 -123 -42 -253 -98 -223 -95 -531 -219 -584 -235 l-24 -7 7 193 c3 107 9 215 12 240 l6 47 92 51 c88 49 90 51 54 51 -24 0 -46 8 -64 23 l-27 24 113 57 c62 32 127 67 144 77 68 41 62 21 -24 -76 -38 -43 -68 -81 -66 -82 6 -7 270 138 516 284 109 65 115 70 127 113 20 68 34 77 76 51 41 -25 82 -27 91 -5 10 27 7 74 -6 78 -7 2 -42 9 -78 16 -69 13 -120 34 -120 51 0 23 54 29 250 26 154 -2 213 -7 235 -18z m771 -271 c-31 -136 -76 -230 -125 -261 -34 -21 -35 -21 -27 -2 20 53 68 232 73 275 5 45 10 53 52 83 25 19 47 30 49 26 2 -4 -8 -58 -22 -121z m103 8 c24 -96 9 -324 -28 -420 -9 -23 -14 -26 -26 -16 -21 17 -19 46 4 69 15 15 20 41 26 137 4 64 5 155 2 201 -5 89 4 101 22 29z m-4916 -102 c31 -3 57 -11 58 -18 0 -6 1 -51 2 -100 l2 -88 -70 7 c-124 11 -115 2 -115 117 l0 100 33 -5 c17 -3 58 -9 90 -13z m220 -61 c4 -2 7 -49 7 -104 0 -91 -2 -100 -17 -95 -10 3 -39 8 -65 12 l-48 6 0 100 0 100 58 -7 c31 -4 60 -9 65 -12z m4068 -240 c-15 -179 -26 -201 -134 -281 l-82 -62 -6 178 c-4 97 -3 178 0 180 4 1 56 31 117 66 60 35 111 62 113 60 1 -1 -2 -65 -8 -141z m-1719 46 c23 -14 44 -33 46 -43 4 -18 -2 -19 -94 -13 -122 7 -176 22 -172 45 9 48 140 54 220 11z m-2518 -28 c297 -90 720 -189 1321 -311 251 -51 774 -150 790 -150 3 0 5 7 5 16 0 8 -13 20 -30 25 -16 6 -30 17 -30 25 0 19 54 18 135 -2 63 -16 108 -13 89 6 -5 5 -46 15 -92 23 -45 8 -85 16 -88 19 -2 3 -3 68 -2 144 l3 139 193 -30 192 -30 0 -156 c0 -171 -1 -169 59 -169 33 0 51 -16 51 -46 0 -36 -23 -47 -87 -39 -54 6 -59 5 -68 -17 -13 -29 -5 -30 -390 38 -864 154 -1149 215 -1792 383 -220 57 -398 122 -432 156 -14 13 -12 15 14 15 16 0 88 -18 159 -39z m836 4 c161 -25 150 -20 139 -57 -5 -17 -12 -35 -16 -39 -13 -12 -298 47 -295 60 6 29 36 61 51 57 9 -2 63 -12 121 -21z m1055 -75 c66 -12 121 -23 122 -24 1 -1 5 -46 9 -99 5 -76 4 -97 -6 -97 -17 0 -250 39 -272 46 -16 5 -18 19 -18 106 0 99 0 100 23 95 12 -3 76 -15 142 -27z m-1775 -85 c13 -8 13 -92 0 -100 -13 -8 -209 61 -232 82 -21 19 -25 89 -5 96 10 3 212 -63 237 -78z m3727 -200 c36 -65 47 -154 40 -352 -11 -321 -74 -517 -175 -536 -48 -9 -99 30 -117 91 l-6 22 37 -25 c20 -14 43 -25 51 -25 31 0 73 32 98 73 47 82 67 184 72 382 5 179 -3 268 -29 323 -25 52 -71 35 -109 -40 -24 -46 -24 -46 4 -41 18 4 26 -4 43 -44 29 -63 37 -119 29 -187 -7 -57 -19 -72 -28 -36 -13 51 -67 1 -67 -63 0 -56 16 -80 47 -72 24 6 24 4 18 -27 -12 -53 -42 -105 -77 -132 -42 -31 -85 -48 -93 -36 -3 5 -6 69 -7 142 -2 177 19 263 88 355 l24 31 -31 11 c-29 10 -31 14 -25 43 12 61 56 137 94 164 54 36 91 30 119 -21z m-1887 -196 c83 -14 129 -26 138 -37 16 -21 16 -93 -1 -116 -12 -17 -20 -16 -162 8 -82 15 -150 28 -151 29 -22 29 -33 114 -17 130 11 12 63 8 193 -14z"
       id="path16"
       style="fill:#5a5fb6;fill-opacity:1" />
  </g>
</svg>
