<?xml version="1.0" encoding="UTF-8" standalone="no"?>
<svg
   xmlns:dc="http://purl.org/dc/elements/1.1/"
   xmlns:cc="http://creativecommons.org/ns#"
   xmlns:rdf="http://www.w3.org/1999/02/22-rdf-syntax-ns#"
   xmlns:svg="http://www.w3.org/2000/svg"
   xmlns="http://www.w3.org/2000/svg"
   xmlns:sodipodi="http://sodipodi.sourceforge.net/DTD/sodipodi-0.dtd"
   xmlns:inkscape="http://www.inkscape.org/namespaces/inkscape"
   width="451.66281mm"
   height="170.56258mm"
   viewBox="0 0 451.66281 170.56258"
   version="1.1"
   id="svg8"
   inkscape:version="1.0.2-2 (e86c870879, 2021-01-15)"
   sodipodi:docname="eventqueue.svg">
  <defs
     id="defs2">
    <inkscape:path-effect
       effect="bspline"
       id="path-effect980"
       is_visible="true"
       lpeversion="1"
       weight="33.333333"
       steps="2"
       helper_size="0"
       apply_no_weight="true"
       apply_with_weight="true"
       only_selected="false" />
    <inkscape:path-effect
       effect="bspline"
       id="path-effect952"
       is_visible="true"
       lpeversion="1"
       weight="33.333333"
       steps="2"
       helper_size="0"
       apply_no_weight="true"
       apply_with_weight="true"
       only_selected="false" />
  </defs>
  <sodipodi:namedview
     id="base"
     pagecolor="#ffffff"
     bordercolor="#666666"
     borderopacity="1.0"
     inkscape:pageopacity="0.0"
     inkscape:pageshadow="2"
     inkscape:zoom="0.34074713"
     inkscape:cx="569.70502"
     inkscape:cy="126.94528"
     inkscape:document-units="mm"
     inkscape:current-layer="layer1"
     inkscape:document-rotation="0"
     showgrid="false"
     inkscape:window-width="1920"
     inkscape:window-height="1017"
     inkscape:window-x="-8"
     inkscape:window-y="-8"
     inkscape:window-maximized="1"
     fit-margin-top="0"
     fit-margin-left="0"
     fit-margin-right="0"
     fit-margin-bottom="0" />
  <metadata
     id="metadata5">
    <rdf:RDF>
      <cc:Work
         rdf:about="">
        <dc:format>image/svg+xml</dc:format>
        <dc:type
           rdf:resource="http://purl.org/dc/dcmitype/StillImage" />
        <dc:title></dc:title>
      </cc:Work>
    </rdf:RDF>
  </metadata>
  <g
     inkscape:label="Layer 1"
     inkscape:groupmode="layer"
     id="layer1"
     transform="translate(76.206656,-12.55932)">
    <rect
       style="fill:none;stroke:#000000;stroke-width:3;stroke-miterlimit:4;stroke-dasharray:none;stroke-opacity:1"
       id="rect835"
       width="53.577118"
       height="17.859039"
       x="33.776882"
       y="54.74184" />
    <rect
       style="fill:none;stroke:#000000;stroke-width:3;stroke-miterlimit:4;stroke-dasharray:none;stroke-opacity:1"
       id="rect835-8"
       width="57.519119"
       height="17.868559"
       x="87.407639"
       y="54.775745" />
    <rect
       style="fill:none;stroke:#000000;stroke-width:3;stroke-miterlimit:4;stroke-dasharray:none;stroke-opacity:1"
       id="rect835-7"
       width="78.009811"
       height="17.832613"
       x="144.92676"
       y="54.811691" />
    <text
       xml:space="preserve"
       style="font-size:12.7px;line-height:1.25;font-family:Arial;-inkscape-font-specification:Arial;stroke-width:0.264583"
       x="47.715397"
       y="67.844368"
       id="text868"><tspan
         sodipodi:role="line"
         id="tspan866"
         x="47.715397"
         y="67.844368"
         style="font-size:12.7px;stroke-width:0.264583">click</tspan></text>
    <text
       xml:space="preserve"
       style="font-size:7.05556px;line-height:1.25;font-family:Arial;-inkscape-font-specification:Arial;stroke-width:0.264583"
       x="101.7123"
       y="65.200195"
       id="text872"><tspan
         sodipodi:role="line"
         id="tspan870"
         x="101.7123"
         y="65.200195"
         style="stroke-width:0.264583"></tspan></text>
    <text
       xml:space="preserve"
       style="font-size:12.7px;line-height:1.25;font-family:Arial;-inkscape-font-specification:Arial;stroke-width:0.264583"
       x="90.922913"
       y="67.749557"
       id="text868-2"><tspan
         sodipodi:role="line"
         id="tspan866-9"
         x="90.922913"
         y="67.749557"
         style="font-size:12.7px;stroke-width:0.264583">keypress</tspan></text>
    <text
       xml:space="preserve"
       style="font-size:12.7px;line-height:1.25;font-family:Arial;-inkscape-font-specification:Arial;stroke-width:0.264583"
       x="148.07631"
       y="67.645164"
       id="text868-2-9"><tspan
         sodipodi:role="line"
         id="tspan866-9-1"
         x="148.07631"
         y="67.645164"
         style="font-size:12.7px;stroke-width:0.264583">mousemove</tspan></text>
    <text
       xml:space="preserve"
       style="font-size:7.05556px;line-height:1.25;font-family:Arial;-inkscape-font-specification:Arial;stroke-width:0.264583"
       x="-14.75312"
       y="24.45912"
       id="text924"><tspan
         sodipodi:role="line"
         id="tspan922"
         x="-14.75312"
         y="24.45912"
         style="stroke-width:0.264583"></tspan></text>
    <text
       xml:space="preserve"
       style="font-size:12.7px;line-height:1.25;font-family:Arial;-inkscape-font-specification:Arial;stroke-width:0.264583"
       x="-75.501717"
       y="32.602985"
       id="text868-7"><tspan
         sodipodi:role="line"
         id="tspan866-4"
         x="-75.501717"
         y="32.602985"
         style="font-size:12.7px;stroke-width:0.264583">Operating System</tspan></text>
    <path
       style="fill:none;stroke:#000000;stroke-width:3;stroke-miterlimit:4;stroke-dasharray:none;stroke-opacity:1"
       d="m -10.87072,35.71808 c 2.0707012,7.376874 4.1413144,14.753434 10.54749004,19.476914 6.40617556,4.72348 17.14726796,6.794052 27.88826996,8.864607"
       id="path950"
       inkscape:path-effect="#path-effect952"
       inkscape:original-d="m -10.87072,35.71808 c 2.0708779,7.376824 4.1414912,14.753384 6.2118399,22.129681 10.7417863,2.070918 21.4828781,4.141491 32.2239201,6.21184" />
    <text
       xml:space="preserve"
       style="font-size:12.7px;line-height:1.25;font-family:Arial;-inkscape-font-specification:Arial;stroke-width:0.264583"
       x="231.3037"
       y="33.809113"
       id="text868-7-8"><tspan
         sodipodi:role="line"
         id="tspan866-4-6"
         x="231.3037"
         y="33.809113"
         style="font-size:12.7px;stroke-width:0.264583">Traitement du événement</tspan></text>
    <path
       style="fill:none;stroke:#000000;stroke-width:3;stroke-miterlimit:4;stroke-dasharray:none;stroke-opacity:1"
       d="m 226.73216,64.44784 c 10.4827,-1.811824 20.96518,-3.62361 27.88869,-7.63542 6.92351,-4.01181 10.28819,-10.223522 13.65299,-16.435459"
       id="path978"
       inkscape:path-effect="#path-effect980"
       inkscape:original-d="m 226.73216,64.44784 c 10.48275,-1.811523 20.96523,-3.623307 31.44744,-5.435359 3.36508,-6.2117 6.72975,-12.423415 10.09424,-18.63552" />
    <path
       sodipodi:type="star"
       style="fill:none;stroke:#000000;stroke-width:3;stroke-miterlimit:4;stroke-dasharray:none;stroke-opacity:1"
       id="path985"
       sodipodi:sides="3"
       sodipodi:cx="26.40032"
       sodipodi:cy="63.914009"
       sodipodi:r1="2.8268464"
       sodipodi:r2="1.4134232"
       sodipodi:arg1="0.20749623"
       sodipodi:arg2="1.2546938"
       inkscape:flatsided="false"
       inkscape:rounded="0"
       inkscape:randomized="0"
       d="m 29.16653,64.496369 -2.326827,0.761034 -2.326826,0.761034 0.504338,-2.395608 0.504339,-2.395608 1.822488,1.634574 z"
       inkscape:transform-center-x="-0.4393829"
       inkscape:transform-center-y="-0.2911808" />
    <path
       sodipodi:type="star"
       style="fill:none;stroke:#000000;stroke-width:3;stroke-miterlimit:4;stroke-dasharray:none;stroke-opacity:1"
       id="path990"
       sodipodi:sides="3"
       sodipodi:cx="267.39081"
       sodipodi:cy="41.278851"
       sodipodi:r1="2.7461293"
       sodipodi:r2="1.3730646"
       sodipodi:arg1="-3.1165979"
       sodipodi:arg2="-2.0694003"
       inkscape:flatsided="false"
       inkscape:rounded="0"
       inkscape:randomized="0"
       d="m 264.64554,41.210219 2.08867,-1.137264 2.08867,-1.137263 -0.0594,2.377474 -0.0594,2.377475 -2.02924,-1.240211 z"
       inkscape:transform-center-x="0.65660281"
       inkscape:transform-center-y="0.034315406" />
    <g
       id="g1170"
       transform="matrix(0.26458333,0,0,0.26458333,30.574842,111.83637)">
      <g
         id="g996">
	<g
   id="g994">
		
	</g>

</g>
      <g
         id="g1002">
	<g
   id="g1000">
		
	</g>

</g>
      <g
         id="g1008">
	<g
   id="g1006">
		
	</g>

</g>
      <g
         id="g1014">
	<g
   id="g1012">
		
	</g>

</g>
      <g
         id="g1020">
	<g
   id="g1018">
		
	</g>

</g>
      <g
         id="g1026">
	<g
   id="g1024">
		
	</g>

</g>
      <g
         id="g1032">
	<g
   id="g1030">
		
	</g>

</g>
      <g
         id="g1038">
	<g
   id="g1036">
		
	</g>

</g>
      <g
         id="g1044">
	<g
   id="g1042">
		
	</g>

</g>
      <g
         id="g1050">
	<g
   id="g1048">
		
	</g>

</g>
      <g
         id="g1056">
	<g
   id="g1054">
		
	</g>

</g>
      <g
         id="g1062">
	<g
   id="g1060">
		
	</g>

</g>
      <g
         id="g1068">
	<g
   id="g1066">
		
	</g>

</g>
      <g
         id="g1074">
	<g
   id="g1072">
		<path
   d="m 353.53379,-375.22035 c -34.972,0 -63.322,28.35 -63.322,63.322 0,34.972 28.35,63.322 63.322,63.322 34.972,0 63.322,-28.35 63.322,-63.322 0,-34.972 -28.351,-63.322 -63.322,-63.322 z m 8.24,63.322 c 0,2.848 -1.471,5.494 -3.889,6.998 l -19.505,12.125 c -1.354,0.842 -2.858,1.243 -4.343,1.243 -2.753,0 -5.444,-1.38 -7.005,-3.891 -2.405,-3.864 -1.219,-8.946 2.646,-11.348 l 15.615,-9.708 v -34.936 c 0,-4.551 3.689,-8.241 8.241,-8.241 4.552,0 8.241,3.689 8.241,8.241 v 39.517 z"
   id="path1070" />

	</g>

</g>
      <g
         id="g1076">
</g>
      <g
         id="g1078">
</g>
      <g
         id="g1080">
</g>
      <g
         id="g1082">
</g>
      <g
         id="g1084">
</g>
      <g
         id="g1086">
</g>
      <g
         id="g1088">
</g>
      <g
         id="g1090">
</g>
      <g
         id="g1092">
</g>
      <g
         id="g1094">
</g>
      <g
         id="g1096">
</g>
      <g
         id="g1098">
</g>
      <g
         id="g1100">
</g>
      <g
         id="g1102">
</g>
      <g
         id="g1104">
</g>
    </g>
    <g
       id="g1249"
       transform="translate(-5.1324296,-38.607553)">
      <path
         d="m 303.333,371.399 c -2.199,-10.239 0.445,-20.745 7.302,-28.785 -0.898,-3.627 -2.216,-7.087 -3.892,-10.335 l -38.052,-16.761 c -4.553,-2.005 -8.64,-5.044 -12.007,-9.203 -3.354,4.144 -7.429,7.186 -12.007,9.203 l -39.817,17.539 c -1.69,3.427 -2.977,7.084 -3.807,10.911 5.944,7.737 8.155,17.341 6.349,26.73 l -7.435,38.643 v 84.39 c 0,7.584 6.15,13.734 13.734,13.734 7.584,0 13.734,-6.15 13.734,-13.734 V 354.067 c 0,-11.137 9.061,-20.198 20.198,-20.198 15.748,0 16.605,0 16.736,0 11.137,0 20.198,9.061 20.198,20.198 V 493.73 c 0,7.584 6.15,13.734 13.734,13.734 7.584,0 13.734,-6.15 13.734,-13.734 v -81.787 z"
         id="path992"
         transform="matrix(0.26458333,0,0,0.26458333,32.124062,87.440447)" />
      <circle
         cx="375.436"
         cy="147.90401"
         r="37.605"
         id="circle1010"
         transform="matrix(0.26458333,0,0,0.26458333,32.124062,87.440447)" />
      <path
         d="m 355.832,478.508 11.933,-62.016 -12.09,-56.329 c -2.327,-10.842 -13.001,-17.748 -23.842,-15.416 -10.841,2.327 -17.742,13.001 -15.416,23.842 l 25.854,120.454 c 1.989,9.267 10.169,15.865 19.651,15.865 -5.613,-7.499 -7.913,-16.929 -6.09,-26.4 z"
         id="path1016"
         transform="matrix(0.26458333,0,0,0.26458333,32.124062,87.440447)" />
      <path
         d="m 415.66,344.661 c -10.885,-2.095 -21.412,5.031 -23.507,15.922 l -23.178,120.454 c -2.376,12.343 7.069,23.872 19.736,23.872 9.433,0 17.844,-6.68 19.692,-16.286 l 23.178,-120.454 c 2.094,-10.888 -5.033,-21.412 -15.921,-23.508 z"
         id="path1022"
         transform="matrix(0.26458333,0,0,0.26458333,32.124062,87.440447)" />
      <path
         d="m 66.01,371.397 c -1.876,-8.738 -0.237,-17.683 4.617,-25.189 0.82,-1.269 1.722,-2.465 2.686,-3.595 -0.898,-3.627 -2.216,-7.087 -3.892,-10.335 L 31.37,315.518 C 26.554,313.397 22.53,310.226 19.431,306.4 H 13.735 C 6.15,306.399 0,312.549 0,320.133 c 0,7.584 6.15,13.734 13.734,13.734 h 13.312 c 11.137,0 20.198,9.061 20.198,20.198 v 139.664 c 0,7.584 6.15,13.734 13.734,13.734 7.584,0 13.734,-6.15 13.734,-13.734 v -81.787 z"
         id="path1028"
         transform="matrix(0.26458333,0,0,0.26458333,32.124062,87.440447)" />
      <path
         d="m 248.636,279.519 c -5.091,-12.692 -16.413,-38.337 -26.31,-58.704 -6.887,-14.165 -21.52,-23.318 -37.276,-23.318 -11.677,0 -82.332,0 -94.055,0 -15.755,0 -30.387,9.153 -37.273,23.317 -9.678,19.887 -21.334,46.255 -26.313,58.707 -3.633,9.079 0.583,19.403 9.531,23.346 72.276,31.837 62.636,27.599 63.884,28.117 11.882,5.179 20.648,-2.855 23.545,-9.433 4.039,-9.17 -0.12,-19.88 -9.291,-23.919 L 67.925,276.861 c 5.335,-12.26 12.171,-27.304 18.43,-40.177 0.028,-0.057 0.056,-0.112 0.086,-0.168 0.393,-0.736 1.237,-1.11 2.047,-0.908 0.81,0.202 1.376,0.931 1.376,1.765 v 34.046 l 30.787,13.561 c 8.525,3.755 14.588,10.782 17.373,18.956 2.784,-8.173 8.848,-15.201 17.373,-18.956 l 30.574,-13.468 v -34.099 c 0,-0.883 0.599,-1.653 1.456,-1.87 0.856,-0.216 1.751,0.176 2.17,0.953 0.032,0.06 0.063,0.121 0.095,0.184 6.39,13.148 13.203,28.166 18.43,40.18 l -47.152,20.77 c -9.17,4.04 -13.329,14.748 -9.291,23.919 2.589,5.875 11.937,13.696 23.68,9.382 1.259,-0.534 13.637,-5.992 63.749,-28.066 8.947,-3.942 13.162,-14.267 9.528,-23.346 z"
         id="path1040"
         transform="matrix(0.26458333,0,0,0.26458333,32.124062,87.440447)" />
      <circle
         cx="138.118"
         cy="147.90401"
         r="37.605"
         id="circle1046"
         transform="matrix(0.26458333,0,0,0.26458333,32.124062,87.440447)" />
      <path
         d="m 118.51,478.508 11.933,-62.016 -12.09,-56.329 c -2.327,-10.842 -13.001,-17.748 -23.842,-15.416 -10.841,2.327 -17.742,13.001 -15.416,23.842 l 25.854,120.454 c 1.989,9.267 10.169,15.865 19.651,15.865 -5.613,-7.499 -7.913,-16.929 -6.09,-26.4 z"
         id="path1052"
         transform="matrix(0.26458333,0,0,0.26458333,32.124062,87.440447)" />
      <path
         d="m 178.337,344.661 c -10.885,-2.095 -21.412,5.031 -23.507,15.922 l -23.178,120.454 c -2.095,10.888 5.033,21.413 15.921,23.507 10.887,2.094 21.413,-5.033 23.507,-15.921 l 23.178,-120.454 c 2.095,-10.888 -5.032,-21.412 -15.921,-23.508 z"
         id="path1058"
         transform="matrix(0.26458333,0,0,0.26458333,32.124062,87.440447)" />
      <path
         d="m 485.959,279.521 c -4.888,-12.188 -16.099,-37.69 -26.31,-58.704 -6.887,-14.166 -21.52,-23.318 -37.276,-23.318 -11.68,0 -82.335,0 -94.058,0 -15.755,0 -30.387,9.153 -37.273,23.317 -9.675,19.886 -21.332,46.254 -26.311,58.706 -3.573,8.929 0.496,19.365 9.531,23.346 l 63.509,27.975 c 0.123,0.055 0.25,0.091 0.375,0.142 9.349,3.877 19.668,-0.632 23.545,-9.433 4.039,-9.17 -0.12,-19.88 -9.291,-23.919 l -47.153,-20.77 c 5.388,-12.381 12.279,-27.527 18.43,-40.177 0.028,-0.057 0.056,-0.112 0.086,-0.168 0.393,-0.736 1.237,-1.11 2.047,-0.908 0.81,0.202 1.376,0.931 1.376,1.765 v 34.046 l 30.787,13.562 c 8.525,3.755 14.588,10.782 17.373,18.956 2.784,-8.173 8.848,-15.201 17.373,-18.956 l 30.574,-13.468 v -34.099 c 0,-0.883 0.599,-1.653 1.456,-1.87 0.856,-0.216 1.751,0.176 2.17,0.953 0.032,0.06 0.063,0.121 0.095,0.184 6.252,12.864 13.101,27.931 18.43,40.18 l -47.152,20.77 c -9.17,4.04 -13.329,14.748 -9.291,23.919 3.95,8.964 14.424,13.303 23.68,9.382 0.079,-0.033 0.16,-0.057 0.24,-0.091 l 63.509,-27.975 c 8.947,-3.943 13.163,-14.268 9.529,-23.347 z"
         id="path1064"
         transform="matrix(0.26458333,0,0,0.26458333,32.124062,87.440447)" />
      <path
         d="m 176.29949,185.72865 c -0.58182,-2.70907 0.11773,-5.48878 1.93198,-7.61603 -0.23759,-0.95964 -0.58631,-1.8751 -1.02976,-2.73447 l -10.06792,-4.43468 c -1.20465,-0.53049 -2.286,-1.33456 -3.17685,-2.43496 -0.88742,1.09644 -1.96559,1.9013 -3.17685,2.43496 l -10.53492,4.64053 c -0.44714,0.90673 -0.78766,1.87431 -1.00727,2.88687 1.57269,2.04708 2.15768,4.58814 1.67984,7.07231 l -1.96718,10.22429 v 22.32819 c 0,2.0066 1.62719,3.63379 3.63379,3.63379 2.0066,0 3.63379,-1.62719 3.63379,-3.63379 v -36.95277 c 0,-2.94666 2.39739,-5.34405 5.34405,-5.34405 4.16666,0 4.39341,0 4.42807,0 2.94666,0 5.34405,2.39739 5.34405,5.34405 v 36.95251 c 0,2.0066 1.62719,3.63378 3.63379,3.63378 2.0066,0 3.63379,-1.62718 3.63379,-3.63378 v -21.63948 z"
         id="path992-7"
         style="stroke-width:0.264583" />
      <circle
         cx="195.37674"
         cy="126.5956"
         r="9.9496555"
         id="circle1010-9"
         style="stroke-width:0.264583" />
      <path
         d="m 190.18985,214.06791 3.15727,-16.4084 -3.19881,-14.90372 c -0.61569,-2.86861 -3.43985,-4.69582 -6.3082,-4.07881 -2.86835,0.61568 -4.69424,3.43985 -4.07882,6.30819 l 6.84054,31.87012 c 0.52626,2.4519 2.69055,4.19762 5.19933,4.19762 -1.48511,-1.98411 -2.09365,-4.47913 -1.61131,-6.985 z"
         id="path1016-5"
         style="stroke-width:0.264583" />
      <path
         d="m 206.01934,178.65422 c -2.87999,-0.5543 -5.66526,1.33112 -6.21956,4.2127 l -6.13252,31.87012 c -0.62865,3.26575 1.87034,6.31613 5.22182,6.31613 2.49582,0 4.72123,-1.76741 5.21018,-4.309 l 6.13251,-31.87012 c 0.55404,-2.88078 -1.33165,-5.66526 -4.21243,-6.21983 z"
         id="path1022-0"
         style="stroke-width:0.264583" />
      <path
         d="m 224.61928,161.41927 c -1.29328,-3.22475 -4.25953,-9.97215 -6.96119,-15.5321 -1.82218,-3.74809 -5.69383,-6.16956 -9.86261,-6.16956 -3.09033,0 -21.78446,0 -24.88617,0 -4.16851,0 -8.0399,2.42173 -9.86182,6.16929 -2.55984,5.26151 -5.64409,12.23804 -6.96145,15.53263 -0.94536,2.36247 0.13123,5.12366 2.52174,6.17696 l 16.80343,7.40172 c 0.0325,0.0146 0.0661,0.0241 0.0992,0.0376 2.47359,1.02579 5.20383,-0.16721 6.22962,-2.49581 1.06865,-2.42623 -0.0318,-5.25992 -2.45824,-6.32857 l -12.4759,-5.4954 c 1.42557,-3.2758 3.24882,-7.28318 4.87627,-10.63016 0.007,-0.0151 0.0148,-0.0296 0.0228,-0.0444 0.10398,-0.19473 0.32729,-0.29369 0.5416,-0.24024 0.21432,0.0534 0.36407,0.24632 0.36407,0.46699 v 9.008 l 8.14573,3.58828 c 2.25557,0.99351 3.85974,2.85274 4.5966,5.01544 0.7366,-2.16244 2.34104,-4.02193 4.59661,-5.01544 l 8.08937,-3.56341 v -9.02203 c 0,-0.23362 0.15849,-0.43735 0.38523,-0.49477 0.22649,-0.0572 0.46329,0.0466 0.57415,0.25215 0.008,0.0159 0.0167,0.032 0.0251,0.0487 1.65417,3.4036 3.4663,7.39007 4.87627,10.63095 l -12.47564,5.4954 c -2.42623,1.06892 -3.52663,3.90207 -2.45824,6.32857 1.0451,2.37172 3.81635,3.51975 6.26533,2.48232 0.0209,-0.009 0.0423,-0.0151 0.0635,-0.0241 l 16.80343,-7.40172 c 2.36722,-1.04325 3.48271,-3.77507 2.52121,-6.17722 z"
         id="path1064-6"
         style="stroke-width:0.264583" />
    </g>
    <path
       d="m 303.84892,97.39325 c 5.40094,0 9.78283,-4.381903 9.78283,-9.782836 0,-5.400941 -4.38189,-9.782834 -9.78283,-9.782834 -5.40095,0 -9.78283,4.381893 -9.78283,9.782834 0,5.400933 4.38188,9.782836 9.78283,9.782836 z m 19.25995,30.38794 -4.74876,-2.40494 -1.97694,-5.992 c -2.99601,-9.08989 -11.35217,-15.44873 -20.82927,-15.4691 -7.33714,-0.0205 -11.39294,2.05847 -19.01541,5.13599 -4.40228,1.77314 -8.00967,5.13599 -10.12931,9.41598 l -1.36551,2.7718 c -1.58971,3.22017 -0.30571,7.13331 2.89409,8.7434 3.17942,1.6101 7.0518,0.30573 8.6619,-2.91447 l 1.36551,-2.77179 c 0.71334,-1.42667 1.89542,-2.54761 3.36285,-3.13867 l 5.46208,-2.20113 -3.09791,12.37121 c -1.05979,4.23923 0.0816,8.74342 3.03677,11.98397 l 12.20815,13.32911 c 1.46743,1.61008 2.50686,3.54628 3.03675,5.6455 l 3.72972,14.93922 c 0.87637,3.48513 4.42264,5.62513 7.90779,4.74875 3.48515,-0.87638 5.62513,-4.42265 4.74874,-7.90778 l -4.52454,-18.13903 c -0.52992,-2.09923 -1.56934,-4.0558 -3.03677,-5.6455 l -9.27331,-10.12931 3.50551,-14.00167 1.12096,3.36283 c 1.08019,3.28132 3.4036,5.992 6.46076,7.54094 l 4.74872,2.40495 c 3.17944,1.61008 7.05181,0.30571 8.6619,-2.91448 1.56933,-3.1998 0.28533,-7.15369 -2.91447,-8.76378 z m -46.65189,28.67593 c -0.6522,1.65086 -1.63048,3.13867 -2.89409,4.38191 l -10.19045,10.21081 c -2.5476,2.54764 -2.5476,6.68496 0,9.23256 2.54762,2.54762 6.66456,2.54762 9.21217,0 l 12.10625,-12.10625 c 1.24324,-1.24324 2.22153,-2.73104 2.89409,-4.3819 l 2.75142,-6.88874 c -11.27063,-12.2897 -7.8874,-8.51922 -9.66055,-10.94456 z"
       id="path1251"
       style="stroke-width:0.20413;stroke-miterlimit:4;stroke-dasharray:none" />
    <path
       d="m -33.819476,97.39324 c 5.40094,0 9.78283,-4.381903 9.78283,-9.782836 0,-5.400941 -4.38189,-9.782834 -9.78283,-9.782834 -5.40095,0 -9.78283,4.381893 -9.78283,9.782834 0,5.400933 4.38188,9.782836 9.78283,9.782836 z m 19.25995,30.38793 -4.74876,-2.40494 -1.97694,-5.992 c -2.99601,-9.08989 -11.35217,-15.44873 -20.82927,-15.4691 -7.33714,-0.0205 -11.39294,2.05847 -19.01541,5.13599 -4.40228,1.77314 -8.00967,5.13599 -10.12931,9.41598 l -1.36551,2.7718 c -1.58971,3.22017 -0.30571,7.13331 2.89409,8.7434 3.17942,1.6101 7.0518,0.30573 8.6619,-2.91447 l 1.36551,-2.77179 c 0.71334,-1.42667 1.89542,-2.54761 3.36285,-3.13867 l 5.46208,-2.20113 -3.09791,12.37121 c -1.05979,4.23923 0.0816,8.74342 3.03677,11.98397 l 12.20815,13.32911 c 1.46743,1.61008 2.50686,3.54628 3.03675,5.6455 l 3.72972,14.93922 c 0.87637,3.48513 4.42264,5.62513 7.90779,4.74875 3.48515,-0.87638 5.62513,-4.42265 4.74874,-7.90778 l -4.52454,-18.13903 c -0.52992,-2.09923 -1.56934,-4.0558 -3.03677,-5.6455 l -9.27331,-10.12931 3.50551,-14.00167 1.12096,3.36283 c 1.08019,3.28132 3.4036,5.992 6.46076,7.54094 l 4.74872,2.40495 c 3.17944,1.61008 7.05181,0.30571 8.6619,-2.91448 1.56933,-3.1998 0.28533,-7.15369 -2.91447,-8.76378 z m -46.65189,28.67593 c -0.6522,1.65086 -1.63048,3.13867 -2.89409,4.38191 l -10.19045,10.21081 c -2.5476,2.54764 -2.5476,6.68496 0,9.23256 2.54762,2.54762 6.66456,2.54762 9.21217,0 l 12.10625,-12.10625 c 1.24324,-1.24324 2.22153,-2.73104 2.89409,-4.3819 l 2.75142,-6.88874 c -11.27063,-12.2897 -7.8874,-8.51922 -9.66055,-10.94456 z"
       id="path1251-4"
       style="stroke-width:0.20413;stroke-miterlimit:4;stroke-dasharray:none" />
  </g>
</svg>
