<?xml version="1.0" encoding="UTF-8" standalone="no"?>
<!-- Created with Inkscape (http://www.inkscape.org/) -->

<svg
   width="201.03458mm"
   height="122.28551mm"
   viewBox="0 0 201.03458 122.28551"
   version="1.1"
   id="svg7550"
   xml:space="preserve"
   inkscape:version="1.2.2 (732a01da63, 2022-12-09)"
   sodipodi:docname="attack.svg"
   xmlns:inkscape="http://www.inkscape.org/namespaces/inkscape"
   xmlns:sodipodi="http://sodipodi.sourceforge.net/DTD/sodipodi-0.dtd"
   xmlns="http://www.w3.org/2000/svg"
   xmlns:svg="http://www.w3.org/2000/svg"><sodipodi:namedview
     id="namedview7552"
     pagecolor="#505050"
     bordercolor="#eeeeee"
     borderopacity="1"
     inkscape:showpageshadow="0"
     inkscape:pageopacity="0"
     inkscape:pagecheckerboard="0"
     inkscape:deskcolor="#505050"
     inkscape:document-units="mm"
     showgrid="false"
     inkscape:zoom="1.0544998"
     inkscape:cx="551.4463"
     inkscape:cy="221.90616"
     inkscape:window-width="1920"
     inkscape:window-height="1017"
     inkscape:window-x="-8"
     inkscape:window-y="-8"
     inkscape:window-maximized="1"
     inkscape:current-layer="layer1" /><defs
     id="defs7547"><inkscape:path-effect
       effect="bspline"
       id="path-effect13010"
       is_visible="true"
       lpeversion="1"
       weight="33.333333"
       steps="2"
       helper_size="0"
       apply_no_weight="true"
       apply_with_weight="true"
       only_selected="false" /></defs><g
     inkscape:label="Layer 1"
     inkscape:groupmode="layer"
     id="layer1"
     transform="translate(-3.8516611,-25.902571)"><g
       id="g9494"
       transform="matrix(0.13897936,0,0,0.13897936,-4.7521341,74.767539)">
	<path
   class="st0"
   d="m 336.406,166.563 c -10.891,1.75 -72.609,12.094 -76.5,12.094 -3.906,0 -3.906,0 -3.906,0 0,0 0,0 -3.906,0 -3.906,0 -65.609,-10.344 -76.5,-12.094 -18.719,-3.031 -34.344,2.266 -39.813,4.531 -22.969,9.531 -15.25,31.813 -10.156,40.063 7.047,11.344 33.781,41.125 60.125,44.609 34.344,4.516 64,-21.172 70.25,-21.172 6.234,0 35.906,25.688 70.25,21.172 26.344,-3.484 53.094,-33.266 60.125,-44.609 5.094,-8.25 12.813,-30.531 -10.156,-40.063 -5.485,-2.266 -21.094,-7.563 -39.813,-4.531 z m -151.75,54.421 c -11.094,-10.734 -9.25,-21.516 3.688,-22.391 12.969,-0.906 34.813,4.5 35.172,11.656 0.922,17.907 -27.766,21.501 -38.86,10.735 z m 142.688,0 c -11.109,10.766 -39.797,7.172 -38.859,-10.734 0.359,-7.156 22.203,-12.563 35.141,-11.656 12.968,0.875 14.812,11.656 3.718,22.39 z"
   id="path9488" />
	<path
   class="st0"
   d="m 402.75,115.906 c 0,-5.031 -5.219,-15.094 -14.578,-17.125 C 374.656,19.156 296.563,0 256,0 215.437,0 137.344,19.156 123.813,98.781 c -9.375,2.031 -14.563,12.094 -14.563,17.125 0,5.047 0,33.25 0,33.25 h 293.5 c 0,0 0,-28.203 0,-33.25 z"
   id="path9490" />
	<path
   class="st0"
   d="m 356.719,382.234 c 0,-20.203 -6.281,-42.297 -26.234,-42.297 H 181.5 c -19.938,0 -26.234,22.094 -26.234,42.297 0,4.797 -93.359,28.828 -93.359,82.656 0,12.516 30.422,47.109 193.031,47.109 h 2.109 c 162.625,0 193.047,-34.594 193.047,-47.109 0,-53.827 -93.375,-77.859 -93.375,-82.656 z"
   id="path9492" />
</g><text
       xml:space="preserve"
       style="font-size:9.43215px;line-height:1.25;font-family:Arial;-inkscape-font-specification:Arial;stroke-width:0.353705"
       x="52.098789"
       y="31.396069"
       id="text2029"><tspan
         sodipodi:role="line"
         id="tspan2027"
         style="font-size:7.54573px;stroke-width:0.353705"
         x="52.098789"
         y="31.396069">nom: Schropp</tspan><tspan
         sodipodi:role="line"
         style="font-size:7.54573px;stroke-width:0.353705"
         x="52.098789"
         y="43.186256"
         id="tspan2085">prenom: Kilian</tspan><tspan
         sodipodi:role="line"
         style="font-size:7.54573px;stroke-width:0.353705"
         x="52.098789"
         y="54.976444"
         id="tspan2087">age: /&gt;&lt;script alert(&quot;hi&quot;)&gt;</tspan><tspan
         sodipodi:role="line"
         style="font-size:7.54573px;stroke-width:0.353705"
         x="52.098789"
         y="66.766632"
         id="tspan2031">email: invalid-email.com</tspan><tspan
         sodipodi:role="line"
         style="stroke-width:0.353705"
         x="52.098789"
         y="78.556816"
         id="tspan2083" /></text><rect
       style="opacity:0.996;fill:none;stroke:#777bb3;stroke-width:1.45927"
       id="rect2188-2"
       width="89.45092"
       height="10.744468"
       x="50.626537"
       y="47.409725" /><g
       id="g1955"
       transform="matrix(0.75281587,0,0,0.75281587,154.51622,81.26804)"><path
         d="m 0,24.108 v 11.783 c 0,0.974 0.314,1.868 0.835,2.608 H 59.164 C 59.686,37.76 60,36.865 60,35.892 V 24.108 C 60,23.134 59.686,22.24 59.165,21.5 H 0.835 C 0.314,22.24 0,23.135 0,24.108 Z M 52,30.5 c 0.552,0 1,0.448 1,1 0,0.552 -0.448,1 -1,1 -0.552,0 -1,-0.448 -1,-1 0,-0.552 0.448,-1 1,-1 z m -2,-3 c 0.552,0 1,0.448 1,1 0,0.552 -0.448,1 -1,1 -0.552,0 -1,-0.448 -1,-1 0,-0.552 0.448,-1 1,-1 z m -2,3 c 0.552,0 1,0.448 1,1 0,0.552 -0.448,1 -1,1 -0.552,0 -1,-0.448 -1,-1 0,-0.552 0.448,-1 1,-1 z m -2,-3 c 0.552,0 1,0.448 1,1 0,0.552 -0.448,1 -1,1 -0.552,0 -1,-0.448 -1,-1 0,-0.552 0.448,-1 1,-1 z m -2,3 c 0.552,0 1,0.448 1,1 0,0.552 -0.448,1 -1,1 -0.552,0 -1,-0.448 -1,-1 0,-0.552 0.448,-1 1,-1 z m -2,-3 c 0.552,0 1,0.448 1,1 0,0.552 -0.448,1 -1,1 -0.552,0 -1,-0.448 -1,-1 0,-0.552 0.448,-1 1,-1 z m -2,3 c 0.552,0 1,0.448 1,1 0,0.552 -0.448,1 -1,1 -0.552,0 -1,-0.448 -1,-1 0,-0.552 0.448,-1 1,-1 z m -2,-3 c 0.552,0 1,0.448 1,1 0,0.552 -0.448,1 -1,1 -0.552,0 -1,-0.448 -1,-1 0,-0.552 0.448,-1 1,-1 z m -2,3 c 0.552,0 1,0.448 1,1 0,0.552 -0.448,1 -1,1 -0.552,0 -1,-0.448 -1,-1 0,-0.552 0.448,-1 1,-1 z m -2,-3 c 0.552,0 1,0.448 1,1 0,0.552 -0.448,1 -1,1 -0.552,0 -1,-0.448 -1,-1 0,-0.552 0.448,-1 1,-1 z m -23.5,-2 c 2.481,0 4.5,2.019 4.5,4.5 0,2.481 -2.019,4.5 -4.5,4.5 C 8.019,34.5 6,32.481 6,30 6,27.519 8.019,25.5 10.5,25.5 Z"
         id="path1949" /><path
         d="M 59.165,19.5 C 59.686,18.76 60,17.865 60,16.892 V 5.108 C 60,2.567 57.933,0.5 55.392,0.5 H 4.608 C 2.067,0.5 0,2.567 0,5.108 v 11.783 c 0,0.974 0.314,1.868 0.835,2.608 h 58.33 z M 52,11.5 c 0.552,0 1,0.448 1,1 0,0.552 -0.448,1 -1,1 -0.552,0 -1,-0.448 -1,-1 0,-0.552 0.448,-1 1,-1 z m -2,-3 c 0.552,0 1,0.448 1,1 0,0.552 -0.448,1 -1,1 -0.552,0 -1,-0.448 -1,-1 0,-0.552 0.448,-1 1,-1 z m -2,3 c 0.552,0 1,0.448 1,1 0,0.552 -0.448,1 -1,1 -0.552,0 -1,-0.448 -1,-1 0,-0.552 0.448,-1 1,-1 z m -2,-3 c 0.552,0 1,0.448 1,1 0,0.552 -0.448,1 -1,1 -0.552,0 -1,-0.448 -1,-1 0,-0.552 0.448,-1 1,-1 z m -2,3 c 0.552,0 1,0.448 1,1 0,0.552 -0.448,1 -1,1 -0.552,0 -1,-0.448 -1,-1 0,-0.552 0.448,-1 1,-1 z m -2,-3 c 0.552,0 1,0.448 1,1 0,0.552 -0.448,1 -1,1 -0.552,0 -1,-0.448 -1,-1 0,-0.552 0.448,-1 1,-1 z m -2,3 c 0.552,0 1,0.448 1,1 0,0.552 -0.448,1 -1,1 -0.552,0 -1,-0.448 -1,-1 0,-0.552 0.448,-1 1,-1 z m -2,-3 c 0.552,0 1,0.448 1,1 0,0.552 -0.448,1 -1,1 -0.552,0 -1,-0.448 -1,-1 0,-0.552 0.448,-1 1,-1 z m -2,3 c 0.552,0 1,0.448 1,1 0,0.552 -0.448,1 -1,1 -0.552,0 -1,-0.448 -1,-1 0,-0.552 0.448,-1 1,-1 z m -2,-3 c 0.552,0 1,0.448 1,1 0,0.552 -0.448,1 -1,1 -0.552,0 -1,-0.448 -1,-1 0,-0.552 0.448,-1 1,-1 z m -23.5,-2 c 2.481,0 4.5,2.019 4.5,4.5 0,2.481 -2.019,4.5 -4.5,4.5 C 8.019,15.5 6,13.481 6,11 6,8.519 8.019,6.5 10.5,6.5 Z"
         id="path1951" /><path
         d="M 0.835,40.5 C 0.314,41.24 0,42.135 0,43.108 V 54.891 C 0,57.433 2.067,59.5 4.608,59.5 h 50.783 c 2.541,0 4.608,-2.067 4.608,-4.608 V 43.108 c 0,-0.974 -0.314,-1.868 -0.835,-2.608 z m 9.665,13 C 8.019,53.5 6,51.481 6,49 c 0,-2.481 2.019,-4.5 4.5,-4.5 2.481,0 4.5,2.019 4.5,4.5 0,2.481 -2.019,4.5 -4.5,4.5 z m 23.5,-5 c -0.552,0 -1,-0.448 -1,-1 0,-0.552 0.448,-1 1,-1 0.552,0 1,0.448 1,1 0,0.552 -0.448,1 -1,1 z m 2,3 c -0.552,0 -1,-0.448 -1,-1 0,-0.552 0.448,-1 1,-1 0.552,0 1,0.448 1,1 0,0.552 -0.448,1 -1,1 z m 2,-3 c -0.552,0 -1,-0.448 -1,-1 0,-0.552 0.448,-1 1,-1 0.552,0 1,0.448 1,1 0,0.552 -0.448,1 -1,1 z m 2,3 c -0.552,0 -1,-0.448 -1,-1 0,-0.552 0.448,-1 1,-1 0.552,0 1,0.448 1,1 0,0.552 -0.448,1 -1,1 z m 2,-3 c -0.552,0 -1,-0.448 -1,-1 0,-0.552 0.448,-1 1,-1 0.552,0 1,0.448 1,1 0,0.552 -0.448,1 -1,1 z m 2,3 c -0.552,0 -1,-0.448 -1,-1 0,-0.552 0.448,-1 1,-1 0.552,0 1,0.448 1,1 0,0.552 -0.448,1 -1,1 z m 2,-3 c -0.552,0 -1,-0.448 -1,-1 0,-0.552 0.448,-1 1,-1 0.552,0 1,0.448 1,1 0,0.552 -0.448,1 -1,1 z m 2,3 c -0.552,0 -1,-0.448 -1,-1 0,-0.552 0.448,-1 1,-1 0.552,0 1,0.448 1,1 0,0.552 -0.448,1 -1,1 z m 2,-3 c -0.552,0 -1,-0.448 -1,-1 0,-0.552 0.448,-1 1,-1 0.552,0 1,0.448 1,1 0,0.552 -0.448,1 -1,1 z m 2,3 c -0.552,0 -1,-0.448 -1,-1 0,-0.552 0.448,-1 1,-1 0.552,0 1,0.448 1,1 0,0.552 -0.448,1 -1,1 z"
         id="path1953" /></g><text
       xml:space="preserve"
       style="font-size:20.0751px;line-height:1.25;font-family:Arial;-inkscape-font-specification:Arial;stroke-width:0.752815"
       x="145.48433"
       y="147.94302"
       id="text2021"><tspan
         sodipodi:role="line"
         id="tspan2019"
         x="145.48433"
         y="147.94302"
         style="stroke-width:0.752815">Server</tspan></text><path
       style="opacity:0.996;fill:none;stroke:#777bb3;stroke-width:2;stroke-dasharray:none;stroke-opacity:1"
       d="m 53.192677,90.327188 c 8.781887,-5.269133 17.563698,-10.538219 28.353005,-12.88 10.789308,-2.34178 23.585398,-1.756338 35.587338,0.711031 12.00194,2.46737 23.20899,6.81637 34.41593,11.165333"
       id="path13008"
       inkscape:path-effect="#path-effect13010"
       inkscape:original-d="m 53.192677,90.327188 c 8.782073,-5.268823 17.563885,-10.537907 26.34543,-15.807259 12.796871,0.585732 25.592963,1.171173 38.389053,1.756363 11.20775,4.349437 22.41479,8.698439 33.62179,13.04726" /><path
       sodipodi:type="star"
       style="opacity:0.996;fill:none;stroke:#777bb3;stroke-width:2;stroke-dasharray:none;stroke-opacity:1"
       id="path13172"
       inkscape:flatsided="false"
       sodipodi:sides="3"
       sodipodi:cx="151.79987"
       sodipodi:cy="89.950821"
       sodipodi:r1="1.2355828"
       sodipodi:r2="0.61779141"
       sodipodi:arg1="0.41822433"
       sodipodi:arg2="1.4654219"
       inkscape:rounded="0"
       inkscape:randomized="0"
       d="m 152.92896,90.452639 -1.06412,0.112547 -1.06411,0.112547 0.43459,-0.977821 0.43459,-0.97782 0.62952,0.865273 z"
       inkscape:transform-center-x="-0.064977107"
       inkscape:transform-center-y="-0.25090999"
       transform="translate(-0.18818164,-0.4390905)" /></g><style
     type="text/css"
     id="style9486">
<![CDATA[
	.st0{fill:#000000;}
]]>
</style></svg>
