<?xml version="1.0" encoding="UTF-8" standalone="no"?>
<svg
   xmlns:dc="http://purl.org/dc/elements/1.1/"
   xmlns:cc="http://creativecommons.org/ns#"
   xmlns:rdf="http://www.w3.org/1999/02/22-rdf-syntax-ns#"
   xmlns:svg="http://www.w3.org/2000/svg"
   xmlns="http://www.w3.org/2000/svg"
   xmlns:sodipodi="http://sodipodi.sourceforge.net/DTD/sodipodi-0.dtd"
   xmlns:inkscape="http://www.inkscape.org/namespaces/inkscape"
   version="1.1"
   id="Capa_1"
   x="0px"
   y="0px"
   viewBox="0 0 27.269 27.269"
   style="enable-background:new 0 0 27.269 27.269;"
   xml:space="preserve"
   sodipodi:docname="command.svg"
   inkscape:version="1.0.2-2 (e86c870879, 2021-01-15)"><metadata
   id="metadata11391"><rdf:RDF><cc:Work
       rdf:about=""><dc:format>image/svg+xml</dc:format><dc:type
         rdf:resource="http://purl.org/dc/dcmitype/StillImage" /><dc:title></dc:title></cc:Work></rdf:RDF></metadata><defs
   id="defs11389" /><sodipodi:namedview
   pagecolor="#ffffff"
   bordercolor="#666666"
   borderopacity="1"
   objecttolerance="10"
   gridtolerance="10"
   guidetolerance="10"
   inkscape:pageopacity="0"
   inkscape:pageshadow="2"
   inkscape:window-width="1920"
   inkscape:window-height="1017"
   id="namedview11387"
   showgrid="false"
   inkscape:zoom="15.080949"
   inkscape:cx="15.849214"
   inkscape:cy="18.84011"
   inkscape:window-x="-8"
   inkscape:window-y="-8"
   inkscape:window-maximized="1"
   inkscape:current-layer="Capa_1" />
<g
   id="g11354"
   style="fill:#777bb3;fill-opacity:1">
	<path
   d="M25.322,1.947H1.949C0.869,1.947,0,2.818,0,3.898v19.477c0,1.074,0.869,1.947,1.949,1.947h23.373   c1.07,0,1.947-0.873,1.947-1.947V3.898C27.27,2.818,26.393,1.947,25.322,1.947z M9.312,3.41c0.537,0,0.973,0.436,0.973,0.975   c0,0.537-0.436,0.973-0.973,0.973c-0.539,0-0.975-0.436-0.975-0.973C8.338,3.845,8.773,3.41,9.312,3.41z M6.33,3.41   c0.537,0,0.975,0.436,0.975,0.975c0,0.537-0.438,0.973-0.975,0.973c-0.539,0-0.975-0.436-0.975-0.973   C5.355,3.845,5.791,3.41,6.33,3.41z M3.406,3.41c0.541,0,0.975,0.436,0.975,0.975c0,0.537-0.434,0.973-0.975,0.973   c-0.535,0-0.971-0.436-0.971-0.973C2.436,3.845,2.871,3.41,3.406,3.41z M25.322,23.375H1.949V6.838h23.373   C25.322,6.838,25.322,23.375,25.322,23.375z"
   id="path11318"
   style="fill:#777bb3;fill-opacity:1" />
	<path
   d="M14.797,15.566L5.844,20.16v-1.332l7.602-3.781v-0.039l-7.602-3.782V9.894l8.953,4.572V15.566z"
   id="path11320"
   style="fill:#777bb3;fill-opacity:1" />
	<path
   d="M21.422,14.334v1.232h-4.764v-1.232H21.422z"
   id="path11322"
   style="fill:#777bb3;fill-opacity:1" />
	<g
   id="g11324"
   style="fill:#777bb3;fill-opacity:1">
	</g>
	<g
   id="g11326"
   style="fill:#777bb3;fill-opacity:1">
	</g>
	<g
   id="g11328"
   style="fill:#777bb3;fill-opacity:1">
	</g>
	<g
   id="g11330"
   style="fill:#777bb3;fill-opacity:1">
	</g>
	<g
   id="g11332"
   style="fill:#777bb3;fill-opacity:1">
	</g>
	<g
   id="g11334"
   style="fill:#777bb3;fill-opacity:1">
	</g>
	<g
   id="g11336"
   style="fill:#777bb3;fill-opacity:1">
	</g>
	<g
   id="g11338"
   style="fill:#777bb3;fill-opacity:1">
	</g>
	<g
   id="g11340"
   style="fill:#777bb3;fill-opacity:1">
	</g>
	<g
   id="g11342"
   style="fill:#777bb3;fill-opacity:1">
	</g>
	<g
   id="g11344"
   style="fill:#777bb3;fill-opacity:1">
	</g>
	<g
   id="g11346"
   style="fill:#777bb3;fill-opacity:1">
	</g>
	<g
   id="g11348"
   style="fill:#777bb3;fill-opacity:1">
	</g>
	<g
   id="g11350"
   style="fill:#777bb3;fill-opacity:1">
	</g>
	<g
   id="g11352"
   style="fill:#777bb3;fill-opacity:1">
	</g>
</g>
<g
   id="g11356">
</g>
<g
   id="g11358">
</g>
<g
   id="g11360">
</g>
<g
   id="g11362">
</g>
<g
   id="g11364">
</g>
<g
   id="g11366">
</g>
<g
   id="g11368">
</g>
<g
   id="g11370">
</g>
<g
   id="g11372">
</g>
<g
   id="g11374">
</g>
<g
   id="g11376">
</g>
<g
   id="g11378">
</g>
<g
   id="g11380">
</g>
<g
   id="g11382">
</g>
<g
   id="g11384">
</g>
</svg>
