<?xml version="1.0" encoding="UTF-8" standalone="no"?>
<!-- Created with Inkscape (http://www.inkscape.org/) -->

<svg
   width="199.47121mm"
   height="60.993744mm"
   viewBox="0 0 199.47121 60.993744"
   version="1.1"
   id="svg5"
   xml:space="preserve"
   inkscape:version="1.2.2 (732a01da63, 2022-12-09)"
   sodipodi:docname="formvalidation.svg"
   xmlns:inkscape="http://www.inkscape.org/namespaces/inkscape"
   xmlns:sodipodi="http://sodipodi.sourceforge.net/DTD/sodipodi-0.dtd"
   xmlns="http://www.w3.org/2000/svg"
   xmlns:svg="http://www.w3.org/2000/svg"><sodipodi:namedview
     id="namedview7"
     pagecolor="#505050"
     bordercolor="#eeeeee"
     borderopacity="1"
     inkscape:showpageshadow="0"
     inkscape:pageopacity="0"
     inkscape:pagecheckerboard="0"
     inkscape:deskcolor="#505050"
     inkscape:document-units="mm"
     showgrid="false"
     inkscape:zoom="1.0544998"
     inkscape:cx="329.54014"
     inkscape:cy="146.98913"
     inkscape:window-width="1920"
     inkscape:window-height="1017"
     inkscape:window-x="-8"
     inkscape:window-y="-8"
     inkscape:window-maximized="1"
     inkscape:current-layer="g2013" /><defs
     id="defs2"><inkscape:path-effect
       effect="bspline"
       id="path-effect3078"
       is_visible="true"
       lpeversion="1"
       weight="33.333333"
       steps="2"
       helper_size="0"
       apply_no_weight="true"
       apply_with_weight="true"
       only_selected="false" /><inkscape:path-effect
       effect="bspline"
       id="path-effect3055"
       is_visible="true"
       lpeversion="1"
       weight="33.333333"
       steps="2"
       helper_size="0"
       apply_no_weight="true"
       apply_with_weight="true"
       only_selected="false" /><inkscape:path-effect
       effect="bspline"
       id="path-effect2029"
       is_visible="true"
       lpeversion="1"
       weight="33.333333"
       steps="2"
       helper_size="0"
       apply_no_weight="true"
       apply_with_weight="true"
       only_selected="false" /><inkscape:path-effect
       effect="bspline"
       id="path-effect2025"
       is_visible="true"
       lpeversion="1"
       weight="33.333333"
       steps="2"
       helper_size="0"
       apply_no_weight="true"
       apply_with_weight="true"
       only_selected="false" /></defs><g
     inkscape:label="Layer 1"
     inkscape:groupmode="layer"
     id="layer1"
     transform="translate(-22.363074,-98.512367)"><g
       id="g1947"
       transform="matrix(0.4572,0,0,0.4572,24.998893,131.32735)"><g
         id="g1888"><g
           id="g1886"><path
             style="fill:#010002"
             d="M 45.344,6.601 H 5.018 C 2.251,6.601 0,8.835 0,11.581 v 23.222 c 0,2.745 2.251,4.979 5.018,4.979 l 9.709,0.957 c -0.556,0.15 -0.961,0.751 -0.961,1.493 0,0.858 0.542,1.531 1.233,1.531 h 20.367 c 0.691,0 1.233,-0.673 1.233,-1.531 0,-0.73 -0.395,-1.323 -0.938,-1.484 l 9.683,-0.966 c 2.768,0 5.02,-2.234 5.02,-4.979 V 11.581 c 0,-2.746 -2.252,-4.98 -5.02,-4.98 z M 35.366,42.764 H 14.999 c -0.058,0 -0.233,-0.188 -0.233,-0.531 0,-0.343 0.175,-0.531 0.233,-0.531 h 20.367 c 0.058,0 0.233,0.188 0.233,0.531 0,0.343 -0.176,0.531 -0.233,0.531 z m 12.92,-7.961 c 0,1.601 -1.319,2.902 -2.941,2.902 H 5.018 c -1.622,0 -2.941,-1.303 -2.941,-2.902 V 11.581 c 0,-1.601 1.319,-2.903 2.941,-2.903 h 40.326 c 1.622,0 2.941,1.303 2.941,2.903 z"
             id="path1880" /><path
             style="fill:#010002"
             d="M 45.041,10.773 H 5.323 c -0.297,0 -0.537,0.24 -0.537,0.537 v 19.752 c 0,0.297 0.24,0.539 0.537,0.539 h 39.718 c 0.297,0 0.537,-0.242 0.539,-0.539 V 11.31 c 0,-0.297 -0.241,-0.537 -0.539,-0.537 z m -0.536,18.752 c 0,0.554 -0.447,1 -1,1 H 6.86 c -0.553,0 -1,-0.446 -1,-0.998 V 12.848 c 0,-0.553 0.447,-1 1,-1 h 36.645 c 0.553,0 1,0.447 1,1 z"
             id="path1882" /><path
             style="fill:#010002"
             d="m 25.182,33.357 c -0.915,0 -1.658,0.744 -1.658,1.658 0,0.914 0.744,1.657 1.658,1.657 0.914,0 1.658,-0.743 1.658,-1.657 0,-0.914 -0.744,-1.658 -1.658,-1.658 z m 0,2.566 c -0.501,0 -0.908,-0.407 -0.908,-0.907 0,-0.501 0.407,-0.908 0.908,-0.908 0.501,0 0.908,0.407 0.908,0.908 0,0.5 -0.407,0.907 -0.908,0.907 z"
             id="path1884" /></g></g><g
         id="g1890" /><g
         id="g1892" /><g
         id="g1894" /><g
         id="g1896" /><g
         id="g1898" /><g
         id="g1900" /><g
         id="g1902" /><g
         id="g1904" /><g
         id="g1906" /><g
         id="g1908" /><g
         id="g1910" /><g
         id="g1912" /><g
         id="g1914" /><g
         id="g1916" /><g
         id="g1918" /></g><g
       id="g2013"
       transform="matrix(0.26458333,0,0,0.26458333,136.36405,135.73562)"><g
         id="g1955"
         transform="translate(46.467531,0.94831696)"><path
           d="m 0,24.108 v 11.783 c 0,0.974 0.314,1.868 0.835,2.608 H 59.164 C 59.686,37.76 60,36.865 60,35.892 V 24.108 C 60,23.134 59.686,22.24 59.165,21.5 H 0.835 C 0.314,22.24 0,23.135 0,24.108 Z M 52,30.5 c 0.552,0 1,0.448 1,1 0,0.552 -0.448,1 -1,1 -0.552,0 -1,-0.448 -1,-1 0,-0.552 0.448,-1 1,-1 z m -2,-3 c 0.552,0 1,0.448 1,1 0,0.552 -0.448,1 -1,1 -0.552,0 -1,-0.448 -1,-1 0,-0.552 0.448,-1 1,-1 z m -2,3 c 0.552,0 1,0.448 1,1 0,0.552 -0.448,1 -1,1 -0.552,0 -1,-0.448 -1,-1 0,-0.552 0.448,-1 1,-1 z m -2,-3 c 0.552,0 1,0.448 1,1 0,0.552 -0.448,1 -1,1 -0.552,0 -1,-0.448 -1,-1 0,-0.552 0.448,-1 1,-1 z m -2,3 c 0.552,0 1,0.448 1,1 0,0.552 -0.448,1 -1,1 -0.552,0 -1,-0.448 -1,-1 0,-0.552 0.448,-1 1,-1 z m -2,-3 c 0.552,0 1,0.448 1,1 0,0.552 -0.448,1 -1,1 -0.552,0 -1,-0.448 -1,-1 0,-0.552 0.448,-1 1,-1 z m -2,3 c 0.552,0 1,0.448 1,1 0,0.552 -0.448,1 -1,1 -0.552,0 -1,-0.448 -1,-1 0,-0.552 0.448,-1 1,-1 z m -2,-3 c 0.552,0 1,0.448 1,1 0,0.552 -0.448,1 -1,1 -0.552,0 -1,-0.448 -1,-1 0,-0.552 0.448,-1 1,-1 z m -2,3 c 0.552,0 1,0.448 1,1 0,0.552 -0.448,1 -1,1 -0.552,0 -1,-0.448 -1,-1 0,-0.552 0.448,-1 1,-1 z m -2,-3 c 0.552,0 1,0.448 1,1 0,0.552 -0.448,1 -1,1 -0.552,0 -1,-0.448 -1,-1 0,-0.552 0.448,-1 1,-1 z m -23.5,-2 c 2.481,0 4.5,2.019 4.5,4.5 0,2.481 -2.019,4.5 -4.5,4.5 C 8.019,34.5 6,32.481 6,30 6,27.519 8.019,25.5 10.5,25.5 Z"
           id="path1949" /><path
           d="M 59.165,19.5 C 59.686,18.76 60,17.865 60,16.892 V 5.108 C 60,2.567 57.933,0.5 55.392,0.5 H 4.608 C 2.067,0.5 0,2.567 0,5.108 v 11.783 c 0,0.974 0.314,1.868 0.835,2.608 h 58.33 z M 52,11.5 c 0.552,0 1,0.448 1,1 0,0.552 -0.448,1 -1,1 -0.552,0 -1,-0.448 -1,-1 0,-0.552 0.448,-1 1,-1 z m -2,-3 c 0.552,0 1,0.448 1,1 0,0.552 -0.448,1 -1,1 -0.552,0 -1,-0.448 -1,-1 0,-0.552 0.448,-1 1,-1 z m -2,3 c 0.552,0 1,0.448 1,1 0,0.552 -0.448,1 -1,1 -0.552,0 -1,-0.448 -1,-1 0,-0.552 0.448,-1 1,-1 z m -2,-3 c 0.552,0 1,0.448 1,1 0,0.552 -0.448,1 -1,1 -0.552,0 -1,-0.448 -1,-1 0,-0.552 0.448,-1 1,-1 z m -2,3 c 0.552,0 1,0.448 1,1 0,0.552 -0.448,1 -1,1 -0.552,0 -1,-0.448 -1,-1 0,-0.552 0.448,-1 1,-1 z m -2,-3 c 0.552,0 1,0.448 1,1 0,0.552 -0.448,1 -1,1 -0.552,0 -1,-0.448 -1,-1 0,-0.552 0.448,-1 1,-1 z m -2,3 c 0.552,0 1,0.448 1,1 0,0.552 -0.448,1 -1,1 -0.552,0 -1,-0.448 -1,-1 0,-0.552 0.448,-1 1,-1 z m -2,-3 c 0.552,0 1,0.448 1,1 0,0.552 -0.448,1 -1,1 -0.552,0 -1,-0.448 -1,-1 0,-0.552 0.448,-1 1,-1 z m -2,3 c 0.552,0 1,0.448 1,1 0,0.552 -0.448,1 -1,1 -0.552,0 -1,-0.448 -1,-1 0,-0.552 0.448,-1 1,-1 z m -2,-3 c 0.552,0 1,0.448 1,1 0,0.552 -0.448,1 -1,1 -0.552,0 -1,-0.448 -1,-1 0,-0.552 0.448,-1 1,-1 z m -23.5,-2 c 2.481,0 4.5,2.019 4.5,4.5 0,2.481 -2.019,4.5 -4.5,4.5 C 8.019,15.5 6,13.481 6,11 6,8.519 8.019,6.5 10.5,6.5 Z"
           id="path1951" /><path
           d="M 0.835,40.5 C 0.314,41.24 0,42.135 0,43.108 V 54.891 C 0,57.433 2.067,59.5 4.608,59.5 h 50.783 c 2.541,0 4.608,-2.067 4.608,-4.608 V 43.108 c 0,-0.974 -0.314,-1.868 -0.835,-2.608 z m 9.665,13 C 8.019,53.5 6,51.481 6,49 c 0,-2.481 2.019,-4.5 4.5,-4.5 2.481,0 4.5,2.019 4.5,4.5 0,2.481 -2.019,4.5 -4.5,4.5 z m 23.5,-5 c -0.552,0 -1,-0.448 -1,-1 0,-0.552 0.448,-1 1,-1 0.552,0 1,0.448 1,1 0,0.552 -0.448,1 -1,1 z m 2,3 c -0.552,0 -1,-0.448 -1,-1 0,-0.552 0.448,-1 1,-1 0.552,0 1,0.448 1,1 0,0.552 -0.448,1 -1,1 z m 2,-3 c -0.552,0 -1,-0.448 -1,-1 0,-0.552 0.448,-1 1,-1 0.552,0 1,0.448 1,1 0,0.552 -0.448,1 -1,1 z m 2,3 c -0.552,0 -1,-0.448 -1,-1 0,-0.552 0.448,-1 1,-1 0.552,0 1,0.448 1,1 0,0.552 -0.448,1 -1,1 z m 2,-3 c -0.552,0 -1,-0.448 -1,-1 0,-0.552 0.448,-1 1,-1 0.552,0 1,0.448 1,1 0,0.552 -0.448,1 -1,1 z m 2,3 c -0.552,0 -1,-0.448 -1,-1 0,-0.552 0.448,-1 1,-1 0.552,0 1,0.448 1,1 0,0.552 -0.448,1 -1,1 z m 2,-3 c -0.552,0 -1,-0.448 -1,-1 0,-0.552 0.448,-1 1,-1 0.552,0 1,0.448 1,1 0,0.552 -0.448,1 -1,1 z m 2,3 c -0.552,0 -1,-0.448 -1,-1 0,-0.552 0.448,-1 1,-1 0.552,0 1,0.448 1,1 0,0.552 -0.448,1 -1,1 z m 2,-3 c -0.552,0 -1,-0.448 -1,-1 0,-0.552 0.448,-1 1,-1 0.552,0 1,0.448 1,1 0,0.552 -0.448,1 -1,1 z m 2,3 c -0.552,0 -1,-0.448 -1,-1 0,-0.552 0.448,-1 1,-1 0.552,0 1,0.448 1,1 0,0.552 -0.448,1 -1,1 z"
           id="path1953" /></g><g
         id="g1957" /><g
         id="g1959" /><g
         id="g1961" /><g
         id="g1963" /><g
         id="g1965" /><g
         id="g1967" /><g
         id="g1969" /><g
         id="g1971" /><g
         id="g1973" /><g
         id="g1975" /><g
         id="g1977" /><g
         id="g1979" /><g
         id="g1981" /><g
         id="g1983" /><g
         id="g1985" /></g><text
       xml:space="preserve"
       style="font-size:7.05556px;line-height:1.25;font-family:Arial;-inkscape-font-specification:Arial;stroke-width:0.264583"
       x="26.786503"
       y="158.63281"
       id="text2017"><tspan
         sodipodi:role="line"
         id="tspan2015"
         x="26.786503"
         y="158.63281"
         style="stroke-width:0.264583">Client</tspan></text><text
       xml:space="preserve"
       style="font-size:7.05556px;line-height:1.25;font-family:Arial;-inkscape-font-specification:Arial;stroke-width:0.264583"
       x="145.48425"
       y="159.41998"
       id="text2021"><tspan
         sodipodi:role="line"
         id="tspan2019"
         x="145.48425"
         y="159.41998"
         style="stroke-width:0.264583">Server</tspan></text><text
       xml:space="preserve"
       style="font-size:7.05556px;line-height:1.25;font-family:Arial;-inkscape-font-specification:Arial;stroke-width:0.264583"
       x="64.395988"
       y="160.54411"
       id="text3117"><tspan
         sodipodi:role="line"
         id="tspan3115"
         x="64.395988"
         y="160.54411"
         style="stroke-width:0.264583" /></text><text
       xml:space="preserve"
       style="font-size:7.05555px;line-height:1.25;font-family:Arial;-inkscape-font-specification:Arial;stroke-width:0.264583"
       x="46.167248"
       y="102.62168"
       id="text2029"><tspan
         sodipodi:role="line"
         id="tspan2027"
         style="font-size:5.64445px;stroke-width:0.264583"
         x="46.167248"
         y="102.62168">nom: Schropp</tspan><tspan
         sodipodi:role="line"
         style="font-size:5.64445px;stroke-width:0.264583"
         x="46.167248"
         y="111.44112"
         id="tspan2085">prenom: Kilian</tspan><tspan
         sodipodi:role="line"
         style="font-size:5.64445px;stroke-width:0.264583"
         x="46.167248"
         y="120.26056"
         id="tspan2087">age: twenty</tspan><tspan
         sodipodi:role="line"
         style="font-size:5.64445px;stroke-width:0.264583"
         x="46.167248"
         y="129.07999"
         id="tspan2031">email: invalid-email.com</tspan><tspan
         sodipodi:role="line"
         style="stroke-width:0.264583"
         x="46.167248"
         y="137.89943"
         id="tspan2083" /></text><text
       xml:space="preserve"
       style="font-size:7.05555px;line-height:1.25;font-family:Arial;-inkscape-font-specification:Arial;stroke-width:0.264583"
       x="159.905"
       y="102.95596"
       id="text2029-5"><tspan
         sodipodi:role="line"
         id="tspan2027-9"
         style="font-size:5.64445px;stroke-width:0.264583"
         x="159.905"
         y="102.95596">nom: Schropp</tspan><tspan
         sodipodi:role="line"
         style="font-size:5.64445px;stroke-width:0.264583"
         x="159.905"
         y="111.7754"
         id="tspan2085-1">prenom: Kilian</tspan><tspan
         sodipodi:role="line"
         style="font-size:5.64445px;stroke-width:0.264583"
         x="159.905"
         y="120.59484"
         id="tspan2087-9">age: twenty</tspan><tspan
         sodipodi:role="line"
         style="font-size:5.64445px;stroke-width:0.264583"
         x="159.905"
         y="129.41428"
         id="tspan2031-2">email: invalid-email.com</tspan><tspan
         sodipodi:role="line"
         style="stroke-width:0.264583"
         x="159.905"
         y="138.23372"
         id="tspan2083-3" /></text><rect
       style="opacity:0.996;fill:none;stroke:#777bb3;stroke-width:1.03133"
       id="rect2188"
       width="63.21867"
       height="7.5935597"
       x="44.99147"
       y="123.72339" /><rect
       style="opacity:0.996;fill:none;stroke:#777bb3;stroke-width:1.03133"
       id="rect2188-2"
       width="63.21867"
       height="7.5935597"
       x="45.035824"
       y="115.07419" /><rect
       style="opacity:0.996;fill:none;stroke:#777bb3;stroke-width:1.03133"
       id="rect2188-5"
       width="63.21867"
       height="7.5935597"
       x="158.05559"
       y="124.22589" /><rect
       style="opacity:0.996;fill:none;stroke:#777bb3;stroke-width:1.03133"
       id="rect2188-2-7"
       width="63.21867"
       height="7.5935597"
       x="158.09995"
       y="115.57669" /><text
       xml:space="preserve"
       style="font-size:7.05556px;line-height:1.25;font-family:Arial;-inkscape-font-specification:Arial;fill:#b70707;fill-opacity:1;stroke:none;stroke-width:0.264583;stroke-opacity:1"
       x="21.894541"
       y="121.61467"
       id="text2241"><tspan
         sodipodi:role="line"
         id="tspan2239"
         style="fill:#b70707;fill-opacity:1;stroke:none;stroke-width:0.264583;stroke-opacity:1"
         x="21.894541"
         y="121.61467">invalid</tspan></text><text
       xml:space="preserve"
       style="font-size:7.05556px;line-height:1.25;font-family:Arial;-inkscape-font-specification:Arial;fill:#b70707;fill-opacity:1;stroke:none;stroke-width:0.264583;stroke-opacity:1"
       x="22.135887"
       y="130.07108"
       id="text2241-9"><tspan
         sodipodi:role="line"
         id="tspan2239-9"
         style="fill:#b70707;fill-opacity:1;stroke:none;stroke-width:0.264583;stroke-opacity:1"
         x="22.135887"
         y="130.07108">invalid</tspan></text><text
       xml:space="preserve"
       style="font-size:7.05556px;line-height:1.25;font-family:Arial;-inkscape-font-specification:Arial;fill:#b70707;fill-opacity:1;stroke:none;stroke-width:0.264583;stroke-opacity:1"
       x="136.17874"
       y="122.33014"
       id="text2241-7"><tspan
         sodipodi:role="line"
         id="tspan2239-6"
         style="fill:#b70707;fill-opacity:1;stroke:none;stroke-width:0.264583;stroke-opacity:1"
         x="136.17874"
         y="122.33014">invalid</tspan></text><text
       xml:space="preserve"
       style="font-size:7.05556px;line-height:1.25;font-family:Arial;-inkscape-font-specification:Arial;fill:#b70707;fill-opacity:1;stroke:none;stroke-width:0.264583;stroke-opacity:1"
       x="136.42009"
       y="130.78656"
       id="text2241-9-3"><tspan
         sodipodi:role="line"
         id="tspan2239-9-8"
         style="fill:#b70707;fill-opacity:1;stroke:none;stroke-width:0.264583;stroke-opacity:1"
         x="136.42009"
         y="130.78656">invalid</tspan></text></g></svg>
