<?xml version="1.0" encoding="UTF-8" standalone="no"?>
<svg
   xmlns:dc="http://purl.org/dc/elements/1.1/"
   xmlns:cc="http://creativecommons.org/ns#"
   xmlns:rdf="http://www.w3.org/1999/02/22-rdf-syntax-ns#"
   xmlns:svg="http://www.w3.org/2000/svg"
   xmlns="http://www.w3.org/2000/svg"
   xmlns:sodipodi="http://sodipodi.sourceforge.net/DTD/sodipodi-0.dtd"
   xmlns:inkscape="http://www.inkscape.org/namespaces/inkscape"
   width="691.67401mm"
   height="296.03369mm"
   viewBox="0 0 691.67401 296.03369"
   version="1.1"
   id="svg3498"
   inkscape:version="1.0.2-2 (e86c870879, 2021-01-15)"
   sodipodi:docname="parser.svg"
   inkscape:export-filename="C:\Users\Kilian\Desktop\crlc\PHP\parser.png"
   inkscape:export-xdpi="95.800003"
   inkscape:export-ydpi="95.800003">
  <defs
     id="defs3492">
    <inkscape:path-effect
       effect="bspline"
       id="path-effect4296"
       is_visible="true"
       lpeversion="1"
       weight="33.333333"
       steps="2"
       helper_size="0"
       apply_no_weight="true"
       apply_with_weight="true"
       only_selected="false" />
    <inkscape:path-effect
       effect="bspline"
       id="path-effect4290"
       is_visible="true"
       lpeversion="1"
       weight="33.333333"
       steps="2"
       helper_size="0"
       apply_no_weight="true"
       apply_with_weight="true"
       only_selected="false" />
  </defs>
  <sodipodi:namedview
     id="base"
     pagecolor="#3b4f2f"
     bordercolor="#666666"
     borderopacity="1.0"
     inkscape:pageopacity="0"
     inkscape:pageshadow="2"
     inkscape:zoom="0.23470391"
     inkscape:cx="1217.7128"
     inkscape:cy="416.62931"
     inkscape:document-units="mm"
     inkscape:current-layer="layer1"
     inkscape:document-rotation="0"
     showgrid="false"
     inkscape:window-width="1920"
     inkscape:window-height="1017"
     inkscape:window-x="-8"
     inkscape:window-y="-8"
     inkscape:window-maximized="1"
     fit-margin-top="0"
     fit-margin-left="0"
     fit-margin-right="0"
     fit-margin-bottom="0" />
  <metadata
     id="metadata3495">
    <rdf:RDF>
      <cc:Work
         rdf:about="">
        <dc:format>image/svg+xml</dc:format>
        <dc:type
           rdf:resource="http://purl.org/dc/dcmitype/StillImage" />
        <dc:title></dc:title>
      </cc:Work>
    </rdf:RDF>
  </metadata>
  <g
     inkscape:label="Layer 1"
     inkscape:groupmode="layer"
     id="layer1"
     transform="translate(71.699227,75.032799)">
    <g
       id="g4137"
       transform="matrix(0.26458333,0,0,0.26458333,-82.28256,34.747085)"
       style="fill:#777bb3;fill-opacity:1">
      <g
         id="g4075"
         style="fill:#777bb3;fill-opacity:1">
        <path
           d="m 470.962,102.751 c -0.018,-0.182 -0.049,-0.359 -0.08,-0.537 -0.011,-0.063 -0.016,-0.128 -0.029,-0.191 -0.042,-0.21 -0.096,-0.416 -0.155,-0.619 -0.009,-0.03 -0.014,-0.061 -0.023,-0.091 -0.063,-0.207 -0.138,-0.409 -0.218,-0.608 -0.011,-0.027 -0.019,-0.055 -0.03,-0.081 -0.078,-0.189 -0.168,-0.372 -0.261,-0.552 -0.019,-0.037 -0.034,-0.075 -0.054,-0.112 -0.089,-0.167 -0.189,-0.327 -0.291,-0.486 -0.03,-0.048 -0.057,-0.098 -0.088,-0.145 -0.101,-0.151 -0.213,-0.295 -0.324,-0.438 -0.039,-0.05 -0.073,-0.102 -0.113,-0.151 -0.156,-0.189 -0.32,-0.372 -0.493,-0.545 L 372.804,2.198 C 372.631,2.025 372.449,1.86 372.259,1.705 372.21,1.665 372.158,1.631 372.108,1.592 371.965,1.48 371.821,1.369 371.67,1.268 371.623,1.236 371.573,1.21 371.525,1.18 371.366,1.079 371.206,0.979 371.039,0.889 371.003,0.869 370.964,0.854 370.927,0.835 370.746,0.742 370.563,0.652 370.375,0.574 370.348,0.563 370.321,0.555 370.294,0.544 370.095,0.464 369.893,0.389 369.686,0.326 369.656,0.317 369.625,0.311 369.595,0.303 369.392,0.244 369.186,0.189 368.976,0.147 368.913,0.134 368.848,0.129 368.785,0.118 368.607,0.087 368.43,0.056 368.248,0.038 368.001,0.013 367.751,0 367.5,0 h -224 C 121.72,0 104,17.72 104,39.5 V 80 H 71.5 C 54.131,80 40,94.131 40,111.5 v 80 C 40,208.869 54.131,223 71.5,223 H 104 v 248.5 c 0,21.78 17.72,39.5 39.5,39.5 h 288 c 21.78,0 39.5,-17.72 39.5,-39.5 v -368 c 0,-0.251 -0.013,-0.501 -0.038,-0.749 z M 375,25.606 445.394,96 H 399.5 C 385.991,96 375,85.009 375,71.5 Z M 55,191.5 v -80 C 55,102.402 62.402,95 71.5,95 h 232 c 9.098,0 16.5,7.402 16.5,16.5 v 80 c 0,9.098 -7.402,16.5 -16.5,16.5 H 111.519 c -0.007,0 -0.013,-0.001 -0.019,-0.001 -0.006,0 -0.013,0.001 -0.019,0.001 H 71.5 C 62.402,208 55,200.598 55,191.5 Z M 431.5,496 h -288 C 129.991,496 119,485.009 119,471.5 V 223 h 184.5 c 17.369,0 31.5,-14.131 31.5,-31.5 v -80 C 335,94.131 320.869,80 303.5,80 H 119 V 39.5 C 119,25.991 129.991,15 143.5,15 H 360 v 56.5 c 0,21.78 17.72,39.5 39.5,39.5 H 456 v 360.5 c 0,13.509 -10.991,24.5 -24.5,24.5 z"
           id="path4061"
           style="fill:#777bb3;fill-opacity:1" />
        <path
           d="m 327.5,408 c -1.97,0 -3.91,0.8 -5.3,2.2 -1.4,1.39 -2.2,3.33 -2.2,5.3 0,1.97 0.8,3.91 2.2,5.3 1.39,1.4 3.33,2.2 5.3,2.2 1.97,0 3.91,-0.8 5.3,-2.2 1.4,-1.39 2.2,-3.33 2.2,-5.3 0,-1.97 -0.8,-3.91 -2.2,-5.3 -1.39,-1.4 -3.33,-2.2 -5.3,-2.2 z"
           id="path4063"
           style="fill:#777bb3;fill-opacity:1" />
        <path
           d="m 95,167 h 20.5 C 130.664,167 143,154.664 143,139.5 143,124.336 130.664,112 115.5,112 h -28 c -4.142,0 -7.5,3.358 -7.5,7.5 v 64 c 0,4.142 3.358,7.5 7.5,7.5 4.142,0 7.5,-3.358 7.5,-7.5 z m 33,-27.5 c 0,6.893 -5.607,12.5 -12.5,12.5 H 95 v -25 h 20.5 c 6.893,0 12.5,5.607 12.5,12.5 z"
           id="path4065"
           style="fill:#777bb3;fill-opacity:1" />
        <path
           d="m 247.5,191 c 4.142,0 7.5,-3.358 7.5,-7.5 V 167 h 20.5 C 290.664,167 303,154.664 303,139.5 303,124.336 290.664,112 275.5,112 h -28 c -4.142,0 -7.5,3.358 -7.5,7.5 v 64 c 0,4.142 3.358,7.5 7.5,7.5 z M 288,139.5 c 0,6.893 -5.607,12.5 -12.5,12.5 H 255 v -25 h 20.5 c 6.893,0 12.5,5.607 12.5,12.5 z"
           id="path4067"
           style="fill:#777bb3;fill-opacity:1" />
        <path
           d="m 159.5,191 c 4.142,0 7.5,-3.358 7.5,-7.5 V 167 h 41 v 16.5 c 0,4.142 3.358,7.5 7.5,7.5 4.142,0 7.5,-3.358 7.5,-7.5 v -64 c 0,-4.142 -3.358,-7.5 -7.5,-7.5 -4.142,0 -7.5,3.358 -7.5,7.5 V 152 h -41 v -32.5 c 0,-4.142 -3.358,-7.5 -7.5,-7.5 -4.142,0 -7.5,3.358 -7.5,7.5 v 64 c 0,4.142 3.358,7.5 7.5,7.5 z"
           id="path4069"
           style="fill:#777bb3;fill-opacity:1" />
        <path
           d="m 268.803,298.197 c -2.929,-2.929 -7.678,-2.929 -10.606,0 l -56,56 c -2.929,2.929 -2.929,7.678 0,10.606 l 56,56 c 1.464,1.464 3.384,2.197 5.303,2.197 1.919,0 3.839,-0.732 5.303,-2.197 2.929,-2.929 2.929,-7.678 0,-10.606 L 218.106,359.5 268.803,308.803 c 2.929,-2.928 2.929,-7.678 0,-10.606 z"
           id="path4071"
           style="fill:#777bb3;fill-opacity:1" />
        <path
           d="m 327.5,296 c -26.191,0 -47.5,21.309 -47.5,47.5 0,4.142 3.358,7.5 7.5,7.5 4.142,0 7.5,-3.358 7.5,-7.5 0,-17.92 14.58,-32.5 32.5,-32.5 17.92,0 32.5,14.58 32.5,32.5 0,17.92 -14.58,32.5 -32.5,32.5 -4.142,0 -7.5,3.358 -7.5,7.5 v 8 c 0,4.142 3.358,7.5 7.5,7.5 4.142,0 7.5,-3.358 7.5,-7.5 v -1.091 C 357.641,386.803 375,367.14 375,343.5 375,317.309 353.691,296 327.5,296 Z"
           id="path4073"
           style="fill:#777bb3;fill-opacity:1" />
      </g>
      <g
         id="g4077"
         style="fill:#777bb3;fill-opacity:1" />
      <g
         id="g4079"
         style="fill:#777bb3;fill-opacity:1" />
      <g
         id="g4081"
         style="fill:#777bb3;fill-opacity:1" />
      <g
         id="g4083"
         style="fill:#777bb3;fill-opacity:1" />
      <g
         id="g4085"
         style="fill:#777bb3;fill-opacity:1" />
      <g
         id="g4087"
         style="fill:#777bb3;fill-opacity:1" />
      <g
         id="g4089"
         style="fill:#777bb3;fill-opacity:1" />
      <g
         id="g4091"
         style="fill:#777bb3;fill-opacity:1" />
      <g
         id="g4093"
         style="fill:#777bb3;fill-opacity:1" />
      <g
         id="g4095"
         style="fill:#777bb3;fill-opacity:1" />
      <g
         id="g4097"
         style="fill:#777bb3;fill-opacity:1" />
      <g
         id="g4099"
         style="fill:#777bb3;fill-opacity:1" />
      <g
         id="g4101"
         style="fill:#777bb3;fill-opacity:1" />
      <g
         id="g4103"
         style="fill:#777bb3;fill-opacity:1" />
      <g
         id="g4105"
         style="fill:#777bb3;fill-opacity:1" />
    </g>
    <g
       id="g4286">
      <text
         xml:space="preserve"
         style="font-size:31.75px;line-height:1.25;font-family:Alegreya;-inkscape-font-specification:Alegreya;fill:#777bb3;fill-opacity:1;stroke-width:0.265;stroke-miterlimit:4;stroke-dasharray:none"
         x="221.30014"
         y="73.26712"
         id="text4155"><tspan
           sodipodi:role="line"
           id="tspan4153"
           x="221.30014"
           y="73.26712"
           style="font-size:31.75px;fill:#777bb3;fill-opacity:1;stroke-width:0.265;stroke-miterlimit:4;stroke-dasharray:none">&lt;?php ... ?&gt;</tspan></text>
      <path
         fill="#231f20"
         d="m 371.83003,147.63767 -48.4505,-48.450494 c -1.30175,-1.30175 -3.39725,-1.30175 -4.66724,0 l -6.19126,6.159494 -11.52524,-11.525244 c 6.9215,-8.001 11.1125,-18.446751 11.1125,-29.876751 0,-25.209492 -20.447,-45.656496 -45.65651,-45.656496 -25.2095,0 -45.68825,20.447004 -45.68825,45.656496 0,25.209501 20.447,45.656495 45.6565,45.656495 11.43,0 21.87576,-4.191 29.87676,-11.112494 l 11.52524,11.525244 -6.1595,6.15951 c -1.87325,2.0955 -0.63499,4.06399 0,4.66724 l 48.4505,48.4505 c 8.66775,8.001 18.12924,3.556 21.68525,0 7.9375,-7.84225 4.03225,-17.653 0.0318,-21.6535 z m -105.37825,-44.6405 c -21.55825,0 -39.0525,-17.494243 -39.0525,-39.052495 0,-21.558252 17.49425,-39.0525 39.0525,-39.0525 21.55825,0 39.0525,17.494248 39.0525,39.0525 0,21.558252 -17.49425,39.052495 -39.0525,39.052495 z m 100.711,61.6585 c -3.39725,3.39725 -8.92175,3.39725 -12.319,0 l -46.13275,-46.13275 12.31901,-12.319 46.13274,46.101 c 4.88949,5.334 1.68275,10.63625 0,12.35075 z"
         id="path4139"
         style="fill:#000000;fill-opacity:1;stroke-width:0.3175" />
      <g
         id="g4227"
         transform="matrix(0.381,0,0,0.381,427.92564,38.860282)"
         style="fill:#777bb3;fill-opacity:1">
        <g
           id="g4167"
           style="fill:#777bb3;fill-opacity:1">
          <g
             id="g4165"
             style="fill:#777bb3;fill-opacity:1">
            <g
               id="g4163"
               style="fill:#777bb3;fill-opacity:1">
              <path
                 d="m 150.057,105.1 c -24.789,0 -44.955,20.167 -44.955,44.955 0,24.788 20.166,44.955 44.955,44.955 24.789,0 44.955,-20.167 44.955,-44.955 0,-24.788 -20.167,-44.955 -44.955,-44.955 z m 0,73.26 c -15.607,0 -28.305,-12.697 -28.305,-28.305 0,-15.608 12.697,-28.305 28.305,-28.305 15.608,0 28.305,12.697 28.305,28.305 0,15.608 -12.699,28.305 -28.305,28.305 z"
                 id="path4157"
                 style="fill:#777bb3;fill-opacity:1" />
              <path
                 d="m 297.365,183.342 -25.458,-22.983 v -20.608 l 25.457,-22.981 c 2.614,-2.361 3.461,-6.112 2.112,-9.366 L 285.871,74.558 c -1.348,-3.253 -4.588,-5.305 -8.115,-5.128 l -34.252,1.749 -14.571,-14.571 1.749,-34.251 c 0.18,-3.518 -1.874,-6.769 -5.128,-8.116 L 192.707,0.635 c -3.253,-1.35 -7.005,-0.501 -9.365,2.111 L 160.358,28.204 H 139.752 L 116.77,2.746 c -2.361,-2.613 -6.112,-3.458 -9.365,-2.111 L 74.559,14.24 c -3.255,1.348 -5.308,4.599 -5.128,8.116 l 1.75,34.251 -14.572,14.571 -34.252,-1.749 c -3.506,-0.188 -6.768,1.874 -8.115,5.128 L 0.635,107.403 c -1.348,3.255 -0.502,7.005 2.112,9.366 l 25.457,22.981 v 20.608 L 2.749,183.341 c -2.614,2.361 -3.461,6.112 -2.112,9.366 l 13.605,32.846 c 1.348,3.255 4.603,5.321 8.115,5.128 l 34.252,-1.749 14.572,14.571 -1.75,34.251 c -0.18,3.518 1.874,6.769 5.128,8.116 l 32.846,13.606 c 3.255,1.352 7.005,0.502 9.365,-2.111 l 22.984,-25.458 h 20.606 l 22.984,25.458 c 1.613,1.785 3.873,2.746 6.182,2.746 1.071,0 2.152,-0.208 3.183,-0.634 l 32.846,-13.606 c 3.255,-1.348 5.308,-4.599 5.128,-8.116 l -1.749,-34.251 14.571,-14.571 34.252,1.749 c 3.506,0.178 6.768,-1.874 8.115,-5.128 l 13.605,-32.846 c 1.348,-3.255 0.502,-7.005 -2.112,-9.366 z m -24.628,30.412 -32.079,-1.639 c -2.351,-0.127 -4.646,0.764 -6.311,2.428 l -19.804,19.804 c -1.666,1.666 -2.547,3.958 -2.428,6.311 l 1.638,32.079 -21.99,9.109 -21.525,-23.843 c -1.578,-1.747 -3.824,-2.746 -6.179,-2.746 h -28.006 c -2.355,0 -4.601,0.998 -6.179,2.746 l -21.525,23.843 -21.99,-9.109 1.639,-32.079 c 0.12,-2.353 -0.763,-4.646 -2.429,-6.311 L 65.766,214.543 c -1.665,-1.665 -3.955,-2.55 -6.311,-2.428 l -32.079,1.639 -9.109,-21.99 23.842,-21.525 c 1.748,-1.58 2.746,-3.824 2.746,-6.179 v -28.008 c 0,-2.355 -0.998,-4.601 -2.746,-6.179 l -23.842,-21.525 9.109,-21.99 32.079,1.639 c 2.354,0.124 4.646,-0.763 6.311,-2.428 L 85.569,65.766 c 1.666,-1.666 2.549,-3.958 2.429,-6.313 l -1.639,-32.079 21.99,-9.109 21.525,23.842 c 1.578,1.747 3.824,2.746 6.179,2.746 h 28.006 c 2.355,0 4.601,-0.998 6.179,-2.746 l 21.525,-23.842 21.99,9.109 -1.638,32.079 c -0.12,2.353 0.761,4.645 2.428,6.313 l 19.804,19.803 c 1.666,1.665 3.959,2.564 6.311,2.428 l 32.079,-1.639 9.109,21.99 -23.843,21.525 c -1.748,1.58 -2.746,3.824 -2.746,6.179 v 28.008 c 0,2.355 0.998,4.601 2.746,6.179 l 23.843,21.525 z"
                 id="path4159"
                 style="fill:#777bb3;fill-opacity:1" />
              <path
                 d="m 150.057,71.357 c -43.394,0 -78.698,35.305 -78.698,78.698 0,43.394 35.304,78.698 78.698,78.698 43.394,0 78.698,-35.305 78.698,-78.698 -0.001,-43.394 -35.305,-78.698 -78.698,-78.698 z m 0,140.746 c -34.214,0 -62.048,-27.834 -62.048,-62.048 0,-34.214 27.834,-62.048 62.048,-62.048 34.214,0 62.048,27.834 62.048,62.048 0,34.214 -27.836,62.048 -62.048,62.048 z"
                 id="path4161"
                 style="fill:#777bb3;fill-opacity:1" />
            </g>
          </g>
        </g>
        <g
           id="g4169"
           style="fill:#777bb3;fill-opacity:1" />
        <g
           id="g4171"
           style="fill:#777bb3;fill-opacity:1" />
        <g
           id="g4173"
           style="fill:#777bb3;fill-opacity:1" />
        <g
           id="g4175"
           style="fill:#777bb3;fill-opacity:1" />
        <g
           id="g4177"
           style="fill:#777bb3;fill-opacity:1" />
        <g
           id="g4179"
           style="fill:#777bb3;fill-opacity:1" />
        <g
           id="g4181"
           style="fill:#777bb3;fill-opacity:1" />
        <g
           id="g4183"
           style="fill:#777bb3;fill-opacity:1" />
        <g
           id="g4185"
           style="fill:#777bb3;fill-opacity:1" />
        <g
           id="g4187"
           style="fill:#777bb3;fill-opacity:1" />
        <g
           id="g4189"
           style="fill:#777bb3;fill-opacity:1" />
        <g
           id="g4191"
           style="fill:#777bb3;fill-opacity:1" />
        <g
           id="g4193"
           style="fill:#777bb3;fill-opacity:1" />
        <g
           id="g4195"
           style="fill:#777bb3;fill-opacity:1" />
        <g
           id="g4197"
           style="fill:#777bb3;fill-opacity:1" />
      </g>
      <rect
         style="fill:none;fill-opacity:1;stroke:#000000;stroke-width:3;stroke-miterlimit:4;stroke-dasharray:none;stroke-opacity:1"
         id="rect4229"
         width="453.26932"
         height="246.93849"
         x="165.20549"
         y="-27.437611" />
      <text
         xml:space="preserve"
         style="font-size:31.75px;line-height:1.25;font-family:Alegreya;-inkscape-font-specification:Alegreya;fill:#777bb3;fill-opacity:1;stroke-width:0.265;stroke-miterlimit:4;stroke-dasharray:none"
         x="464.86353"
         y="-39.175819"
         id="text4155-5"><tspan
           sodipodi:role="line"
           id="tspan4153-5"
           x="464.86353"
           y="-39.175819"
           style="font-size:31.75px;fill:#777bb3;fill-opacity:1;stroke-width:0.265;stroke-miterlimit:4;stroke-dasharray:none">PHP Parser</tspan></text>
      <rect
         style="fill:none;fill-opacity:1;stroke:#000000;stroke-width:3;stroke-miterlimit:4;stroke-dasharray:none;stroke-opacity:1"
         id="rect4255"
         width="163.01045"
         height="46.095188"
         x="455.46436"
         y="-73.532799" />
    </g>
    <path
       style="fill:none;fill-opacity:1;stroke:#000000;stroke-width:3;stroke-miterlimit:4;stroke-dasharray:none;stroke-opacity:1"
       d="m 48.89133,103.21503 c 0,0 106.31924,0 106.31924,0"
       id="path4288"
       inkscape:path-effect="#path-effect4290"
       inkscape:original-d="M 48.89133,103.21503 H 155.21057" />
    <path
       style="fill:none;fill-opacity:1;stroke:#000000;stroke-width:3;stroke-miterlimit:4;stroke-dasharray:none;stroke-opacity:1"
       d="m 346.11958,100.88687 c 0,0 77.60528,0 77.60528,0"
       id="path4294"
       inkscape:path-effect="#path-effect4296"
       inkscape:original-d="m 346.11958,100.88687 h 77.60528" />
    <path
       sodipodi:type="star"
       style="fill:#000000;fill-opacity:1;stroke:#000000;stroke-width:3;stroke-miterlimit:4;stroke-dasharray:none;stroke-opacity:1"
       id="path4301"
       sodipodi:sides="3"
       sodipodi:cx="147.47717"
       sodipodi:cy="103.02823"
       sodipodi:r1="10.701548"
       sodipodi:r2="5.3507738"
       sodipodi:arg1="0"
       sodipodi:arg2="1.0471976"
       inkscape:flatsided="false"
       inkscape:rounded="0"
       inkscape:randomized="0"
       d="m 158.17872,103.02823 -8.02616,4.6339 -8.02616,4.63391 v -9.26781 -9.267813 l 8.02616,4.633906 z"
       inkscape:transform-center-x="-2.675385"
       inkscape:transform-center-y="-1.2254026e-06" />
    <path
       sodipodi:type="star"
       style="fill:#000000;fill-opacity:1;stroke:#000000;stroke-width:3;stroke-miterlimit:4;stroke-dasharray:none;stroke-opacity:1"
       id="path4301-7"
       sodipodi:sides="3"
       sodipodi:cx="413.02332"
       sodipodi:cy="100.88687"
       sodipodi:r1="10.701548"
       sodipodi:r2="5.3507738"
       sodipodi:arg1="0"
       sodipodi:arg2="1.0471976"
       inkscape:flatsided="false"
       inkscape:rounded="0"
       inkscape:randomized="0"
       inkscape:transform-center-x="-2.675385"
       inkscape:transform-center-y="-1.2254026e-06"
       d="m 423.72486,100.88687 -8.02616,4.63391 -8.02616,4.6339 v -9.26781 -9.267811 l 8.02616,4.633906 z" />
  </g>
</svg>
