<?xml version="1.0" encoding="UTF-8" standalone="no"?>
<svg
   xmlns:dc="http://purl.org/dc/elements/1.1/"
   xmlns:cc="http://creativecommons.org/ns#"
   xmlns:rdf="http://www.w3.org/1999/02/22-rdf-syntax-ns#"
   xmlns:svg="http://www.w3.org/2000/svg"
   xmlns="http://www.w3.org/2000/svg"
   xmlns:sodipodi="http://sodipodi.sourceforge.net/DTD/sodipodi-0.dtd"
   xmlns:inkscape="http://www.inkscape.org/namespaces/inkscape"
   width="223.36595mm"
   height="171.68111mm"
   viewBox="0 0 223.36595 171.68111"
   version="1.1"
   id="svg3102"
   inkscape:version="1.0.2-2 (e86c870879, 2021-01-15)"
   sodipodi:docname="defaultParameter.svg">
  <defs
     id="defs3096">
    <inkscape:path-effect
       effect="bspline"
       id="path-effect5285"
       is_visible="true"
       lpeversion="1"
       weight="33.333333"
       steps="2"
       helper_size="0"
       apply_no_weight="true"
       apply_with_weight="true"
       only_selected="false" />
    <inkscape:path-effect
       effect="bspline"
       id="path-effect5281"
       is_visible="true"
       lpeversion="1"
       weight="33.333333"
       steps="2"
       helper_size="0"
       apply_no_weight="true"
       apply_with_weight="true"
       only_selected="false" />
    <inkscape:path-effect
       effect="bspline"
       id="path-effect5271"
       is_visible="true"
       lpeversion="1"
       weight="33.333333"
       steps="2"
       helper_size="0"
       apply_no_weight="true"
       apply_with_weight="true"
       only_selected="false" />
    <inkscape:path-effect
       effect="bspline"
       id="path-effect5265"
       is_visible="true"
       lpeversion="1"
       weight="33.333333"
       steps="2"
       helper_size="0"
       apply_no_weight="true"
       apply_with_weight="true"
       only_selected="false" />
    <inkscape:path-effect
       effect="bspline"
       id="path-effect5245"
       is_visible="true"
       lpeversion="1"
       weight="33.333333"
       steps="2"
       helper_size="0"
       apply_no_weight="true"
       apply_with_weight="true"
       only_selected="false" />
    <inkscape:path-effect
       effect="bspline"
       id="path-effect2438"
       is_visible="true"
       lpeversion="1"
       weight="33.333333"
       steps="2"
       helper_size="0"
       apply_no_weight="true"
       apply_with_weight="true"
       only_selected="false" />
    <inkscape:path-effect
       effect="bspline"
       id="path-effect2454"
       is_visible="true"
       lpeversion="1"
       weight="33.333333"
       steps="2"
       helper_size="0"
       apply_no_weight="true"
       apply_with_weight="true"
       only_selected="false" />
  </defs>
  <sodipodi:namedview
     id="base"
     pagecolor="#ffffff"
     bordercolor="#666666"
     borderopacity="1.0"
     inkscape:pageopacity="0.0"
     inkscape:pageshadow="2"
     inkscape:zoom="0.46940784"
     inkscape:cx="210.06463"
     inkscape:cy="128.69432"
     inkscape:document-units="mm"
     inkscape:current-layer="layer1"
     inkscape:document-rotation="0"
     showgrid="false"
     fit-margin-top="0"
     fit-margin-left="0"
     fit-margin-right="0"
     fit-margin-bottom="0"
     inkscape:window-width="1920"
     inkscape:window-height="1017"
     inkscape:window-x="-8"
     inkscape:window-y="-8"
     inkscape:window-maximized="1" />
  <metadata
     id="metadata3099">
    <rdf:RDF>
      <cc:Work
         rdf:about="">
        <dc:format>image/svg+xml</dc:format>
        <dc:type
           rdf:resource="http://purl.org/dc/dcmitype/StillImage" />
        <dc:title />
      </cc:Work>
    </rdf:RDF>
  </metadata>
  <g
     inkscape:label="Layer 1"
     inkscape:groupmode="layer"
     id="layer1"
     transform="translate(26.022293,0.54875225)">
    <rect
       style="fill:#1aafe0;fill-opacity:0.997059;stroke:none;stroke-width:1.08364;stroke-opacity:1"
       id="rect5277"
       width="222.74254"
       height="100.34975"
       x="-25.901224"
       y="-0.54875225" />
    <rect
       style="fill:#1a6e00;fill-opacity:0.997059;stroke-width:2.73755"
       id="rect3669"
       width="222.84683"
       height="70.5429"
       x="-25.901224"
       y="99.408821" />
    <rect
       style="fill:#ffffff;fill-opacity:0.997059;stroke-width:1.02512"
       id="rect3671"
       width="223.36595"
       height="13.728692"
       x="-26.022293"
       y="124.50504" />
    <path
       style="fill:#ffffff;fill-opacity:0.997059;stroke-width:1"
       d="m 85.626799,136.75434 -5.349304,34.37802 h 25.764815 l -6.36928,-34.09105 v 0 z"
       id="path3673"
       sodipodi:nodetypes="cccccc" />
    <g
       id="g4793"
       transform="translate(88.999799,97.047653)">
      <circle
         style="fill:#777bb3;fill-opacity:1;stroke-width:0.913517"
         id="path3741"
         cx="-52.34441"
         cy="45.370071"
         r="16.071098" />
      <g
         id="g3736"
         transform="matrix(0.03429,0,0,0.03429,-68.606525,28.968102)">
        <g
           id="g3679">
          <g
             id="g3677">
            <path
               d="M 812.55,139.4 C 768.85,95.7 717.95,61.4 661.25,37.4 602.55,12.6 540.25,0 475.95,0 c -64.2,0.1 -126.5,12.6 -185.2,37.5 -56.7,24 -107.6,58.3 -151.3,102 -43.7,43.7 -78,94.6 -102,151.3 -24.8,58.7 -37.4,121 -37.4,185.3 0,64.201 12.6,126.6 37.4,185.301 24,56.699 58.3,107.6 102,151.299 43.7,43.701 94.6,78 151.3,102 58.7,24.801 121,37.4 185.3,37.4 64.2,0 126.601,-12.6 185.3,-37.4 56.7,-24 107.601,-58.299 151.301,-102 43.699,-43.699 78,-94.6 102,-151.299 24.8,-58.701 37.399,-121 37.399,-185.301 0,-64.2 -12.6,-126.6 -37.399,-185.3 C 890.55,234 856.25,183.2 812.55,139.4 Z m -600,-31.9 c 4.3,-3.3 8.5,-6.8 12.9,-9.9 23.1,-16.2 48.7,-29.3 74.7,-40.2 55.4,-23.2 115.6,-35.4 175.8,-35.4 40.1,0 81.2,5.4 119.899,16 -15.3,6.2 -34,18 -65.399,44.8 -26.101,-2.8 -52.5,-2.9 -79,-0.4 -34.601,3.3 -69.4,11 -103.4,23 -30.7,10.8 -55,23.1 -71.4,32.5 -25.1,-9 -57.5,-19.6 -73.5,-24.8 2.5,0.8 7.7,-4.3 9.4,-5.6 z m 433.6,119 -81.4,222.2 -195.3,37.5 -161.4,-166.7 c 10.9,-75.6 62.7,-142.6 62.7,-142.6 0.3,-0.2 34.1,-24.6 88.3,-43.5 31.601,-11.1 63.8,-18.2 95.9,-21.2 26.2,-2.4 52.3,-2 78.1,1.1 z M 39.35,460.2 c -5,32.3 -6.1,65.8 -3.5,99.5 -3.9,-7.799 -7,-14.398 -9.3,-19.699 -3,-20.9 -4.5,-42.301 -4.5,-64.1 0,-67 14.5,-130.7 40.6,-188 -2.9,30 -1.5,61.1 0.6,84.7 C 52.05,400.7 44.05,430 39.35,460.2 Z m 39.5,173.101 c -4.6,-16.9 -10,-41.5 -12.7,-71 -3,-33.301 -2.1,-66.4 2.9,-98.101 3.8,-24.3 9.9,-47.899 18.3,-70.6 32.9,-27.8 76.5,-44.1 100.6,-51.6 l 158.4,163.6 -16.6,179.3 -154.8,51.7 c -39.4,-29 -71.6,-67.401 -96.1,-103.299 z M 549.25,892.9 c -34.5,22.6 -121.7,28 -157.1,29.299 -39,-7.299 -76.9,-19.799 -112.601,-37 -31.2,-15 -60.8,-33.6 -87.8,-55.398 0.5,-0.9 -4.2,-48.602 -4,-66 l 156.4,-52.201 180.5,78.1 24.899,102.9 c -0.198,0.201 -0.298,0.3 -0.298,0.3 z m 299.9,-158.3 c -26.9,38.8 -59.1,74.9 -97.8,102.3 -36.3,25.6 -84.899,34.4 -128.1,41.5 -3.3,0.5 -44.6,7.299 -44.9,5.9 L 553.451,781.3 680.55,649 848.85,633.5 c 2.601,26.801 6,65.9 8,89.801 -2.6,3.799 -5.1,7.599 -7.7,11.299 z m 2.6,-134.6 c -0.6,1 -1.2,2.1 -1.8,3.301 l -167.6,15.398 -90.2,-157.799 81.6,-222.7 115.2,7.3 c 24.5,20.5 46.2,43.3 64.6,67.9 23,30.9 40.9,64.8 53.101,100.7 C 893.85,525.301 864.35,580.699 851.75,600 Z m 60.1,-250.2 c -9.899,-19.1 -21.5,-37.5 -34.6,-55 -20.7,-27.7 -45.3,-53.2 -73.2,-75.9 -5.1,-25.3 -19.1,-65.1 -56.7,-106.9 0.7,0.5 1.4,1.1 2.101,1.6 2.3,1.7 4.5,3.5 6.8,5.2 25.9,20.4 49.5,43.5 70.4,68.9 38.8,47.3 68.1,102.2 85.3,161.1 -0.101,0.4 -0.101,0.7 -0.101,1 z"
               id="path3675" />
          </g>
        </g>
        <g
           id="g3681" />
        <g
           id="g3683" />
        <g
           id="g3685" />
        <g
           id="g3687" />
        <g
           id="g3689" />
        <g
           id="g3691" />
        <g
           id="g3693" />
        <g
           id="g3695" />
        <g
           id="g3697" />
        <g
           id="g3699" />
        <g
           id="g3701" />
        <g
           id="g3703" />
        <g
           id="g3705" />
        <g
           id="g3707" />
        <g
           id="g3709" />
      </g>
    </g>
    <g
       id="g4813"
       transform="matrix(0.19431627,0,0,0.19431627,77.394457,49.488857)">
      <polyline
         style="fill:#777bb3;fill-opacity:1"
         points="397.24,233.49 37.75,233.49 41.446,212.49 393.544,212.49 397.24,233.49  "
         id="polyline4795" />
      <polyline
         style="fill:#4d5f9a;fill-opacity:1"
         points="384.24,212.49 355.742,212.49 359.241,233.49 387.74,233.49 384.24,212.49  "
         id="polyline4797" />
      <polyline
         style="fill:#777bb3;fill-opacity:1"
         points="425.98,309.99 400.48,309.99 387.74,233.49 374.99,156.99 400.48,156.99 425.98,309.99     "
         id="polyline4799" />
      <polyline
         style="fill:#777bb3;fill-opacity:1"
         points="60,156.99 34.5,309.99 9,309.99 34.5,156.99 60,156.99  "
         id="polyline4801" />
      <path
         style="fill:#a5a5a5"
         d="m 60,156.99 -4,23.999 v 0 l 4,-23.999 m 0,0 H 34.5 l -4,23.999 4,-23.999 H 60"
         id="path4803" />
      <polyline
         style="fill:#4d5f9a;fill-opacity:1"
         points="60,156.99 34.5,156.99 30.501,180.989 56,180.989 60,156.99  "
         id="polyline4805" />
      <path
         style="fill:#a5a5a5"
         d="m 374.99,156.99 4,23.999 -4,-23.999 m 25.49,0 h -25.49 25.49 l 4,23.999 h 10e-4 L 400.48,156.99"
         id="path4807" />
      <polyline
         style="fill:#4d5f9a;fill-opacity:1"
         points="400.48,156.99 374.99,156.99 378.99,180.989 404.48,180.989 400.48,156.99  "
         id="polyline4809" />
      <path
         style="fill:#777bb3;fill-opacity:1"
         d="M 434.98,139.303 V 160.99 H 400.48 374.99 60 34.5 0 V 139.303 C 0,131.398 6.408,124.99 14.313,124.99 h 406.354 c 7.905,0 14.313,6.408 14.313,14.313 z"
         id="path4811" />
    </g>
    <g
       aria-label="&quot;text&quot;"
       id="text2540"
       style="font-size:14.1111px;line-height:1.25;font-family:Alegreya;-inkscape-font-specification:Alegreya;fill:#000000;fill-opacity:1;stroke-width:0.264583"
       transform="translate(133.27783,-144.86575)">
      <g
         id="g1389"
         transform="matrix(0.13546666,0,0,0.13546666,-134.64453,204.23435)">
        <path
           style="fill:#777bb3;fill-opacity:1;stroke-width:0.265748;stroke-miterlimit:4;stroke-dasharray:none"
           d="m 454.028,227.293 v 166.725 c -21.682,0 -39.269,17.576 -39.269,39.269 H 114.452 c 0,-21.693 -17.587,-39.269 -39.269,-39.269 V 258.317 236.438 204.59 c 21.682,0 39.269,-17.576 39.269,-39.269 h 51.817 30.19 136.294 24.811 57.196 c 0,21.693 17.587,39.269 39.269,39.269 z"
           id="path1286" />
        <path
           style="fill:#4d5f9a;fill-opacity:1"
           d="m 110.992,406.829 v -12.812 -135.7 -21.879 -31.848 -12.811 c 0,-14.612 11.845,-26.457 26.457,-26.457 h -22.997 -12.811 c -14.612,0 -26.457,11.845 -26.457,26.457 v 12.811 31.848 21.879 135.701 12.812 c 0,14.612 11.845,26.457 26.457,26.457 h 12.811 22.997 c -14.612,0 -26.457,-11.846 -26.457,-26.458 z"
           id="path1288" />
        <rect
           x="196.45399"
           y="104.239"
           style="fill:#777bb3;fill-opacity:1"
           width="136.29401"
           height="30.541"
           id="rect1290" />
        <rect
           x="196.45399"
           y="104.239"
           style="fill:#4d5f9a;fill-opacity:1"
           width="26.611"
           height="30.541"
           id="rect1292" />
        <path
           style="fill:#f95428"
           d="m 454.028,394.018 v 12.812 c 0,14.612 -11.845,26.457 -26.457,26.457 h -12.812 c 0,-21.693 17.587,-39.269 39.269,-39.269 z"
           id="path1294" />
        <g
           id="g1300">
          <path
             style="fill:#e54728"
             d="m 114.452,433.287 h -12.811 c -14.612,0 -26.457,-11.845 -26.457,-26.457 v -12.812 c 21.681,0 39.268,17.576 39.268,39.269 z"
             id="path1296" />
          <path
             style="fill:#e54728"
             d="m 101.641,165.321 h 12.811 c 0,21.693 -17.587,39.269 -39.269,39.269 v -12.811 c 0,-14.613 11.846,-26.458 26.458,-26.458 z"
             id="path1298" />
        </g>
        <path
           style="fill:#f95428"
           d="m 454.028,191.778 v 12.811 c -21.682,0 -39.269,-17.576 -39.269,-39.269 h 12.812 c 14.612,0.001 26.457,11.846 26.457,26.458 z"
           id="path1302" />
        <polygon
           style="fill:#ffd94a;fill-opacity:1"
           points="75.183,236.437 75.183,258.317 8.238,213.592 32.182,177.748 "
           id="polygon1304" />
        <g
           id="g1310">
          <path
             style="fill:#ffd94a;fill-opacity:1"
             d="m 102.793,78.714 63.476,86.607 H 114.452 101.64 c -14.612,0 -26.457,11.845 -26.457,26.457 v 12.811 31.848 L 32.182,177.748 9.633,146.987 Z"
             id="path1306" />
          <path
             style="fill:#ffd94a;fill-opacity:1"
             d="m 503.77,161.259 -49.742,66.034 V 204.59 191.779 c 0,-14.612 -11.845,-26.457 -26.457,-26.457 H 414.759 357.563 L 412.432,92.46 Z"
             id="path1308" />
        </g>
        <g
           id="g1316" />
        <path
           style="fill:#333333"
           d="m 511.92,160.106 c -0.304,-2.163 -1.456,-4.116 -3.2,-5.429 L 417.381,85.882 c -1.744,-1.314 -3.937,-1.879 -6.102,-1.576 -2.163,0.304 -4.116,1.456 -5.429,3.2 l -52.393,69.578 h -12.47 v -52.848 c 0,-4.547 -3.686,-8.234 -8.234,-8.234 H 196.46 c -4.547,0 -8.234,3.686 -8.234,8.234 v 52.848 H 170.441 L 109.438,73.847 c -2.686,-3.668 -7.839,-4.463 -11.507,-1.774 L 4.765,140.349 c -1.761,1.291 -2.938,3.229 -3.27,5.387 -0.332,2.158 0.206,4.361 1.497,6.123 l 19.136,26.113 -20.74,31.044 c -2.526,3.781 -1.508,8.895 2.272,11.419 l 63.285,42.278 v 144.112 c 0,19.132 15.565,34.695 34.695,34.695 h 325.927 c 19.132,0 34.695,-15.565 34.695,-34.695 V 230.04 l 48.079,-63.834 c 1.317,-1.742 1.883,-3.937 1.579,-6.1 z m -66.122,35.135 c -10.505,-2.895 -18.792,-11.182 -21.686,-21.687 h 3.458 c 10.05,0 18.228,8.178 18.228,18.228 z m -38.542,-21.687 c 3.442,19.605 18.937,35.1 38.542,38.542 v 174.415 c -19.605,3.442 -35.1,18.937 -38.542,38.542 H 121.957 c -3.442,-19.605 -18.937,-35.1 -38.542,-38.542 V 212.096 c 19.605,-3.442 35.1,-18.937 38.542,-38.542 z M 83.414,195.241 v -3.458 c 0,-10.052 8.178,-18.228 18.228,-18.228 h 3.458 c -2.894,10.504 -11.18,18.791 -21.686,21.686 z m 241.105,-82.77 v 14.074 H 204.692 v -14.074 z m -119.827,30.541 h 119.826 v 14.073 H 204.692 Z m -103.67,-52.789 49.001,66.862 h -48.381 c -19.132,0 -34.695,15.565 -34.695,34.695 v 19.488 L 21.142,148.761 Z m -81.367,121.093 12.832,-19.21 34.459,47.023 v 3.781 z m 63.759,195.509 v -3.458 c 10.506,2.895 18.792,11.181 21.687,21.687 h -3.458 c -10.052,0 -18.229,-8.178 -18.229,-18.229 z m 344.156,18.229 h -3.458 c 2.895,-10.505 11.181,-18.792 21.686,-21.687 v 3.458 c 0,10.051 -8.178,18.229 -18.228,18.229 z M 462.265,202.67 v -10.888 c 0,-19.132 -15.564,-34.695 -34.695,-34.695 h -53.5 l 39.981,-53.095 78.185,58.887 z"
           id="path1318" />
        <g
           id="g1320" />
        <g
           id="g1322" />
        <g
           id="g1324" />
        <g
           id="g1326" />
        <g
           id="g1328" />
        <g
           id="g1330" />
        <g
           id="g1332" />
        <g
           id="g1334" />
        <g
           id="g1336" />
        <g
           id="g1338" />
        <g
           id="g1340" />
        <g
           id="g1342" />
        <g
           id="g1344" />
        <g
           id="g1346" />
        <g
           id="g1348" />
      </g>
      <g
         id="g2450"
         transform="translate(-46.175145,120.67622)"
         style="fill:#ffffff;fill-opacity:1">
        <text
           xml:space="preserve"
           style="font-size:6.35px;line-height:1.25;font-family:Alegreya;-inkscape-font-specification:Alegreya;stroke-width:0.0700042"
           x="-75.399506"
           y="127.06195"
           id="text5261"><tspan
             sodipodi:role="line"
             id="tspan5259"
             x="-75.399506"
             y="127.06195"
             style="font-size:7.76111px;stroke-width:0.0700042">&quot;Default Value&quot;</tspan></text>
        <path
           style="fill:#ffffff;fill-opacity:1;stroke:none;stroke-width:1;stroke-opacity:1"
           d="m -36.537022,36.832108 7.554483,-8.201016 7.791106,5.401948 15.1309362,-2.667992 12.526153,9.911045 5.5549848,31.062025 -30.685544,5.410689 -12.569308,-10.842958 z"
           id="path5267" />
      </g>
    </g>
    <g
       id="g2374"
       transform="matrix(-0.04594441,-0.26056371,0.26056371,-0.04594441,43.452915,60.660216)"
       style="fill:#ffffff;fill-opacity:1">
      <g
         id="g2316"
         style="fill:#ffffff;fill-opacity:1">
        <g
           id="g2314"
           style="fill:#ffffff;fill-opacity:1">
          <rect
             x="49.011093"
             y="118.69357"
             style="fill:#000000;fill-opacity:1"
             width="40.047001"
             height="4.4840002"
             id="rect2310" />
          <path
             style="fill:#000000;fill-opacity:1"
             d="m 199.62567,91.489793 -25.209,-33.437 0.075,-0.064 h -0.125 l -0.115,-0.15 -0.193,0.15 H 58.640666 l -48.608,38.167999 v 1.5 l -9.73099965,29.689998 9.73099965,-7.086 v 95.162 H 129.29467 v -0.29 l 45.111,-40.119 v -58.07 z m -5.93,-0.397 -39.94,40.290997 -23.832,-32.570998 41.168,-37.709999 z M 60.229666,62.475793 H 162.94667 l -36.766,33.683999 H 18.618666 Z M 124.80667,210.93379 H 14.527666 v -110.279 H 124.80667 Z m 45.107,-37.946 -40.624,36.125 v -103.565 l 23.946,32.739 16.674,-16.821 v 51.521 h 0.004 z"
             id="path2312" />
        </g>
      </g>
      <g
         id="g2318"
         style="fill:#ffffff;fill-opacity:1" />
      <g
         id="g2320"
         style="fill:#ffffff;fill-opacity:1" />
      <g
         id="g2322"
         style="fill:#ffffff;fill-opacity:1" />
      <g
         id="g2324"
         style="fill:#ffffff;fill-opacity:1" />
      <g
         id="g2326"
         style="fill:#ffffff;fill-opacity:1" />
      <g
         id="g2328"
         style="fill:#ffffff;fill-opacity:1" />
      <g
         id="g2330"
         style="fill:#ffffff;fill-opacity:1" />
      <g
         id="g2332"
         style="fill:#ffffff;fill-opacity:1" />
      <g
         id="g2334"
         style="fill:#ffffff;fill-opacity:1" />
      <g
         id="g2336"
         style="fill:#ffffff;fill-opacity:1" />
      <g
         id="g2338"
         style="fill:#ffffff;fill-opacity:1" />
      <g
         id="g2340"
         style="fill:#ffffff;fill-opacity:1" />
      <g
         id="g2342"
         style="fill:#ffffff;fill-opacity:1" />
      <g
         id="g2344"
         style="fill:#ffffff;fill-opacity:1" />
      <g
         id="g2346"
         style="fill:#ffffff;fill-opacity:1" />
    </g>
    <path
       style="fill:none;fill-opacity:1;stroke:#000000;stroke-width:1;stroke-opacity:1"
       d="m 83.95909,117.1586 8.780037,-5.7619 4.664392,-37.863902 20.852581,-3.292512 22.49884,3.018136 5.48753,37.589528 9.05441,6.8594"
       id="path5241" />
    <path
       style="fill:none;fill-opacity:1;stroke:#000000;stroke-width:1;stroke-opacity:1"
       d="m 118.2561,70.240286 c -0.36582,-8.322468 -0.73165,-16.645209 -1.55476,-23.184535 -0.8231,-6.539325 -2.1035,-11.295085 -5.81128,-13.6016 -3.70778,-2.306515 -9.61141,-2.16878 -15.631127,-2.028337"
       id="path5243"
       inkscape:path-effect="#path-effect5245"
       inkscape:original-d="m 118.2561,70.240286 c -0.36557,-8.322479 -0.7314,-16.64522 -1.0975,-24.968226 -1.28018,-4.755684 -2.56058,-9.511443 -3.84127,-14.267558 -6.13504,0.143405 -12.03867,0.281139 -18.058397,0.421312"
       sodipodi:nodetypes="cccc" />
    <path
       style="fill:none;fill-opacity:1;stroke:#000000;stroke-width:1;stroke-opacity:1"
       d="M 112.91569,37.250536 84.007721,73.531007 80.260952,51.423252"
       id="path5247"
       sodipodi:nodetypes="ccc" />
    <path
       style="fill:none;fill-opacity:1;stroke:#000000;stroke-width:1;stroke-opacity:1"
       d="m 112.91569,37.250536 24.05764,5.626383 -1.16408,28.325929 -3.83176,3.637749"
       id="path5249"
       sodipodi:nodetypes="cccc" />
    <path
       style="fill:none;fill-opacity:1;stroke:#000000;stroke-width:1;stroke-opacity:1"
       d="m 135.80925,71.202848 0.26676,3.492238"
       id="path5251"
       sodipodi:nodetypes="cc" />
    <path
       style="fill:none;fill-opacity:1;stroke:#000000;stroke-width:1;stroke-opacity:1"
       d="m 135.80925,71.202848 3.63774,3.613496"
       id="path5253"
       sodipodi:nodetypes="cc" />
    <path
       style="fill:none;fill-opacity:1;stroke:#000000;stroke-width:1;stroke-opacity:1"
       d="m 75.022596,48.707066 5.238356,2.716186 0.06266,-3.681807"
       id="path5255" />
    <path
       style="fill:none;fill-opacity:1;stroke:#000000;stroke-width:1;stroke-opacity:1"
       d="m 80.260952,51.423252 4.932831,-4.024778"
       id="path5257" />
    <path
       style="fill:none;fill-opacity:1;stroke:#ffda4b;stroke-width:1;stroke-opacity:1"
       d="m 63.864487,30.149514 c -7.660548,-0.08084 -15.321363,-0.161675 -20.615141,-0.202096 -5.293777,-0.04042 -8.220397,-0.04042 -9.683869,1.331619 -1.463473,1.372041 -1.463473,4.115746 -1.465671,15.214229 -0.0022,11.098484 -0.0066,30.550909 -0.01099,50.003461"
       id="path5269"
       inkscape:path-effect="#path-effect5271"
       inkscape:original-d="M 63.864487,30.149514 C 56.203936,30.068939 48.543121,29.9881 40.88204,29.906997 c -2.926471,2.64e-4 -5.853091,2.64e-4 -8.780036,0 2.64e-4,2.744081 2.64e-4,5.487786 0,8.231282 -0.0041,19.453471 -0.0085,38.905896 -0.01319,58.358448"
       sodipodi:nodetypes="ccccc" />
    <text
       xml:space="preserve"
       style="font-size:14.1111px;line-height:1.25;font-family:Alegreya;-inkscape-font-specification:Alegreya;stroke-width:0.264583"
       x="-64.266014"
       y="77.183792"
       id="text5275"
       transform="rotate(-104)"><tspan
         sodipodi:role="line"
         id="tspan5273"
         x="-64.266014"
         y="77.183792"
         style="font-size:14.1111px;stroke-width:0.264583">box</tspan></text>
    <path
       style="fill:#fffffc;fill-opacity:0.997059;stroke:none;stroke-width:1;stroke-opacity:1"
       d="m 130.07721,15.410962 c 0.5258,-1.463491 2.10343,-3.292627 4.17286,-4.207242 2.06944,-0.914616 4.63024,-0.914616 6.68809,-0.274274 2.05784,0.640341 3.61261,1.92074 4.57277,1.211901 0.96016,-0.708838 1.32599,-3.4068164 3.40683,-5.0989401 2.08085,-1.6921237 5.87631,-2.3780508 9.23749,-1.9435042 3.36119,0.4345465 6.28781,1.9893128 8.52853,3.6813758 2.24072,1.6920625 3.79549,3.5212025 5.51037,4.4585155 1.71489,0.937313 3.58975,0.983041 6.01337,0.457113 2.42362,-0.525928 5.39597,-1.62341 7.45378,-0.297038 2.05781,1.326373 3.20102,5.076105 2.5379,7.865439 -0.66313,2.789334 -3.13247,4.618473 -8.40272,4.607074 -5.27026,-0.0114 -13.34117,-1.863364 -18.12016,-1.497515 -4.77899,0.36585 -6.26516,2.949503 -9.13459,4.515683 -2.86942,1.566181 -7.12217,2.114922 -10.14032,1.291929 -3.01815,-0.822993 -4.80155,-3.017959 -5.53336,-4.572832 -0.73181,-1.554874 -0.41172,-2.469426 -0.65163,-3.246798 -0.23992,-0.777373 -1.04015,-1.417563 -2.06907,-1.943525 -1.02892,-0.525961 -2.28642,-0.937507 -3.17824,-1.691952 -0.89183,-0.754444 -1.41771,-1.851919 -0.8919,-3.31541 z"
       id="path5279"
       inkscape:path-effect="#path-effect5281"
       inkscape:original-d="m 129.02536,15.776627 c 1.57793,-1.828912 3.15556,-3.658048 4.73299,-5.487523 2.56116,2.65e-4 5.12196,2.65e-4 7.68254,0 1.55509,1.280712 3.10986,2.561109 4.66439,3.841266 0.36611,-2.697821 0.73194,-5.3957991 1.09751,-8.0940955 3.79587,-0.6856894 7.59133,-1.3716159 11.3866,-2.057821 2.927,1.5550939 5.85362,3.1098606 8.78004,4.6643941 1.55509,1.8294754 3.10986,3.6586124 4.66439,5.4875224 1.87521,0.046 3.75007,0.09172 5.62471,0.137188 2.97273,-1.097262 5.94508,-2.194744 8.91723,-3.292513 1.14352,3.750146 2.28673,7.499878 3.4297,11.24942 -2.46917,1.829475 -4.93851,3.658613 -7.40816,5.487522 -8.07112,-1.851809 -16.14203,-3.703776 -24.21369,-5.556116 -1.48597,2.584025 -2.97214,5.167679 -4.45861,7.751126 -4.25265,0.549026 -8.5054,1.097769 -12.75849,1.646256 -1.78322,-2.194788 -3.56663,-4.389753 -5.35033,-6.585027 0.32038,-0.91434 0.64047,-1.828892 0.96031,-2.743761 -0.80001,-0.639958 -1.60025,-1.280146 -2.40079,-1.920633 -1.25732,-0.411307 -2.51482,-0.822854 -3.77267,-1.234692 -0.52564,-1.097265 -1.05151,-2.194743 -1.57767,-3.292513 z"
       sodipodi:nodetypes="cccccccccccccccccccc" />
    <path
       style="fill:#fffffc;fill-opacity:0.997059;stroke:none;stroke-width:1;stroke-opacity:1"
       d="m -13.169915,18.154679 c -1.646131,-0.594344 -3.841139,-2.789352 -3.018055,-4.893081 0.823083,-2.103728 4.664272,-4.1157796 7.8654468,-4.069885 3.2011747,0.045895 5.7619672,2.149403 8.45995394,2.652269 C 2.8354175,12.346849 5.6705807,11.249366 8.5972611,9.8317417 11.523942,8.4141173 14.542019,6.6764366 17.560296,6.813771 c 3.018278,0.1373344 6.036354,2.1493859 7.453799,4.161515 1.417445,2.012129 1.234531,4.02418 -0.731751,5.3502 -1.966282,1.32602 -5.716013,1.966219 -8.414184,3.38389 -2.698171,1.417671 -4.344395,3.612636 -7.4081484,4.52721 -3.0637535,0.914574 -7.54514031,0.548746 -10.3346821,-0.457175 -2.7895418,-1.005921 -3.8870244,-2.652145 -4.8473258,-3.93259 -0.9603015,-1.280445 -1.783413,-2.195013 -2.7438595,-2.149418 -0.9604462,0.04559 -2.0579292,1.05162 -3.7040592,0.457276 z"
       id="path5283"
       inkscape:path-effect="#path-effect5285"
       inkscape:original-d="m -12.621301,19.75508 c -2.194745,-2.194744 -4.389753,-4.389753 -6.585027,-6.585027 3.841607,-2.011867 7.682796,-4.0239179 11.5237967,-6.0362742 C -5.1213715,9.2376357 -2.5605791,11.341144 0,13.44443 2.8355411,12.347168 5.6707042,11.249685 8.5056595,10.151916 11.524122,8.4144307 14.542199,6.67675 17.560071,4.9387701 c 3.018462,2.0123962 6.036539,4.0244474 9.054411,6.0362749 -0.182655,2.012396 -0.365569,4.024447 -0.548751,6.036274 -3.749618,0.640488 -7.499349,1.280687 -11.249421,1.920633 -1.646025,2.195317 -3.292249,4.390282 -4.93877,6.585027 -4.4813016,-0.365578 -8.96268837,-0.731406 -13.4444294,-1.097505 -1.097262,-1.646025 -2.1947444,-3.292249 -3.2925133,-4.93877 -0.8228804,-0.914341 -1.6459922,-1.828909 -2.4693851,-2.743761 -1.0972622,1.00633 -2.1947442,2.012356 -3.2925132,3.018137 z" />
  </g>
</svg>
