<?xml version="1.0" encoding="UTF-8" standalone="no"?>
<svg
   xmlns:dc="http://purl.org/dc/elements/1.1/"
   xmlns:cc="http://creativecommons.org/ns#"
   xmlns:rdf="http://www.w3.org/1999/02/22-rdf-syntax-ns#"
   xmlns:svg="http://www.w3.org/2000/svg"
   xmlns="http://www.w3.org/2000/svg"
   xmlns:xlink="http://www.w3.org/1999/xlink"
   xmlns:sodipodi="http://sodipodi.sourceforge.net/DTD/sodipodi-0.dtd"
   xmlns:inkscape="http://www.inkscape.org/namespaces/inkscape"
   width="207.39835mm"
   height="156.96188mm"
   viewBox="0 0 207.39834 156.96189"
   version="1.1"
   id="svg1331"
   inkscape:version="1.0.2-2 (e86c870879, 2021-01-15)"
   sodipodi:docname="rabbithole.svg">
  <defs
     id="defs1325">
    <inkscape:path-effect
       effect="bspline"
       id="path-effect2028"
       is_visible="true"
       lpeversion="1"
       weight="33.333333"
       steps="2"
       helper_size="0"
       apply_no_weight="true"
       apply_with_weight="true"
       only_selected="false" />
    <inkscape:path-effect
       effect="bspline"
       id="path-effect2024"
       is_visible="true"
       lpeversion="1"
       weight="33.333333"
       steps="2"
       helper_size="0"
       apply_no_weight="true"
       apply_with_weight="true"
       only_selected="false" />
    <inkscape:path-effect
       effect="bspline"
       id="path-effect2020"
       is_visible="true"
       lpeversion="1"
       weight="33.333333"
       steps="2"
       helper_size="0"
       apply_no_weight="true"
       apply_with_weight="true"
       only_selected="false" />
    <inkscape:path-effect
       effect="bspline"
       id="path-effect2016"
       is_visible="true"
       lpeversion="1"
       weight="33.333333"
       steps="2"
       helper_size="0"
       apply_no_weight="true"
       apply_with_weight="true"
       only_selected="false" />
    <inkscape:path-effect
       effect="bspline"
       id="path-effect2012"
       is_visible="true"
       lpeversion="1"
       weight="33.333333"
       steps="2"
       helper_size="0"
       apply_no_weight="true"
       apply_with_weight="true"
       only_selected="false" />
    <filter
       inkscape:collect="always"
       style="color-interpolation-filters:sRGB"
       id="filter1167"
       x="-0.20980528"
       width="1.4196106"
       y="-0.20980528"
       height="1.4196106">
      <feGaussianBlur
         inkscape:collect="always"
         stdDeviation="2.189098"
         id="feGaussianBlur1169" />
    </filter>
    <filter
       inkscape:collect="always"
       style="color-interpolation-filters:sRGB"
       id="filter1303"
       x="-0.072708428"
       width="1.1454169"
       y="-0.07990665"
       height="1.1598133">
      <feGaussianBlur
         inkscape:collect="always"
         stdDeviation="2.1640802"
         id="feGaussianBlur1305" />
    </filter>
    <inkscape:path-effect
       effect="bspline"
       id="path-effect869"
       is_visible="true"
       lpeversion="1"
       weight="33.333333"
       steps="2"
       helper_size="0"
       apply_no_weight="true"
       apply_with_weight="true"
       only_selected="false" />
    <inkscape:perspective
       sodipodi:type="inkscape:persp3d"
       inkscape:vp_x="0 : 540.14259 : 1"
       inkscape:vp_y="0 : 1000 : 0"
       inkscape:vp_z="744.09452 : 540.14259 : 1"
       inkscape:persp3d-origin="372.04726 : 364.74888 : 1"
       id="perspective14675" />
    <inkscape:perspective
       id="perspective14646"
       inkscape:persp3d-origin="0.50000003 : 14.294821 : 1"
       inkscape:vp_z="1.0000001 : 14.461488 : 1"
       inkscape:vp_y="0 : 1000 : 0"
       inkscape:vp_x="0 : 14.461488 : 1"
       sodipodi:type="inkscape:persp3d" />
    <linearGradient
       inkscape:collect="always"
       xlink:href="#linearGradient3884"
       id="linearGradient5000"
       gradientUnits="userSpaceOnUse"
       x1="268.98013"
       y1="534.19055"
       x2="239.375"
       y2="572.36218" />
    <linearGradient
       inkscape:collect="always"
       id="linearGradient3884">
      <stop
         style="stop-color:#ffffff;stop-opacity:1;"
         offset="0"
         id="stop3886" />
      <stop
         style="stop-color:#ffffff;stop-opacity:0;"
         offset="1"
         id="stop3888" />
    </linearGradient>
    <inkscape:perspective
       id="perspective14827"
       inkscape:persp3d-origin="0.50000003 : 14.294821 : 1"
       inkscape:vp_z="1.0000001 : 14.461488 : 1"
       inkscape:vp_y="0 : 1000 : 0"
       inkscape:vp_x="0 : 14.461488 : 1"
       sodipodi:type="inkscape:persp3d" />
    <inkscape:perspective
       id="perspective14849"
       inkscape:persp3d-origin="0.50000003 : 14.294821 : 1"
       inkscape:vp_z="1.0000001 : 14.461488 : 1"
       inkscape:vp_y="0 : 1000 : 0"
       inkscape:vp_x="0 : 14.461488 : 1"
       sodipodi:type="inkscape:persp3d" />
    <inkscape:perspective
       id="perspective14883"
       inkscape:persp3d-origin="0.50000003 : 14.294821 : 1"
       inkscape:vp_z="1.0000001 : 14.461488 : 1"
       inkscape:vp_y="0 : 1000 : 0"
       inkscape:vp_x="0 : 14.461488 : 1"
       sodipodi:type="inkscape:persp3d" />
    <inkscape:perspective
       id="perspective14910"
       inkscape:persp3d-origin="0.50000003 : 14.294821 : 1"
       inkscape:vp_z="1.0000001 : 14.461488 : 1"
       inkscape:vp_y="0 : 1000 : 0"
       inkscape:vp_x="0 : 14.461488 : 1"
       sodipodi:type="inkscape:persp3d" />
  </defs>
  <sodipodi:namedview
     id="base"
     pagecolor="#ffffff"
     bordercolor="#666666"
     borderopacity="1.0"
     inkscape:pageopacity="0.0"
     inkscape:pageshadow="2"
     inkscape:zoom="0.55597701"
     inkscape:cx="347.48416"
     inkscape:cy="212.63989"
     inkscape:document-units="mm"
     inkscape:current-layer="layer1"
     inkscape:document-rotation="0"
     showgrid="false"
     fit-margin-top="0"
     fit-margin-left="0"
     fit-margin-right="0"
     fit-margin-bottom="0"
     inkscape:window-width="1346"
     inkscape:window-height="1040"
     inkscape:window-x="156"
     inkscape:window-y="0"
     inkscape:window-maximized="0" />
  <metadata
     id="metadata1328">
    <rdf:RDF>
      <cc:Work
         rdf:about="">
        <dc:format>image/svg+xml</dc:format>
        <dc:type
           rdf:resource="http://purl.org/dc/dcmitype/StillImage" />
        <dc:title></dc:title>
      </cc:Work>
    </rdf:RDF>
  </metadata>
  <g
     inkscape:label="Layer 1"
     inkscape:groupmode="layer"
     id="layer1"
     transform="translate(22.130348,-3.2037587)">
    <g
       id="g1323"
       transform="matrix(1.4929819,0,0,1.4929819,-490.93827,-8.4134026)">
      <path
         style="opacity:0.996;fill:#787cb3;fill-opacity:0.352941;stroke:#787cb3;stroke-width:3;stroke-miterlimit:4;stroke-dasharray:none;stroke-opacity:1"
         d="M 351.4954,20.715235 451.42329,9.4596217 V 93.739454 l -99.65336,-9.608449 z"
         id="path897" />
      <path
         style="opacity:0.996;fill:#787cb3;fill-opacity:1;stroke:none;stroke-width:2;stroke-miterlimit:4;stroke-dasharray:none;stroke-opacity:1"
         d="m 357.55619,96.013426 63.41576,7.549494 15.099,-5.078751 -60.25872,-7.274968 -19.9032,4.666962 v 0 z"
         id="path899" />
      <path
         style="opacity:0.996;fill:#787cb3;fill-opacity:1;stroke:none;stroke-width:2;stroke-miterlimit:4;stroke-dasharray:none;stroke-opacity:1"
         d="m 391.65362,94.831443 -0.19413,-5.629481 8.15303,0.679421 0.0971,5.241239 z"
         id="path901" />
      <circle
         style="opacity:0.996;fill:#000000;fill-opacity:1;stroke:#000000;stroke-width:3;stroke-miterlimit:4;stroke-dasharray:none;stroke-opacity:1;filter:url(#filter1167)"
         id="path913"
         cx="430.23779"
         cy="29.865976"
         r="12.520741"
         transform="matrix(2.0917311,0,0,2.0917311,-501.49397,-9.2788909)" />
      <path
         sodipodi:type="spiral"
         style="opacity:0.996;fill:none;fill-opacity:1;stroke:#787cb3;stroke-width:2.727;stroke-miterlimit:4;stroke-dasharray:none;stroke-opacity:1;filter:url(#filter1303)"
         id="path911"
         sodipodi:cx="-430.52789"
         sodipodi:cy="31.86528"
         sodipodi:expansion="1"
         sodipodi:revolution="3"
         sodipodi:radius="38.935501"
         sodipodi:argument="-18.843145"
         sodipodi:t0="0"
         transform="matrix(-1,0,0,1,-31.789966,23.326726)"
         d="m -430.52789,31.86528 c 1.95212,0.01252 0.94624,2.637598 -0.0208,3.244559 -2.62062,1.644824 -5.68427,-0.767221 -6.46832,-3.286158 -1.40249,-4.505788 2.25798,-8.809684 6.55152,-9.692076 6.30094,-1.294946 11.99096,3.75567 12.91583,9.816874 1.23271,8.078632 -5.25408,15.193838 -13.08223,16.139593 -9.85093,1.190137 -18.40743,-6.752412 -19.36335,-16.34759 -1.15775,-11.621047 8.25061,-21.627155 19.61294,-22.5871108 13.39013,-1.131275 24.85071,9.7487138 25.81087,22.8783068 1.10855,15.158634 -11.24675,28.07682 -26.14366,29.034628 -16.92682,1.088322 -31.30472,-12.744753 -32.25839,-29.409023 -1.06986,-18.694792 14.24273,-34.5339327 32.67438,-35.4821455 20.46263,-1.0526959 37.76412,15.7406815 38.70591,35.9397385" />
      <g
         id="g881"
         transform="matrix(-1.5058735,0,0,1.5058735,791.94112,25.181629)" />
    </g>
    <path
       style="opacity:0.996;fill:#9092c2;fill-opacity:1;stroke:#000000;stroke-width:3;stroke-miterlimit:4;stroke-dasharray:none"
       d="m 64.790307,80.866898 c -3.291485,0.198125 -9.837359,2.229232 -16.957234,7.607223 -7.119874,5.377991 -14.813262,14.102449 -17.946014,18.821759 -3.132752,4.71931 -1.705113,5.43313 1.546748,4.71917 3.251862,-0.71397 8.32791,-2.85542 13.76097,-6.86085 5.433059,-4.00543 11.222927,-9.874614 15.109379,-13.721406 3.886453,-3.846792 5.869283,-5.670996 6.842088,-7.40026 0.972804,-1.729263 0.935549,-3.363761 -2.355937,-3.165636 z"
       id="path2022"
       inkscape:path-effect="#path-effect2024"
       inkscape:original-d="m 68.044531,79.033967 c -6.545611,2.031373 -13.091485,4.062479 -19.637625,6.093323 -7.693428,8.725068 -15.386812,17.44953 -23.080615,26.17389 1.42796,0.71412 2.855598,1.42794 4.283001,2.1415 5.076515,-2.14127 10.152562,-4.28273 15.228447,-6.4245 5.790363,-5.86915 11.580229,-11.738333 17.369947,-17.60789 1.983176,-1.824013 3.966006,-3.648217 5.948613,-5.472723 -0.03699,-1.634302 -0.07425,-3.2688 -0.111768,-4.9036 z" />
    <path
       style="opacity:0.996;fill:#9092c2;fill-opacity:1;stroke:#000000;stroke-width:3;stroke-miterlimit:4;stroke-dasharray:none"
       d="m 84.083569,86.645596 c 6.225644,1.738694 12.450976,3.477301 17.218001,2.635963 4.76702,-0.841339 8.0759,-4.262392 9.61822,-8.272314 1.54232,-4.009922 1.31799,-8.608724 -0.70093,-12.33837 -2.01893,-3.729646 -5.83257,-6.589874 -9.05747,-7.767765 -3.224904,-1.177891 -5.860803,-0.673144 -7.739751,0.364471 -1.878948,1.037616 -3.000607,2.607939 -4.03801,3.000612 -1.037403,0.392673 -1.990812,-0.392487 -2.944529,-1.177901"
       id="path2010"
       inkscape:path-effect="#path-effect2012"
       inkscape:original-d="m 84.083569,86.645596 c 6.225595,1.73887 12.450926,3.47748 18.675991,5.21582 3.30929,-3.42094 6.61818,-6.84199 9.92688,-10.263385 -0.22408,-4.59872 -0.44841,-9.197522 -0.67301,-13.796679 -3.81353,-2.86008 -7.62717,-5.720307 -11.44115,-8.580861 -2.635736,0.505032 -5.271635,1.00978 -7.90785,1.514272 -1.121439,1.570648 -2.243097,3.140972 -3.365043,4.711059 -0.953183,-0.784929 -1.906594,-1.570087 -2.860287,-2.35553"
       sodipodi:nodetypes="cccccccc" />
    <g
       id="g1931"
       transform="matrix(0.17461607,0,0,0.17461607,35.585549,3.3852884)">
      <path
         style="fill:#787cb3;fill-opacity:1"
         d="M 334.29,212.339 C 347.067,181.432 368,114.545 368,8 308.667,36.667 256,171 256,192 256,171 203.333,36.667 144,8 c 0,106.545 20.933,173.432 33.71,204.339 l 5.917,35.87 C 180.25,265 144,324 144,408 c 0,61.856 50.144,96 112,96 61.856,0 112,-34.144 112,-96 0,-84 -36.25,-143 -39.627,-159.792 z"
         id="path1894" />
      <path
         style="fill:#9092c2;fill-opacity:1"
         d="m 280,503.977 h -48 c -13.2,0 -24,-10.8 -24,-24 v 0 c 0,-13.2 10.8,-24 24,-24 h 48 c 13.2,0 24,10.8 24,24 v 0 c 0,13.2 -10.8,24 -24,24 z"
         id="path1896" />
      <path
         style="fill:#9092c2;fill-opacity:1"
         d="m 296,359.977 c -5.333,-26 -20.667,-32 -40,-32 -19.333,0 -34.667,6 -40,32 -7.441,36.278 -28.533,60.24 -31.621,88.99 -2.367,22.04 11.356,43.102 33.258,46.513 12.651,1.971 24.297,-2.059 32.767,-9.609 3.252,-2.899 7.938,-2.899 11.19,0 8.47,7.551 20.116,11.58 32.767,9.609 21.903,-3.411 35.626,-24.473 33.259,-46.513 -3.087,-28.75 -24.179,-52.712 -31.62,-88.99 z"
         id="path1898" />
      <path
         style="fill:#ac8a67"
         d="m 286.641,435.539 c -2.453,-3.675 -7.414,-4.684 -11.094,-2.219 l -19.563,13.043 -19.563,-13.043 c -3.695,-2.465 -8.648,-1.457 -11.094,2.219 -2.453,3.676 -1.461,8.645 2.219,11.094 l 24,16 c 1.344,0.895 2.891,1.344 4.438,1.344 1.547,0 3.094,-0.449 4.438,-1.344 l 24,-16 c 3.68,-2.449 4.672,-7.418 2.219,-11.094 z"
         id="path1900" />
      <g
         id="g1906">
	<path
   style="fill:#9092c2;fill-opacity:1"
   d="m 146,44 c 0,0 -4.5,101 41,183 0,0 27,-56.5 -41,-183 z"
   id="path1902" />

	<path
   style="fill:#9092c2;fill-opacity:1"
   d="m 365.877,44 c 0,0 4.5,101 -41,183 0,0 -27,-56.5 41,-183 z"
   id="path1904" />

</g>
      <path
         d="m 336.215,246.631 c -0.018,-0.088 -0.045,-0.172 -0.066,-0.259 -0.02,-0.086 -0.033,-0.172 -0.056,-0.258 -1.134,-4.179 -2.125,-8.253 -3.004,-12.244 C 341.196,218.961 376,146.854 376,8 376,7.948 375.993,7.897 375.992,7.845 375.989,7.679 375.98,7.513 375.967,7.347 375.959,7.241 375.948,7.134 375.935,7.028 375.917,6.881 375.894,6.735 375.868,6.588 375.846,6.463 375.821,6.338 375.793,6.214 375.765,6.093 375.733,5.974 375.7,5.853 375.659,5.707 375.615,5.562 375.566,5.419 375.532,5.321 375.496,5.223 375.459,5.126 375.398,4.968 375.333,4.813 375.262,4.66 375.241,4.614 375.225,4.566 375.203,4.52 375.182,4.476 375.155,4.436 375.134,4.393 375.06,4.247 374.982,4.105 374.9,3.965 374.843,3.868 374.785,3.771 374.725,3.676 374.65,3.56 374.572,3.448 374.492,3.337 374.413,3.227 374.334,3.119 374.251,3.014 374.18,2.925 374.105,2.84 374.031,2.754 373.932,2.64 373.833,2.528 373.728,2.421 373.655,2.347 373.58,2.275 373.505,2.204 373.393,2.099 373.281,1.994 373.165,1.895 373.082,1.825 372.995,1.758 372.909,1.691 372.796,1.603 372.683,1.516 372.566,1.434 372.462,1.362 372.355,1.295 372.247,1.227 372.142,1.162 372.038,1.095 371.93,1.035 371.804,0.963 371.673,0.899 371.543,0.834 371.447,0.787 371.352,0.738 371.254,0.695 371.112,0.632 370.967,0.576 370.822,0.52 370.727,0.485 370.632,0.448 370.536,0.416 370.393,0.368 370.247,0.327 370.101,0.287 369.992,0.257 369.883,0.228 369.773,0.203 369.643,0.174 369.51,0.149 369.377,0.126 369.242,0.103 369.106,0.081 368.97,0.064 368.859,0.05 368.746,0.041 368.634,0.032 368.472,0.018 368.31,0.011 368.147,0.007 368.096,0.007 368.049,0 368,0 c -0.051,0 -0.1,0.007 -0.151,0.008 -0.168,0.003 -0.336,0.012 -0.505,0.025 -0.104,0.009 -0.208,0.019 -0.311,0.031 -0.15,0.019 -0.3,0.042 -0.45,0.069 -0.123,0.022 -0.244,0.046 -0.365,0.073 -0.124,0.028 -0.247,0.061 -0.371,0.095 -0.144,0.04 -0.286,0.083 -0.426,0.131 -0.101,0.034 -0.2,0.071 -0.3,0.109 -0.157,0.061 -0.311,0.126 -0.462,0.196 -0.047,0.021 -0.094,0.037 -0.141,0.059 -0.091,0.044 -0.181,0.095 -0.272,0.139 -0.026,0.015 -0.054,0.027 -0.081,0.042 -33.978,16.636 -63.074,62.557 -81.522,98.222 -11.284,21.814 -20.543,43.678 -26.645,61.093 -6.101,-17.415 -15.36,-39.279 -26.645,-61.093 C 210.904,63.534 181.809,17.613 147.831,0.977 147.805,0.962 147.777,0.95 147.75,0.935 147.659,0.891 147.569,0.84 147.479,0.796 147.433,0.774 147.386,0.758 147.339,0.737 147.186,0.667 147.03,0.601 146.872,0.54 146.775,0.502 146.678,0.467 146.581,0.434 146.436,0.384 146.291,0.34 146.143,0.299 146.024,0.266 145.905,0.235 145.786,0.208 145.661,0.179 145.536,0.154 145.409,0.132 145.263,0.106 145.117,0.083 144.971,0.065 144.865,0.052 144.757,0.042 144.65,0.033 144.484,0.019 144.319,0.011 144.153,0.008 144.103,0.007 144.052,0 144,0 c -0.05,0 -0.098,0.007 -0.148,0.007 -0.162,0.003 -0.322,0.011 -0.482,0.024 -0.114,0.009 -0.228,0.019 -0.34,0.033 -0.136,0.017 -0.271,0.038 -0.405,0.062 -0.133,0.023 -0.265,0.047 -0.396,0.077 -0.111,0.025 -0.221,0.056 -0.331,0.085 -0.145,0.04 -0.289,0.081 -0.431,0.127 -0.099,0.033 -0.195,0.07 -0.292,0.107 -0.144,0.054 -0.286,0.109 -0.426,0.171 -0.1,0.044 -0.198,0.094 -0.296,0.143 -0.127,0.063 -0.255,0.127 -0.379,0.197 -0.11,0.063 -0.218,0.13 -0.326,0.198 -0.105,0.066 -0.209,0.131 -0.311,0.202 -0.12,0.083 -0.235,0.172 -0.351,0.262 -0.083,0.065 -0.168,0.13 -0.249,0.198 -0.119,0.101 -0.233,0.207 -0.346,0.314 -0.073,0.069 -0.147,0.139 -0.217,0.211 -0.106,0.108 -0.207,0.222 -0.307,0.337 -0.073,0.085 -0.147,0.169 -0.217,0.257 -0.084,0.105 -0.164,0.215 -0.243,0.325 -0.08,0.111 -0.157,0.223 -0.231,0.337 -0.061,0.095 -0.119,0.192 -0.176,0.291 -0.082,0.14 -0.16,0.282 -0.234,0.427 -0.021,0.043 -0.048,0.083 -0.069,0.127 -0.022,0.046 -0.038,0.093 -0.059,0.14 -0.07,0.153 -0.136,0.308 -0.197,0.466 -0.038,0.098 -0.073,0.195 -0.107,0.293 -0.049,0.143 -0.093,0.288 -0.134,0.434 -0.033,0.121 -0.064,0.241 -0.093,0.361 -0.028,0.124 -0.053,0.249 -0.075,0.374 -0.026,0.147 -0.049,0.293 -0.067,0.44 -0.013,0.106 -0.023,0.213 -0.031,0.319 -0.014,0.166 -0.022,0.332 -0.025,0.498 C 136.007,7.897 136,7.948 136,8 c 0,138.854 34.804,210.961 42.911,225.87 -0.878,3.991 -1.87,8.065 -3.004,12.244 -0.023,0.086 -0.036,0.172 -0.056,0.259 -0.021,0.086 -0.048,0.17 -0.066,0.258 -0.667,3.314 -3.545,10.153 -6.878,18.073 C 157.406,292.03 136,342.896 136,408 c 0,31.862 12.378,58.638 35.796,77.436 C 193.139,502.565 223.043,512 256,512 c 32.957,0 62.861,-9.435 84.204,-26.564 C 363.622,466.638 376,439.862 376,408 c 0,-65.104 -21.406,-115.97 -32.907,-143.296 -3.333,-7.92 -6.211,-14.759 -6.878,-18.073 z m 2.673,-71.943 c -3.534,12.151 -7.083,22.21 -10.234,30.214 -3.934,-47.467 10.588,-81.07 24.747,-113.781 0.86,-1.987 1.716,-3.967 2.565,-5.941 -4.202,38.732 -11.006,68.633 -17.078,89.508 z M 156.011,85.126 c 0.856,1.993 1.721,3.99 2.589,5.996 14.155,32.702 28.673,66.296 24.751,113.742 C 174.41,182.08 162.229,142.507 156.011,85.126 Z M 256,488.685 c 2.61,2.61 5.729,4.979 9.167,7.026 -3.05,0.191 -6.109,0.29 -9.167,0.29 -3.058,0 -6.117,-0.099 -9.167,-0.29 3.438,-2.048 6.557,-4.416 9.167,-7.026 z m 71.034,-13.618 C 327.673,471.647 328,467.96 328,464 c 0,-4.418 -3.582,-8 -8,-8 -4.418,0 -8,3.582 -8,8 0,8.764 -1.969,15.181 -5.852,19.074 -3.102,3.11 -7.526,4.686 -13.152,4.686 C 278.019,487.76 264,476.923 264,472 v -11.719 l 20.438,-13.625 c 3.676,-2.451 4.67,-7.417 2.219,-11.094 -2.451,-3.677 -7.417,-4.669 -11.094,-2.219 L 256,446.386 236.437,433.344 c -3.675,-2.452 -8.643,-1.458 -11.094,2.219 -2.451,3.676 -1.458,8.643 2.219,11.094 L 248,460.281 V 472 c 0,4.923 -14.019,15.76 -28.997,15.76 -5.625,0 -10.05,-1.576 -13.152,-4.686 C 201.969,479.181 200,472.764 200,464 c 0,-4.418 -3.582,-8 -8,-8 -4.418,0 -8,3.582 -8,8 0,3.96 0.327,7.647 0.966,11.067 C 165.229,460.672 152,438.589 152,408 c 0,-61.875 20.591,-110.804 31.654,-137.09 3.881,-9.221 6.703,-15.935 7.745,-20.797 20.561,-75.989 0.015,-123.461 -18.115,-165.347 -8.915,-20.597 -17.426,-40.264 -20.277,-61.764 20.182,15.291 41.813,44.255 62.138,83.548 17.625,34.072 28.378,64.392 31.725,78.523 -6.594,1.48 -13.152,4.565 -19.599,9.257 -3.572,2.601 -4.359,7.604 -1.759,11.176 2.601,3.572 7.604,4.36 11.176,1.759 6.623,-4.82 13.121,-7.265 19.312,-7.265 6.191,0 12.689,2.445 19.313,7.267 1.421,1.035 3.069,1.533 4.702,1.533 2.471,0 4.908,-1.142 6.474,-3.292 2.6,-3.572 1.813,-8.576 -1.759,-11.176 -6.446,-4.692 -13.004,-7.777 -19.599,-9.257 3.347,-14.131 14.1,-44.451 31.725,-78.523 20.325,-39.293 41.956,-68.258 62.138,-83.548 -2.851,21.5 -11.362,41.167 -20.277,61.764 -18.13,41.886 -38.675,89.358 -18.115,165.347 1.042,4.862 3.864,11.576 7.745,20.797 C 339.409,297.196 360,346.125 360,408 c 0,30.589 -13.229,52.672 -32.966,67.067 z"
         id="path1908" />
      <path
         d="m 188,304 c -7.402,0 -12,7.664 -12,20 0,12.336 4.598,20 12,20 7.402,0 12,-7.664 12,-20 0,-12.336 -4.598,-20 -12,-20 z"
         id="path1910" />
      <path
         d="m 312,324 c 0,12.336 4.598,20 12,20 7.402,0 12,-7.664 12,-20 0,-12.336 -4.598,-20 -12,-20 -7.402,0 -12,7.664 -12,20 z"
         id="path1912" />
    </g>
    <path
       style="opacity:0.996;fill:#9092c2;fill-opacity:1;stroke:#000000;stroke-width:2;stroke-miterlimit:4;stroke-dasharray:none"
       d="m 28.91297,111.23056 c 2.895027,-2.28033 5.790017,-4.56063 8.684974,-6.84091"
       id="path2026"
       inkscape:path-effect="#path-effect2028"
       inkscape:original-d="m 28.91297,111.23056 c 2.895256,-2.28004 5.790248,-4.56034 8.684974,-6.84091" />
    <g
       id="g2036"
       style="fill:none;fill-rule:evenodd;stroke:none;stroke-width:1"
       transform="matrix(0.11702097,0,0,0.11702097,-17.023565,76.606484)">
      <path
         d="m 127.92892,0.00180989 c 33.22671,0 66.45523,0 99.68194,-0.00180989 4.16943,0 8.30079,0.36197726 12.30163,1.5818406 8.67422,2.6442439 13.26784,8.8648234 15.06795,17.4382544 0.71424,3.398966 0.91727,6.864899 0.92452,10.329021 0.0526,23.271518 0.0925,46.543035 0.0943,69.814553 0.002,42.383921 0.007,84.767831 -0.0798,127.151751 -0.0127,5.93281 -0.32812,11.93077 -3.2576,17.33509 -3.24852,5.99434 -7.69712,10.73806 -14.44978,12.82485 -1.22001,0.37646 -2.49441,0.8054 -3.74524,0.8054 -2.88234,0.002 -5.68673,0.71672 -8.56001,0.71672 -65.06664,-0.005 -130.133275,0.0326 -195.199912,-0.0706 -5.291548,-0.009 -10.670109,-0.39455 -15.696989,-2.54832 -1.000662,-0.42894 -2.010389,-0.78911 -2.889594,-1.45876 C 5.719367,249.04216 1.3740983,242.95913 0.44232188,234.72777 0.10695488,231.75956 0,228.80763 0,225.83942 0.01087677,159.88716 0.01631515,93.934908 0.05075825,27.982652 0.05257104,24.156552 0.09245252,20.265297 1.2689562,16.603897 4.4032781,6.8449899 11.26108,1.5184946 21.427232,0.43618259 23.789304,0.1846084 26.173129,0.02171864 28.546077,0.01990875 61.673085,-0.00723955 94.801907,0.00180989 127.92892,0.00180989 Z"
         fill="#fb7a24"
         id="path2032" />
      <path
         d="m 128.77525,164.11329 c -0.72757,4.45413 -1.23796,8.47932 -2.8379,12.18959 -7.49112,17.38396 -20.25625,27.97723 -39.393994,30.08575 -22.621775,2.49221 -43.515108,-11.46925 -49.797225,-33.15351 -2.276837,-7.85853 -2.048792,-15.86909 -1.223483,-23.86698 0.881415,-8.54628 3.398967,-16.65095 7.330041,-24.29591 0.562875,-1.09318 0.552016,-1.91848 -0.15203,-2.97727 -6.035973,-9.07839 -8.377966,-19.10697 -7.52732,-29.931906 0.454282,-5.786208 1.858754,-11.320842 4.48309,-16.504357 7.688399,-15.18495 24.569213,-28.071344 47.178319,-25.932058 19.879792,1.880472 38.293582,19.02915 41.167682,38.315303 0.14479,0.968289 0.41628,1.91848 0.73482,3.346481 0.476,-2.586329 0.81988,-4.720185 1.26511,-6.834133 3.70302,-17.521514 20.85351,-35.855667 45.16391,-36.081902 24.6398,-0.228046 42.88708,19.096115 46.32948,37.044762 1.45515,7.585235 1.20177,15.16323 0.002,22.73761 -1.19995,7.56713 -3.42249,14.84107 -6.67124,21.77474 -0.71672,1.52936 -0.64251,2.62977 0.2751,4.05053 5.30659,8.22413 7.64858,17.25184 7.34814,27.056 -0.62803,20.45715 -15.09626,38.80216 -35.0014,43.60017 -27.79081,6.69658 -49.09318,-9.92361 -56.26214,-30.03145 -1.16918,-3.27228 -1.72301,-6.68934 -2.41077,-10.59146 z m 50.4886,-35.94073 c 0.29683,-1.15652 1.19272,-1.8497 1.83704,-2.70578 6.96806,-9.25938 10.63308,-19.60288 9.81502,-31.249504 -0.59546,-8.501038 -7.58705,-14.488144 -16.05008,-14.171414 -8.46846,0.31673 -14.85012,6.848612 -14.96957,15.322502 -0.009,0.693186 0.0326,1.388183 -0.0109,2.07775 -0.58279,9.031336 -5.5654,13.977756 -13.11625,14.529776 -1.37914,0.10135 -2.76189,0.22442 -4.14283,0.22804 -9.80054,0.0217 -19.59927,0.0181 -29.3998,0.009 -4.28039,-0.004 -8.52457,0.46152 -12.60043,1.71939 -19.027345,5.87128 -30.121951,18.88255 -33.796021,38.27549 -0.727574,3.83696 -1.382753,7.81871 -0.124882,11.76064 1.804457,5.65228 5.169036,9.85664 11.125374,11.26293 6.173524,1.45696 11.550697,-0.15565 15.82203,-5.00434 2.761887,-3.13472 3.632443,-6.85947 3.83877,-10.94801 0.533916,-10.51544 6.260399,-15.77135 15.809359,-15.69171 14.64923,0.12126 29.30026,0.0253 43.95129,0.0362 2.60081,0.002 2.62434,0.0362 2.63701,2.60804 0.0253,4.75095 -0.12127,9.50734 0.0615,14.25286 0.29863,7.74631 7.11467,14.18589 15.01663,14.41213 8.14811,0.23347 15.41119,-5.79345 15.94149,-13.66103 0.4579,-6.80879 0.42894,-13.66102 -0.0181,-20.47525 -0.34569,-5.27582 -3.19988,-9.03495 -8.0359,-11.21767 -1.16014,-0.52125 -2.38,-0.91219 -3.59082,-1.37009 z M 87.43201,112.18945 c 3.151013,0 5.722862,-0.029 8.292901,0.0127 1.274161,0.0199 1.746541,-0.52849 1.735682,-1.77731 -0.04163,-4.9428 0.213566,-9.90189 -0.101354,-14.826591 C 96.942965,89.100726 93.487891,84.40407 87.43925,82.034928 81.236768,79.60606 75.560963,80.992433 70.761143,85.573256 c -4.821538,4.602542 -5.464048,10.23129 -3.777234,16.392144 1.549264,5.66133 5.210664,8.8775 10.967914,9.84941 3.344671,0.56287 6.707441,0.2932 9.480187,0.37464 z"
         fill="#ffffff"
         id="path2034" />
    </g>
    <g
       id="g2133"
       transform="matrix(0.22328722,0,0,0.22328722,-11.216631,119.05768)">
      <g
         transform="translate(-8.71,-8.72)"
         id="g2097">
	<g
   id="cvfa">
		<path
   d="m 53.7,130 c 2.96,3.65 6.25,7.35 9.87,11.1 -10.5,3.17 -17.5,9.06 -21.8,14.3 -6.82,8.23 -10.4,19.1 -9.6,28.4 h -18.2 c 3.64,-7.9 18.2,-30.7 39.6,-53.8 z"
   fill="#d1a41a"
   id="path2058" />

		<path
   d="m 264,189 h -22.1 c -50.6,-26.4 -95.1,-45 -142,-49.1 0.1,-6.57 1.27,-14 3.52,-22.3 l -4.35,-1.17 c -2.31,8.52 -3.52,16.2 -3.66,23.1 -4.92,-0.33 -9.87,-0.49 -14.9,-0.49 -4.23,0 -8.09,0.391 -11.6,1.07 -4.59,-4.58 -8.5,-8.96 -11.8,-13.1 21.8,-22.7 57.6,-43.2 88.9,-50.9 8.79,29.2 27.7,49.2 50.6,62.7 1.68,-0.96 3.33,-1.96 4.95,-3.02 l 40,43 1.75,-0.15 c 10.9,-0.939 17.1,4.98 18.8,6.82 1.21,1.34 1.93,2.57 2.33,3.54 z"
   fill="#d1a41a"
   id="path2060" />

		<path
   d="m 244,44.8 c 0.811,39.7 -19.4,71.3 -47.8,87.5 -48.1,-24 -57.2,-84.7 -49,-117 2.28,12.5 6.43,20.3 15.4,24.1 19.5,-5.59 46.4,-6.03 66.2,-0.57 8.25,-6 11.5,-15.2 13.2,-23.2 2.18,9.32 1.93,29.5 1.94,29.5 z"
   fill="#ffdc76"
   id="path2062" />

	</g>



	<polygon
   points="123,82.4 131,104 109,89.2 "
   id="polygon2065" />

	<polygon
   points="102,91.9 110,106 93.3,97.1 "
   id="polygon2067" />

	<polygon
   points="84,103 87.8,116 76.4,108 "
   id="polygon2069" />

	<polygon
   points="206,139 199,150 211,144 "
   id="polygon2071" />

	<polygon
   points="217,152 205,160 221,156 "
   id="polygon2073" />

	<polygon
   points="189,33.5 197,52 203,33.2 "
   id="polygon2075" />

	<polygon
   points="146,60.4 160,67.5 148,68.3 "
   id="polygon2077" />

	<polygon
   points="150,74.8 158,78.1 151,80 "
   id="polygon2079" />

	<polygon
   points="245,65.6 234,70.2 243,71.6 "
   id="polygon2081" />

	<polygon
   points="240,78.9 232,81.3 239,83.8 "
   id="polygon2083" />



	<rect
   x="142"
   y="99.300003"
   width="26.200001"
   height="3.24"
   id="rect2085" />

	<rect
   x="142"
   y="91.5"
   width="26.200001"
   height="3.24"
   id="rect2087" />

	<rect
   x="222"
   y="99.300003"
   width="26.200001"
   height="3.24"
   id="rect2089" />

	<rect
   x="222"
   y="91.5"
   width="26.200001"
   height="3.24"
   id="rect2091" />

	
		<path
   d="m 213,72.3 h -42.8 v -2.92 h 13.3 c 1.64,-7.02 1.96,-13.7 -0.0137,-17.1 -0.844,-1.45 -2.01,-2.12 -3.67,-2.12 -7.61,0 -10.8,8.05 -10.9,8.39 l 0.002,-0.002 -2.73,-1.02 c 0.156,-0.42 3.96,-10.3 13.6,-10.3 2.69,0 4.83,1.24 6.19,3.57 2.41,4.14 2.13,11.3 0.494,18.6 h 23.4 c 3.1,-9.12 9.58,-13.4 20.4,-13.4 v 2.92 c -11.7,0 -15,4.97 -17.4,10.5 h 12.7 l -0.0293,2.9 z"
   id="path2093" />

		<path
   d="m 215,86.7 0.0186,-0.0029 c -3.46,-5.1 -4.55,-9.46 -3.11,-14.4 l -2.97,0.0146 c -1.04,3.3 -0.62,8.27 1.93,12.5 h -29.7 c 1.81,-3.62 3.48,-8.03 4.7,-12.5 h -3.02 c -1.35,4.79 -3.24,9.52 -5.37,13.3 l -0.689,1.21 16.7,10.5 -9.38,6.18 1.61,2.44 10.5,-6.91 11.3,7.38 1.55,-2.47 -10.5,-6.49 c 0,0 15.7,-10.2 16.5,-10.7 -0.005,-0.0068 -0.008,-0.0127 -0.0127,-0.0186 z m -18.9,8.81 -12.3,-7.75 24.1,0.0059 z"
   id="path2095" />

	
</g>
      <g
         transform="matrix(0.99,0,0,0.996,-7.52,-8)"
         id="g2103">
	<path
   d="m 249,41.3 c -0.0185,-5.07 -1.6,-26.5 -4.5,-32.4 -7.87,2.99 -22.2,12.7 -25.4,22.6 -15.5,-2.32 -33,-2.04 -48.4,0.609 -2.56,-10.7 -15.4,-18.8 -25.1,-23.4 -4.09,6.91 -5.91,22.9 -5.44,34.3 -0.0176,0.0117 -0.0366,0.0234 -0.0542,0.0361 1.8,47.7 25.2,77.4 55.8,95.4 31.5,-18 54,-53.1 53.1,-97.1 0.0127,0.0078 0.0264,0.0137 0.0381,0.0215 z m -26.2,-9.2 c 0.114,0.0205 0.229,0.042 0.344,0.0635 C 223.03,32.142 222.915,32.1205 222.8,32.1 Z m -1.96,-0.338 c 0.275,0.044 0.554,0.0938 0.83,0.141 -0.276,-0.0469 -0.553,-0.0947 -0.83,-0.141 z m 23.3,13 c 0.81,39.7 -19.4,71.3 -47.8,87.5 -48.1,-24 -57.2,-84.7 -49,-117 2.28,12.5 6.42,20.3 15.4,24.1 19.5,-5.59 46.4,-6.03 66.2,-0.569 8.25,-6 11.5,-15.2 13.2,-23.2 2.18,9.32 1.93,29.5 1.94,29.5 z"
   id="path2099" />

	<path
   d="m 265,182 c -4.94,-5.53 -14.6,-8.14 -22.7,-7.95 -5.74,-6.83 -39,-41.9 -39,-41.9 l -2.31,2.9 40.2,43.2 1.74,-0.149 c 10.9,-0.935 17.1,4.98 18.8,6.82 1.2,1.35 1.93,2.58 2.33,3.54 h -22.1 c -50.6,-26.4 -95.1,-45 -142,-49.1 0.104,-6.57 1.27,-14 3.52,-22.3 l -4.34,-1.18 c -2.31,8.52 -3.52,16.2 -3.66,23.1 -4.92,-0.326 -9.87,-0.495 -14.9,-0.495 -4.24,0 -8.1,0.394 -11.6,1.08 -4.59,-4.59 -8.5,-8.96 -11.8,-13.1 21.9,-22.8 58.1,-43.5 89.5,-51.1 l -1.02,-4.4 c -33.8,8.15 -70.8,30.3 -91.4,51.8 -9.56,-12.9 -13.4,-23.5 -14.5,-31.5 -1.42,-10.1 0.997,-19.4 7,-26.9 9.4,-11.7 22.7,-12.5 36.5,-10.2 -0.268,2.17 0.0171,4.24 0.885,5.52 3.63,5.36 23.1,7.25 34.8,2.05 -8.6,-12 -26,-17.9 -30.8,-15.6 -1.6,0.78 -2.8,2.21 -3.63,3.89 -4.75,-0.849 -9.46,-1.48 -12.9,-1.46 -12.1,0.0889 -21.4,4.32 -28.3,12.9 -6.8,8.45 -9.55,18.9 -7.95,30.3 1.52,10.8 6.86,22.3 15.8,34.2 -1.49,1.6 -2.93,3.17 -4.31,4.72 -21.8,24.4 -37.8,50.7 -37.8,55 v 2.25 h 28.8 l -0.505,-2.67 c -1.63,-8.6 1.62,-19.4 8.28,-27.4 4.18,-5.04 11.1,-10.8 22,-13.5 9.66,9.43 22,19.4 35.7,29.1 h 21.4 v -2.25 c 0,-2.54 -1.26,-4.76 -3.54,-6.26 -3.38,-2.21 -8.6,-2.52 -13.4,-0.881 -4.57,-5.09 -7.14,-11.9 -7.69,-20.3 46.5,4.12 90.9,22.9 141,49.1 h 27.6 l 0.361,-1.81 c 0.516,-2.58 -0.888,-6.03 -3.75,-9.23 z M 42,155.2 c -6.82,8.23 -10.4,19.1 -9.6,28.4 H 14.2 c 3.65,-7.89 18.2,-30.7 39.6,-53.8 2.96,3.66 6.25,7.35 9.87,11.1 -10.5,3.17 -17.5,9.06 -21.8,14.3 z"
   id="path2101" />

</g>
    </g>
    <g
       id="g865"
       transform="matrix(1.2386397,0,0,1.2386397,-40.421494,-626.93994)">
      <g
         transform="matrix(0.2699722,0,0,0.2699722,30.447231,342.64948)"
         id="g14956">
        <path
           inkscape:connector-curvature="0"
           style="fill:#f2f2f2;fill-opacity:1;stroke:none"
           d="m 75.778634,705.63935 -3.59375,2.84375 c -1.97311,1.57823 -4.6736,3.55 -6,4.375 -1.3264,0.825 -2.26069,1.90221 -2.09375,2.40625 0.16695,0.50404 4.29253,1.98183 9.1875,3.28125 8.2,2.17679 24.19159,8.96465 23.28125,9.875 -0.21552,0.21551 -5.03792,-0.95882 -10.71875,-2.59375 -18.10166,-5.20962 -27.14543,-6.26834 -47.96875,-5.6875 -15.4856,0.43195 -20.17538,0.91844 -28.0937501,3 -19.45529,5.11433 -38.7949799,15.64051 -49.9999999,27.21875 -3.025,3.12575 -6.77843,6.50716 -8.34375,7.5 -3.34401,0.79512 -4.41942,0.15744 -5.5625,-0.4375 -0.4565,-0.28213 -0.76276,-0.65269 -0.9375,-1.125 -0.38148,1.37908 -0.80008,2.60245 -1.25,3.59375 0.50461,-0.10704 1.02884,-0.14054 1.5625,-0.15625 1.70181,-0.0501 3.43165,0.3073 4.4375,0.75 l 4.375,3.21875 c 18.43377,13.61783 28.37926,18.39068 38.7187499,18.5625 5.41898,0.0901 7.29111004,-0.34744 11.21875,-2.65625 2.26725,-1.33277 4.49923,-3.04987 5.375,-4.09375 0.12511,-0.14913 0.21499,-0.28784 0.28125,-0.40625 0.5779201,-1.03268 1.1202401,-1.33896 1.4687501,-1.15625 8.3057,-2.13373 22.95344,0.19169 46,8.3125 0.019,0.007 0.0435,-0.007 0.0625,0 4.60102,0.14013 11.54211,2.15647 20.84375,6.0625 1.35987,0.57105 1.75,0.24535 1.75,-1.46875 0,-5.22306 6.09847,-12.08731 11.4375,-13.625 v -0.0312 c 9.192626,-5.24713 20.477706,-6.43044 30.499996,-6.6875 l -0.4375,-0.1563 4.4375,-0.3125 c 6.61977,-0.47257 12.42757,2.18713 17.25,7.90625 2.27781,2.70135 4.50484,4.90625 4.96875,4.90625 1.39154,0 0.96498,-6.12772 -1.125,-16.09375 -1.56179,-7.44736 -1.83059,-11.49749 -1.34375,-19.5 0.38069,-6.25772 0.23671,-10.34069 -0.375,-10.71875 -0.54317,-0.3357 -4.55829,0.24946 -8.90625,1.28125 -11.92778,2.83053 -17.40625,3.48223 -17.40625,2.09375 0,-0.0712 0.0621,-0.17216 0.15625,-0.28125 -5.91285,2.04217 -14.47902,-1.04997 -18.21875,-4.625 -3.985676,-3.81017 -2.002226,-9.26322 -3.937496,-13.28125 -0.005,1.25719 -0.23118,1.24193 -1.75,-0.0625 -0.9625,-0.82661 -3.94767,-2.11174 -6.65625,-2.84375 -3.35104,-0.90564 -6.14778,-2.56859 -8.75,-5.25 z"
           id="rect14924"
           sodipodi:nodetypes="ccssssssssccccsccsssscscsscccccssssssscscsscc" />
        <path
           inkscape:connector-curvature="0"
           id="path14839-2"
           d="m 24.4033,753.61214 c -0.36222,-7.2875 -0.92527,-14.9375 -1.25122,-17 -0.33741,-2.13507 -0.18027,-3.75 0.3649,-3.75 0.96957,0 3.58268,5.41956 4.82162,10 0.37192,1.375 1.36774,3.2875 2.21293,4.25 1.38522,1.57749 1.37356,1.93027 -0.11828,3.57874 -0.91025,1.00581 -1.6575,3.36831 -1.66057,5.25 -0.007,4.19259 -1.7933,10.92126 -2.89961,10.92126 -0.44615,0 -1.10754,-5.9625 -1.46977,-13.25 z m 12.95016,8.06338 c -0.22587,-0.72236 -0.64666,-7.08438 -0.9351,-14.13783 -0.44253,-10.82167 -0.30925,-12.64586 0.85346,-11.6809 0.75783,0.62895 1.67598,2.57495 2.04032,4.32445 0.36434,1.74949 1.33979,4.24856 2.16766,5.55348 1.12532,1.7738 1.24404,2.90951 0.4704,4.5 -0.56914,1.17008 -1.31666,4.25443 -1.66115,6.85411 -0.62317,4.70271 -2.15227,7.09185 -2.93559,4.58669 z m 12.20162,-13.02163 c -0.25996,-6.76046 -0.29163,-12.50372 -0.0704,-12.76279 0.64039,-0.74982 2.19925,2.13379 3.49822,6.47104 0.65888,2.2 1.62294,4.29208 2.14236,4.64908 0.54166,0.37227 0.58843,1.43841 0.10967,2.5 -0.4591,1.018 -1.31217,3.83945 -1.89572,6.26987 -2.0035,8.3445 -3.28179,5.93693 -3.78416,-7.1272 z m 13.15018,5.45825 c -0.0402,-3.1625 -0.41225,-8.13409 -0.82688,-11.04798 -0.41463,-2.91389 -0.43277,-5.49643 -0.0403,-5.73899 1.07391,-0.66372 2.69213,1.6778 3.48491,5.04256 0.38803,1.64693 1.66171,3.76494 2.83039,4.70671 l 2.12488,1.71229 -2.25,1.59441 c -1.24804,0.88439 -2.25,2.64603 -2.25,3.95592 0,3.01052 -0.95893,5.52508 -2.10699,5.52508 -0.49115,0 -0.92586,-2.5875 -0.96601,-5.75 z m 12.06199,-2.41667 c -0.006,-3.48333 -0.30128,-8.09079 -0.65607,-10.23881 -0.86267,-5.22296 0.87093,-4.09566 4.11014,2.67269 2.11179,4.4126 2.27346,5.39177 1.10626,6.7003 -0.75183,0.84287 -1.5205,2.62224 -1.70814,3.95416 -0.18765,1.33192 -0.90368,2.60692 -1.59118,2.83333 -0.91103,0.30003 -1.25298,-1.30579 -1.26101,-5.92167 z m 11.01101,-4.04762 c 0,-8.38969 0.1411,-9.07318 1.5767,-7.63758 2.16317,2.16316 2.90354,8.8667 1.46178,13.23528 -1.99058,6.03152 -3.03848,4.10102 -3.03848,-5.5977 z m 10.45956,1.70513 c -1.87399,-1.46904 -1.82855,-1.52421 1.04044,-1.26348 1.65,0.14995 2.92125,0.71139 2.825,1.24764 -0.2923,1.62855 -1.80029,1.63473 -3.86544,0.0158 z"
           style="fill:#febc5b"
           sodipodi:nodetypes="csssssssccssssssccssssscccssscccssccsssssccssccsscc" />
        <path
           inkscape:connector-curvature="0"
           style="fill:#000000"
           d="m -23.96875,361.84375 c -1.668703,-3.1e-4 -3.619067,0.69762 -6.25,1.96875 -2.29504,1.10884 -7.44173,3.17381 -11.4375,4.59375 -3.99577,1.41994 -9.08125,3.57679 -11.28125,4.8125 -3.22613,1.81208 -5.71591,2.28301 -12.875,2.40625 -26.93629,0.46372 -55.09845,9.69242 -75,24.59375 -10.2788,7.69627 -16.25337,16.82461 -12.53125,19.125 1.14308,0.59494 2.21849,1.23262 5.5625,0.4375 1.56532,-0.99284 5.31875,-4.37425 8.34375,-7.5 11.20502,-11.57824 30.54471,-22.10442 50,-27.21875 7.91837,-2.08156 12.60815,-2.56805 28.09375,-3 20.82332,-0.58084 29.86709,0.47788 47.96875,5.6875 5.68083,1.63493 10.50323,2.80926 10.71875,2.59375 0.91034,-0.91035 -15.08125,-7.69821 -23.28125,-9.875 -4.89497,-1.29942 -9.02055,-2.77721 -9.1875,-3.28125 -0.16694,-0.50404 0.76735,-1.58125 2.09375,-2.40625 1.3264,-0.825 4.02689,-2.79677 6,-4.375 l 3.59375,-2.84375 3.84375,3.9375 c 2.60222,2.68141 5.39896,4.34436 8.75,5.25 2.70858,0.73201 5.69375,2.01714 6.65625,2.84375 1.53538,1.31866 1.75,1.33039 1.75,0.0312 0,-1.91718 -3.53635,-4.98098 -8.15625,-7.0625 -2.01192,-0.90647 -4.48692,-2.85208 -5.5,-4.3125 -3.104225,-4.47491 -5.093829,-6.40574 -7.875,-6.40625 z m 73.65625,21.9375 c -3.55227,0 -30.125,12.40452 -30.125,14.0625 0,1.38848 5.47847,0.73678 17.40625,-2.09375 4.34796,-1.03179 8.36308,-1.61695 8.90625,-1.28125 0.61171,0.37806 0.75569,4.46103 0.375,10.71875 -0.48684,8.00251 -0.21804,12.05264 1.34375,19.5 2.08998,9.96603 2.51654,16.09375 1.125,16.09375 -0.46391,0 -2.69094,-2.2049 -4.96875,-4.90625 -4.82243,-5.71912 -10.63023,-8.37882 -17.25,-7.90625 l -4.4375,0.3125 6.59375,2.28125 c 7.26045,2.51007 9.53737,4.52919 16,14.21875 2.38442,3.575 4.80382,6.84592 5.375,7.25 1.51233,1.06989 2.15433,0.94034 3.53125,-0.71875 0.587878,-0.70835 0.854091,-2.69128 0.84375,-6.96875 -4.6e-5,-0.0191 5.7e-5,-0.0433 0,-0.0625 0.09661,-2.99775 -0.0086,-6.92463 -0.3125,-11.84375 -0.08633,-1.39743 -0.146773,-2.31901 -0.21875,-3.5625 -0.653509,-15.6271 -0.594765,-18.69075 0.15625,-29.09375 0.9196,-12.73813 0.03211,-16 -4.34375,-16 z m -162.28125,19.125 c -2.61843,-0.10384 -5.43913,1.37442 -7.34375,4.28125 -1.73425,2.64679 -1.12619,4.93019 2.375,8.9375 2.12766,2.43522 6.87224,1.506 9.875,-1.90625 2.75173,-3.12699 2.77052,-4.05354 0.25,-8.1875 -1.22838,-2.01469 -3.11969,-3.04423 -5.15625,-3.125 z m -3,4.9375 c 1.12807,-0.18725 3.46321,1.32714 3.9375,2.75 0.59254,1.77761 -3.75245,1.44148 -4.4375,-0.34375 -0.32574,-0.84872 -0.27558,-1.84942 0.0937,-2.21875 0.10238,-0.10238 0.2451,-0.16075 0.40625,-0.1875 z m -38.375,13.8125 c -0.56727,0.0167 -1.12234,0.0651 -1.65625,0.1875 -0.0686,0.0587 -0.1231,0.12564 -0.1875,0.1875 -1.13951,0.4391 -1.63364,1.47478 -1.4375,3.09375 0.001,0.009 -0.001,0.0218 0,0.0312 -5.9e-4,0.0104 5.2e-4,0.0209 0,0.0312 -0.0634,1.26456 0.36584,2.57568 1.34375,3.65625 4.85562,5.3654 29.69125,18.11008 38.78125,19.90625 6.02963,1.19149 8.94814,1.17946 14.59375,-0.0312 5.69745,-1.22189 12.61799,-5.8183 14.28125,-9.46875 1.29686,-2.84631 0.13629,-4.8076 -1.3125,-2.21875 -0.53011,0.94725 -3.06511,2.97683 -5.65625,4.5 -3.92764,2.30881 -5.79977,2.74635 -11.21875,2.65625 -10.33949,-0.17182 -20.28498,-4.94467 -38.71875,-18.5625 l -4.375,-3.21875 c -1.00585,-0.4427 -2.73569,-0.80012 -4.4375,-0.75 z m 148.125,13.15625 c -5.69,-0.0943 -13.59375,8.02175 -13.59375,13.96875 0,1.7141 -0.39013,2.0398 -1.75,1.46875 -13.58835,-5.70614 -22.17472,-7.38463 -25.71875,-5.0625 -2.90233,1.90168 -3.3438,5.22534 -0.78125,5.96875 0.9625,0.27923 6.25,1.03497 11.75,1.6875 5.5,0.65252 10.675,1.56767 11.5,2.03125 1.064564,0.5982 2.535559,0.86325 4,0.8125 0.07619,0.002 0.143479,-2.3e-4 0.21875,0 0.02106,-10e-4 0.04145,10e-4 0.0625,0 1.260091,-0.005 2.362216,-0.25331 3.125,-0.78125 0.02163,-0.0105 0.04112,-0.0206 0.0625,-0.0312 0.0116,-0.008 0.01982,-0.0227 0.03125,-0.0312 0.264427,-0.13484 0.530537,-0.2709 0.75,-0.4375 1.20997,-0.91849 1.75,-2.73674 1.75,-5.84375 0,-4.76235 1.51969,-7.08603 7.5,-11.5 2.45979,-1.81553 2.66157,-2.224 1.09375,-2.25 z"
           id="path14837-1"
           transform="translate(99.211478,338.07605)" />
        <path
           inkscape:connector-curvature="0"
           id="path14837-1-6"
           d="m -12.199457,777.56506 -3.5,-1.05694 6.2285098,-1.17844 c 8.24669,-1.56027 10.27148998,-3.46892 10.27148998,-9.6823 0,-5.28278 1.03032002,-6.0675 3.44330002,-2.6225 3.4803,4.96882 1.0763,11.82679 -5.04186999,14.38312 -3.84285001,1.60565 -6.48401001,1.64203 -11.40142981,0.15706 z M 125.25893,756.04865 c 0.45732,-2.70687 0.17012,-5.19961 -0.89194,-7.74148 -1.94535,-4.65588 -1.95691,-4.5048 0.34466,-4.5048 2.81945,0 7.29545,5.72624 6.53773,8.36386 -0.81433,2.83466 -3.74829,6.90262 -5.36775,7.44244 -0.9895,0.32984 -1.13721,-0.51465 -0.6227,-3.56002 z M 89.300543,731.66544 c -19.76565,-6.38181 -54.73467,-6.56459 -78.30583,-0.40931 -4.8138902,1.25708 -5.8944302,1.27456 -7.0548902,0.1141 -1.98183,-1.98183 1.60751,-4.06349 11.4252302,-6.62612 19.213794,-3.67724 66.18646,-5.15465 82.43549,8.50324 0,0.88023 -2.06399,0.4961 -8.5,-1.58191 z"
           style="fill:#71a0fe;fill-opacity:1"
           sodipodi:nodetypes="cccsssccssssccssccc" />
      </g>
      <g
         transform="matrix(0.08611806,0,0,0.08611806,81.187684,552.23435)"
         id="text829"
         style="font-style:normal;font-variant:normal;font-weight:300;font-stretch:normal;font-size:217.053px;line-height:1.25;font-family:'Mukta Vaani';-inkscape-font-specification:'Mukta Vaani, Light';font-variant-ligatures:normal;font-variant-caps:normal;font-variant-numeric:normal;font-feature-settings:normal;text-align:start;letter-spacing:0px;word-spacing:0px;writing-mode:lr-tb;text-anchor:start;fill:#000000;fill-opacity:1;stroke:none;stroke-width:5.4262"
         aria-label="GlassFish" />
    </g>
  </g>
</svg>
