<?xml version="1.0" encoding="UTF-8" standalone="no"?>
<svg
   xmlns:dc="http://purl.org/dc/elements/1.1/"
   xmlns:cc="http://creativecommons.org/ns#"
   xmlns:rdf="http://www.w3.org/1999/02/22-rdf-syntax-ns#"
   xmlns:svg="http://www.w3.org/2000/svg"
   xmlns="http://www.w3.org/2000/svg"
   xmlns:sodipodi="http://sodipodi.sourceforge.net/DTD/sodipodi-0.dtd"
   xmlns:inkscape="http://www.inkscape.org/namespaces/inkscape"
   width="15.875mm"
   height="15.610416mm"
   viewBox="0 0 15.875 15.610416"
   version="1.1"
   id="svg8"
   inkscape:version="1.0.2-2 (e86c870879, 2021-01-15)"
   sodipodi:docname="server.svg">
  <defs
     id="defs2" />
  <sodipodi:namedview
     id="base"
     pagecolor="#ffffff"
     bordercolor="#666666"
     borderopacity="1.0"
     inkscape:pageopacity="0.0"
     inkscape:pageshadow="2"
     inkscape:zoom="0.27798851"
     inkscape:cx="-13.279182"
     inkscape:cy="1.9493448"
     inkscape:document-units="mm"
     inkscape:current-layer="layer1"
     inkscape:document-rotation="0"
     showgrid="false"
     fit-margin-top="0"
     fit-margin-left="0"
     fit-margin-right="0"
     fit-margin-bottom="0"
     inkscape:window-width="1346"
     inkscape:window-height="1040"
     inkscape:window-x="78"
     inkscape:window-y="0"
     inkscape:window-maximized="0" />
  <metadata
     id="metadata5">
    <rdf:RDF>
      <cc:Work
         rdf:about="">
        <dc:format>image/svg+xml</dc:format>
        <dc:type
           rdf:resource="http://purl.org/dc/dcmitype/StillImage" />
        <dc:title></dc:title>
      </cc:Work>
    </rdf:RDF>
  </metadata>
  <g
     inkscape:label="Layer 1"
     inkscape:groupmode="layer"
     id="layer1"
     transform="translate(-73.915405,-137.81682)">
    <g
       id="g897"
       transform="matrix(0.26458333,0,0,0.26458333,73.915405,137.68453)"
       style="fill:#777bb3;fill-opacity:1">
      <g
         id="g839"
         style="fill:#777bb3;fill-opacity:1">
	<path
   d="m 0,24.108 v 11.783 c 0,0.974 0.314,1.868 0.835,2.608 H 59.164 C 59.686,37.76 60,36.865 60,35.892 V 24.108 C 60,23.134 59.686,22.24 59.165,21.5 H 0.835 C 0.314,22.24 0,23.135 0,24.108 Z M 52,30.5 c 0.552,0 1,0.448 1,1 0,0.552 -0.448,1 -1,1 -0.552,0 -1,-0.448 -1,-1 0,-0.552 0.448,-1 1,-1 z m -2,-3 c 0.552,0 1,0.448 1,1 0,0.552 -0.448,1 -1,1 -0.552,0 -1,-0.448 -1,-1 0,-0.552 0.448,-1 1,-1 z m -2,3 c 0.552,0 1,0.448 1,1 0,0.552 -0.448,1 -1,1 -0.552,0 -1,-0.448 -1,-1 0,-0.552 0.448,-1 1,-1 z m -2,-3 c 0.552,0 1,0.448 1,1 0,0.552 -0.448,1 -1,1 -0.552,0 -1,-0.448 -1,-1 0,-0.552 0.448,-1 1,-1 z m -2,3 c 0.552,0 1,0.448 1,1 0,0.552 -0.448,1 -1,1 -0.552,0 -1,-0.448 -1,-1 0,-0.552 0.448,-1 1,-1 z m -2,-3 c 0.552,0 1,0.448 1,1 0,0.552 -0.448,1 -1,1 -0.552,0 -1,-0.448 -1,-1 0,-0.552 0.448,-1 1,-1 z m -2,3 c 0.552,0 1,0.448 1,1 0,0.552 -0.448,1 -1,1 -0.552,0 -1,-0.448 -1,-1 0,-0.552 0.448,-1 1,-1 z m -2,-3 c 0.552,0 1,0.448 1,1 0,0.552 -0.448,1 -1,1 -0.552,0 -1,-0.448 -1,-1 0,-0.552 0.448,-1 1,-1 z m -2,3 c 0.552,0 1,0.448 1,1 0,0.552 -0.448,1 -1,1 -0.552,0 -1,-0.448 -1,-1 0,-0.552 0.448,-1 1,-1 z m -2,-3 c 0.552,0 1,0.448 1,1 0,0.552 -0.448,1 -1,1 -0.552,0 -1,-0.448 -1,-1 0,-0.552 0.448,-1 1,-1 z m -23.5,-2 c 2.481,0 4.5,2.019 4.5,4.5 0,2.481 -2.019,4.5 -4.5,4.5 C 8.019,34.5 6,32.481 6,30 6,27.519 8.019,25.5 10.5,25.5 Z"
   id="path833"
   style="fill:#777bb3;fill-opacity:1" />

	<path
   d="M 59.165,19.5 C 59.686,18.76 60,17.865 60,16.892 V 5.108 C 60,2.567 57.933,0.5 55.392,0.5 H 4.608 C 2.067,0.5 0,2.567 0,5.108 v 11.783 c 0,0.974 0.314,1.868 0.835,2.608 h 58.33 z M 52,11.5 c 0.552,0 1,0.448 1,1 0,0.552 -0.448,1 -1,1 -0.552,0 -1,-0.448 -1,-1 0,-0.552 0.448,-1 1,-1 z m -2,-3 c 0.552,0 1,0.448 1,1 0,0.552 -0.448,1 -1,1 -0.552,0 -1,-0.448 -1,-1 0,-0.552 0.448,-1 1,-1 z m -2,3 c 0.552,0 1,0.448 1,1 0,0.552 -0.448,1 -1,1 -0.552,0 -1,-0.448 -1,-1 0,-0.552 0.448,-1 1,-1 z m -2,-3 c 0.552,0 1,0.448 1,1 0,0.552 -0.448,1 -1,1 -0.552,0 -1,-0.448 -1,-1 0,-0.552 0.448,-1 1,-1 z m -2,3 c 0.552,0 1,0.448 1,1 0,0.552 -0.448,1 -1,1 -0.552,0 -1,-0.448 -1,-1 0,-0.552 0.448,-1 1,-1 z m -2,-3 c 0.552,0 1,0.448 1,1 0,0.552 -0.448,1 -1,1 -0.552,0 -1,-0.448 -1,-1 0,-0.552 0.448,-1 1,-1 z m -2,3 c 0.552,0 1,0.448 1,1 0,0.552 -0.448,1 -1,1 -0.552,0 -1,-0.448 -1,-1 0,-0.552 0.448,-1 1,-1 z m -2,-3 c 0.552,0 1,0.448 1,1 0,0.552 -0.448,1 -1,1 -0.552,0 -1,-0.448 -1,-1 0,-0.552 0.448,-1 1,-1 z m -2,3 c 0.552,0 1,0.448 1,1 0,0.552 -0.448,1 -1,1 -0.552,0 -1,-0.448 -1,-1 0,-0.552 0.448,-1 1,-1 z m -2,-3 c 0.552,0 1,0.448 1,1 0,0.552 -0.448,1 -1,1 -0.552,0 -1,-0.448 -1,-1 0,-0.552 0.448,-1 1,-1 z m -23.5,-2 c 2.481,0 4.5,2.019 4.5,4.5 0,2.481 -2.019,4.5 -4.5,4.5 C 8.019,15.5 6,13.481 6,11 6,8.519 8.019,6.5 10.5,6.5 Z"
   id="path835"
   style="fill:#777bb3;fill-opacity:1" />

	<path
   d="M 0.835,40.5 C 0.314,41.24 0,42.135 0,43.108 V 54.891 C 0,57.433 2.067,59.5 4.608,59.5 h 50.783 c 2.541,0 4.608,-2.067 4.608,-4.608 V 43.108 c 0,-0.974 -0.314,-1.868 -0.835,-2.608 z m 9.665,13 C 8.019,53.5 6,51.481 6,49 c 0,-2.481 2.019,-4.5 4.5,-4.5 2.481,0 4.5,2.019 4.5,4.5 0,2.481 -2.019,4.5 -4.5,4.5 z m 23.5,-5 c -0.552,0 -1,-0.448 -1,-1 0,-0.552 0.448,-1 1,-1 0.552,0 1,0.448 1,1 0,0.552 -0.448,1 -1,1 z m 2,3 c -0.552,0 -1,-0.448 -1,-1 0,-0.552 0.448,-1 1,-1 0.552,0 1,0.448 1,1 0,0.552 -0.448,1 -1,1 z m 2,-3 c -0.552,0 -1,-0.448 -1,-1 0,-0.552 0.448,-1 1,-1 0.552,0 1,0.448 1,1 0,0.552 -0.448,1 -1,1 z m 2,3 c -0.552,0 -1,-0.448 -1,-1 0,-0.552 0.448,-1 1,-1 0.552,0 1,0.448 1,1 0,0.552 -0.448,1 -1,1 z m 2,-3 c -0.552,0 -1,-0.448 -1,-1 0,-0.552 0.448,-1 1,-1 0.552,0 1,0.448 1,1 0,0.552 -0.448,1 -1,1 z m 2,3 c -0.552,0 -1,-0.448 -1,-1 0,-0.552 0.448,-1 1,-1 0.552,0 1,0.448 1,1 0,0.552 -0.448,1 -1,1 z m 2,-3 c -0.552,0 -1,-0.448 -1,-1 0,-0.552 0.448,-1 1,-1 0.552,0 1,0.448 1,1 0,0.552 -0.448,1 -1,1 z m 2,3 c -0.552,0 -1,-0.448 -1,-1 0,-0.552 0.448,-1 1,-1 0.552,0 1,0.448 1,1 0,0.552 -0.448,1 -1,1 z m 2,-3 c -0.552,0 -1,-0.448 -1,-1 0,-0.552 0.448,-1 1,-1 0.552,0 1,0.448 1,1 0,0.552 -0.448,1 -1,1 z m 2,3 c -0.552,0 -1,-0.448 -1,-1 0,-0.552 0.448,-1 1,-1 0.552,0 1,0.448 1,1 0,0.552 -0.448,1 -1,1 z"
   id="path837"
   style="fill:#777bb3;fill-opacity:1" />

</g>
      <g
         id="g841"
         style="fill:#777bb3;fill-opacity:1">
</g>
      <g
         id="g843"
         style="fill:#777bb3;fill-opacity:1">
</g>
      <g
         id="g845"
         style="fill:#777bb3;fill-opacity:1">
</g>
      <g
         id="g847"
         style="fill:#777bb3;fill-opacity:1">
</g>
      <g
         id="g849"
         style="fill:#777bb3;fill-opacity:1">
</g>
      <g
         id="g851"
         style="fill:#777bb3;fill-opacity:1">
</g>
      <g
         id="g853"
         style="fill:#777bb3;fill-opacity:1">
</g>
      <g
         id="g855"
         style="fill:#777bb3;fill-opacity:1">
</g>
      <g
         id="g857"
         style="fill:#777bb3;fill-opacity:1">
</g>
      <g
         id="g859"
         style="fill:#777bb3;fill-opacity:1">
</g>
      <g
         id="g861"
         style="fill:#777bb3;fill-opacity:1">
</g>
      <g
         id="g863"
         style="fill:#777bb3;fill-opacity:1">
</g>
      <g
         id="g865"
         style="fill:#777bb3;fill-opacity:1">
</g>
      <g
         id="g867"
         style="fill:#777bb3;fill-opacity:1">
</g>
      <g
         id="g869"
         style="fill:#777bb3;fill-opacity:1">
</g>
    </g>
  </g>
</svg>
